<?xml version="1.0" encoding="utf-8"?>
<!-- Generator: Adobe Illustrator 13.0.0, SVG Export Plug-In . SVG Version: 6.00 Build 14948)  -->
<!DOCTYPE svg PUBLIC "-//W3C//DTD SVG 1.1//EN" "http://www.w3.org/Graphics/SVG/1.1/DTD/svg11.dtd">
<svg version="1.1" id="Layer_1" xmlns="http://www.w3.org/2000/svg" xmlns:xlink="http://www.w3.org/1999/xlink" x="0px" y="0px"
	 width="193.484px" height="193.443px" viewBox="0 0 193.484 193.443" enable-background="new 0 0 193.484 193.443"
	 xml:space="preserve">
<g>
	<g>
		<g>
			<g>
				<path fill="#231F20" d="M48.627,125.428c1.854,0,3.592-0.994,5.216-2.98c1.622-1.987,3.194-4.536,4.719-7.65
					c1.523-3.11,3.014-6.57,4.472-10.382c1.455-3.809,2.945-7.533,4.471-11.176c-1.193,1.523-2.5,3.029-3.924,4.52
					c-1.427,1.489-2.981,2.831-4.669,4.023c-1.69,1.191-3.495,2.168-5.415,2.931c-1.922,0.763-3.909,1.143-5.961,1.143
					c-2.583,0-4.604-0.66-6.061-1.985c-1.458-1.323-2.32-2.997-2.583-5.019c-0.266-2.02,0.083-4.205,1.043-6.558
					c0.959-2.35,2.599-4.536,4.917-6.556c2.317-2.021,5.281-3.692,8.892-5.018c3.608-1.323,7.964-1.987,13.063-1.987
					c1.722,0,3.261-0.016,4.619-0.049c1.357-0.034,2.598-0.083,3.726-0.15c0.928-1.057,1.839-1.919,2.732-2.583
					c0.895-0.66,1.837-1.058,2.831-1.192c1.521-0.197,2.698,0.052,3.527,0.746c0.826,0.695,1.075,1.508,0.745,2.436
					c-0.333,0.793-0.979,1.39-1.938,1.787c-0.96,0.397-2.533,0.695-4.718,0.895c-0.93,1.854-1.956,4.521-3.081,7.996
					c-1.126,3.479-2.451,7.204-3.975,11.178c1.523-0.198,2.946-0.96,4.271-2.283c1.325-1.326,2.633-2.914,3.925-4.771
					c1.292-1.852,2.666-3.84,4.124-5.96c1.456-2.118,3.079-4.072,4.867-5.861c1.788-1.788,3.809-3.276,6.061-4.47
					c2.253-1.192,4.834-1.788,7.749-1.788c0.463,0,0.812,0.116,1.042,0.347c0.231,0.232,0.35,0.497,0.35,0.796
					c0,0.298-0.117,0.562-0.35,0.795c-0.23,0.231-0.579,0.347-1.042,0.347c-0.597,0-1.406,0.498-2.435,1.491
					c-1.027,0.994-2.251,2.252-3.676,3.774c-1.426,1.523-2.98,3.214-4.668,5.068c-1.69,1.854-3.463,3.674-5.315,5.462
					c-1.854,1.79-3.759,3.413-5.713,4.869c-1.954,1.458-3.859,2.551-5.712,3.278c1.391,0.797,2.449,1.854,3.179,3.18
					c0.729,1.325,1.258,2.767,1.59,4.32c0.33,1.558,0.528,3.147,0.596,4.771c0.065,1.622,0.133,3.078,0.198,4.37
					c0.066,1.292,0.233,2.352,0.498,3.179c0.265,0.83,0.761,1.242,1.491,1.242c1.257,0,2.697-0.795,4.321-2.383
					c1.623-1.591,3.096-3.543,4.422-5.862c0.727-1.126,1.341-1.572,1.837-1.341c0.497,0.232,0.479,0.944-0.05,2.136
					c-0.595,1.325-1.489,2.731-2.683,4.223c-1.191,1.49-2.501,2.865-3.924,4.123c-1.426,1.26-2.915,2.285-4.471,3.08
					c-1.557,0.795-2.965,1.191-4.222,1.191c-1.657,0-2.749-0.596-3.279-1.788c-0.531-1.19-0.794-2.683-0.794-4.472
					c0-1.788,0.147-3.727,0.447-5.812c0.298-2.087,0.462-4.073,0.497-5.962c0.031-1.888-0.199-3.508-0.697-4.867
					c-0.496-1.357-1.506-2.168-3.03-2.435h-0.199c-1.19,3.18-2.517,6.294-3.973,9.338c-1.457,3.049-3.079,5.764-4.868,8.147
					c-1.788,2.385-3.742,4.319-5.861,5.811s-4.47,2.236-7.054,2.236c-2.916,0-5.101-0.678-6.557-2.035
					c-1.458-1.358-2.319-2.884-2.583-4.572c-0.267-1.687,0.033-3.261,0.894-4.718c0.859-1.456,2.15-2.285,3.875-2.484
					c1.257-0.132,2.186,0.115,2.781,0.744c0.596,0.631,0.977,1.36,1.142,2.188s0.116,1.605-0.147,2.333
					c-0.265,0.73-0.629,1.095-1.093,1.095c-0.929,0-1.574,0.297-1.938,0.894c-0.364,0.596-0.48,1.242-0.348,1.937
					c0.133,0.697,0.513,1.328,1.144,1.891C46.524,125.146,47.435,125.428,48.627,125.428z M73.762,83.304
					c-0.464,0.992-1.028,2.02-1.688,3.079c-0.531,0.928-1.177,1.972-1.938,3.13s-1.638,2.401-2.632,3.726
					c0.926-2.318,1.888-4.537,2.881-6.657c0.993-2.118,2.019-4.006,3.08-5.664H66.51c-3.047,0-5.829,0.531-8.345,1.589
					c-2.519,1.062-4.687,2.369-6.507,3.925c-1.823,1.558-3.279,3.247-4.371,5.067c-1.094,1.823-1.724,3.512-1.889,5.066
					c-0.167,1.557,0.133,2.866,0.896,3.923c0.76,1.061,2.101,1.591,4.021,1.591c1.392,0,2.782-0.28,4.173-0.843
					c1.391-0.563,2.747-1.312,4.073-2.238c1.324-0.924,2.583-1.985,3.775-3.178c1.191-1.192,2.316-2.417,3.377-3.677
					c2.451-2.912,4.769-6.225,6.955-9.935L73.762,83.304z"/>
				<path fill="#231F20" d="M48.726,128.637c-3.103,0.002-5.662-0.723-7.458-2.392l0,0c-1.629-1.509-2.679-3.324-2.988-5.334l0,0
					c-0.071-0.462-0.11-0.923-0.11-1.381l0,0c0-1.481,0.401-2.92,1.174-4.216l0,0c1.024-1.782,2.793-2.913,4.875-3.126l0,0
					c0.255-0.028,0.509-0.044,0.761-0.044l0,0c1.17-0.01,2.324,0.345,3.12,1.191l0,0c0.753,0.795,1.271,1.772,1.48,2.84l0,0
					c0.079,0.399,0.12,0.796,0.12,1.19l0,0c0,0.633-0.109,1.259-0.324,1.852l0,0c-0.179,0.48-0.401,0.922-0.78,1.308l0,0
					c-0.366,0.385-0.97,0.671-1.556,0.659l0,0c-0.679,0.029-0.712,0.14-0.809,0.264l0,0c-0.152,0.25-0.205,0.449-0.209,0.698l0,0
					c0,0.091,0.01,0.188,0.03,0.299l0,0c0.076,0.376,0.263,0.729,0.727,1.151l0,0c0.306,0.271,0.852,0.503,1.849,0.506l0,0v1.323
					v0.562v-0.562v-1.323c1.347-0.006,2.701-0.688,4.189-2.494l0,0c1.538-1.881,3.066-4.35,4.557-7.396l0,0
					c1.504-3.068,2.978-6.495,4.424-10.272l0,0c0.533-1.395,1.069-2.774,1.61-4.146l0,0c-1.167,1.111-2.411,2.135-3.734,3.066l0,0
					c-1.774,1.251-3.673,2.282-5.69,3.083l0,0c-2.072,0.821-4.231,1.232-6.449,1.231l0,0c-2.797,0.007-5.194-0.729-6.949-2.328l0,0
					c-1.685-1.52-2.714-3.531-3.005-5.825l0,0c-0.065-0.494-0.099-0.999-0.099-1.509l0,0c0-1.844,0.424-3.754,1.229-5.721l0,0
					c1.05-2.575,2.833-4.928,5.272-7.055l0,0c2.47-2.148,5.579-3.894,9.306-5.262l0,0c3.8-1.391,8.307-2.067,13.521-2.067l0,0
					c1.714,0,3.243-0.016,4.588-0.049l0,0c1.128-0.028,2.173-0.066,3.137-0.117l0,0c0.85-0.93,1.702-1.715,2.566-2.357l0,0
					c1.043-0.774,2.209-1.274,3.445-1.438l0,0c0.385-0.051,0.763-0.079,1.134-0.079l0,0c1.277-0.007,2.487,0.338,3.416,1.121l0,0
					c0.793,0.646,1.369,1.619,1.358,2.681l0,0c0,0.42-0.083,0.823-0.217,1.204l0,0l-0.014,0.042l-0.015,0.032
					c-0.475,1.156-1.458,2.018-2.651,2.499l0,0c-1.067,0.437-2.48,0.712-4.354,0.915l0,0c-0.804,1.725-1.708,4.125-2.69,7.162l0,0
					c-0.866,2.673-1.846,5.486-2.942,8.441l0,0c0.347-0.246,0.693-0.545,1.046-0.891l0,0c1.259-1.259,2.52-2.789,3.772-4.59l0,0
					c1.29-1.852,2.662-3.838,4.12-5.955l0,0c1.5-2.186,3.176-4.205,5.021-6.048l0,0c1.882-1.881,4.013-3.452,6.377-4.705l0,0
					c2.462-1.305,5.275-1.943,8.369-1.942l0,0c0.667-0.004,1.417,0.18,1.981,0.74l0,0c0.433,0.417,0.743,1.075,0.73,1.727l0,0
					c0.013,0.649-0.298,1.311-0.735,1.731l0,0c-0.558,0.556-1.303,0.736-1.963,0.734l0,0c-0.007,0.002-0.029,0.006-0.062,0.017l0,0
					c-0.065,0.023-0.175,0.074-0.315,0.162l0,0c-0.284,0.171-0.684,0.486-1.15,0.939l0,0c-1.003,0.973-2.216,2.217-3.627,3.729l0,0
					c-1.421,1.52-2.973,3.204-4.659,5.055l0,0c-1.709,1.875-3.502,3.719-5.375,5.524l0,0c-1.893,1.825-3.84,3.486-5.84,4.977l0,0
					c-1.318,0.983-2.625,1.814-3.92,2.489l0,0c0.701,0.663,1.29,1.423,1.756,2.271l0,0c0.792,1.442,1.366,3.011,1.725,4.684l0,0
					c0.346,1.632,0.553,3.296,0.622,4.99l0,0c0.066,1.618,0.135,3.069,0.2,4.355l0,0c0.061,1.216,0.218,2.176,0.438,2.847l0,0
					c0.057,0.186,0.12,0.275,0.142,0.303l0,0l0.006,0.01c0.001,0,0.022,0.008,0.081,0.008l0,0c0.674,0.023,1.888-0.517,3.394-2.005
					l0,0c1.521-1.492,2.925-3.344,4.199-5.573l0,0l0.017-0.029l0.021-0.031c0.711-1,1.267-1.888,2.688-2.006l0,0
					c0.28-0.003,0.575,0.065,0.824,0.182l0,0c0.765,0.315,1.175,1.26,1.123,1.873l0,0c-0.011,0.693-0.221,1.291-0.527,2.005l0,0
					c-0.655,1.458-1.611,2.95-2.857,4.507l0,0c-1.236,1.548-2.599,2.98-4.079,4.287l0,0c-1.502,1.327-3.084,2.42-4.747,3.269l0,0
					c-1.682,0.855-3.283,1.335-4.821,1.336l0,0c-1.938,0.054-3.765-0.843-4.486-2.571l0,0c-0.632-1.422-0.908-3.094-0.911-5.01l0,0
					c0-1.862,0.154-3.862,0.459-5.999l0,0c0.291-2.035,0.451-3.971,0.484-5.792l0,0c0.001-0.107,0.001-0.214,0.001-0.324l0,0
					c0.002-1.627-0.218-2.983-0.618-4.07l0,0c-0.275-0.673-0.586-1.065-1.166-1.326l0,0c-1.095,2.838-2.295,5.618-3.6,8.347l0,0
					c-1.489,3.117-3.156,5.907-5.004,8.369l0,0c-1.857,2.479-3.909,4.52-6.159,6.102l0,0c-2.315,1.634-4.96,2.477-7.788,2.477l0,0
					C48.744,128.637,48.735,128.637,48.726,128.637L48.726,128.637z M74.954,103.762c0.533,1.456,0.778,3.117,0.778,4.979l0,0
					c0,0.117,0,0.237-0.002,0.366l0,0c-0.036,1.947-0.206,3.986-0.51,6.125l0,0c-0.292,2.032-0.435,3.909-0.435,5.624l0,0
					c-0.001,1.659,0.248,2.97,0.682,3.934l0,0c0.334,0.653,0.692,0.947,2.07,1.003l0,0c0.974,0,2.19-0.317,3.62-1.049l0,0
					c0.973-0.497,1.922-1.093,2.849-1.791l0,0c-0.554,0.199-1.118,0.312-1.7,0.316l0,0c-0.61,0.009-1.272-0.193-1.767-0.615l0,0
					c-0.497-0.414-0.803-0.969-0.983-1.543l0,0c-0.315-0.988-0.487-2.148-0.56-3.518l0,0c-0.065-1.296-0.132-2.758-0.198-4.385l0,0
					c-0.063-1.549-0.254-3.062-0.569-4.546l0,0c-0.307-1.436-0.791-2.752-1.455-3.959l0,0c-0.613-1.107-1.475-1.979-2.677-2.67l0,0
					l-0.428-0.246C74.244,102.321,74.689,102.99,74.954,103.762L74.954,103.762z M44.506,114.818
					c-1.378,0.186-2.19,0.714-2.887,1.844l0,0c-0.548,0.928-0.802,1.854-0.806,2.869l0,0c0,0.312,0.026,0.636,0.08,0.971l0,0
					c0.217,1.368,0.891,2.603,2.177,3.808l0,0c0.454,0.428,1.026,0.786,1.728,1.06l0,0c-0.687-0.674-1.173-1.506-1.345-2.422l0,0
					c-0.053-0.269-0.078-0.537-0.078-0.799l0,0c-0.001-0.732,0.213-1.46,0.596-2.078l0,0c0.588-0.998,1.715-1.487,2.819-1.527l0,0
					c0.027-0.052,0.061-0.124,0.095-0.222l0,0c0.11-0.306,0.166-0.613,0.166-0.952l0,0c0-0.213-0.022-0.435-0.07-0.672l0,0
					c-0.121-0.592-0.369-1.07-0.805-1.538l0,0c-0.191-0.194-0.479-0.356-1.198-0.365l0,0
					C44.836,114.793,44.672,114.802,44.506,114.818L44.506,114.818z M64.269,104.887c-1.471,3.841-2.975,7.338-4.519,10.491l0,0
					c-1.559,3.18-3.175,5.812-4.883,7.904l0,0c-0.575,0.709-1.188,1.326-1.838,1.835l0,0c0.683-0.297,1.344-0.671,1.99-1.123l0,0
					c1.99-1.397,3.847-3.231,5.563-5.521l0,0c1.729-2.307,3.308-4.945,4.733-7.926l0,0c1.439-3.011,2.749-6.088,3.928-9.231l0,0
					l0.32-0.858h0.041l0.438-1.138c1.515-3.956,2.832-7.659,3.95-11.109l0,0c1.139-3.516,2.177-6.226,3.155-8.184l0,0l0.33-0.658
					l0.733-0.068c2.118-0.186,3.62-0.495,4.333-0.798l0,0c0.71-0.305,1.018-0.628,1.21-1.047l0,0c0.04-0.13,0.051-0.222,0.051-0.286
					l0,0c-0.012-0.167-0.027-0.308-0.415-0.653l0,0c-0.365-0.301-0.862-0.495-1.713-0.501l0,0c-0.239,0-0.503,0.017-0.788,0.055l0,0
					c-0.755,0.103-1.477,0.396-2.218,0.944l0,0c-0.8,0.593-1.648,1.389-2.525,2.392l0,0l-0.364,0.414l-0.047,0.003l-1.158,1.809
					c-0.08,0.124-0.159,0.25-0.238,0.376l0,0l0.358,0.359l-0.937,0.935l0.937-0.935l0.654,0.654l-0.391,0.842
					c-0.49,1.048-1.08,2.121-1.74,3.176l0,0c-0.549,0.958-1.207,2.023-1.979,3.199l0,0c-0.755,1.148-1.615,2.368-2.583,3.664l0,0
					C67.162,97.483,65.699,101.143,64.269,104.887L64.269,104.887z M54.2,81.96c-3.495,1.284-6.312,2.886-8.479,4.775l0,0
					c-2.196,1.915-3.694,3.933-4.562,6.058l0,0c-0.701,1.715-1.031,3.285-1.031,4.721l0,0c0,0.395,0.025,0.783,0.075,1.167l0,0
					c0.237,1.745,0.929,3.077,2.161,4.208l0,0c1.159,1.052,2.8,1.637,5.17,1.644l0,0c1.889-0.002,3.701-0.348,5.473-1.05l0,0
					c1.187-0.47,2.323-1.026,3.413-1.667l0,0c-0.474,0.233-0.952,0.451-1.436,0.646l0,0c-1.531,0.621-3.099,0.941-4.668,0.94l0,0
					c-2.13,0.014-4.005-0.612-5.098-2.139l0,0c-0.801-1.109-1.193-2.457-1.188-3.889l0,0c0-0.312,0.019-0.63,0.053-0.949l0,0
					c0.192-1.808,0.908-3.67,2.068-5.606l0,0c1.176-1.956,2.729-3.755,4.646-5.395l0,0c1.937-1.653,4.227-3.03,6.854-4.137l0,0
					c0.624-0.262,1.264-0.494,1.915-0.696l0,0C57.604,80.91,55.813,81.369,54.2,81.96L54.2,81.96z M58.679,83.728
					c-2.412,1.014-4.458,2.254-6.162,3.71l0,0c-1.729,1.478-3.084,3.057-4.096,4.741l0,0c-1.024,1.708-1.57,3.225-1.709,4.527l0,0
					c-0.023,0.236-0.036,0.457-0.036,0.668l0,0c0.005,0.979,0.239,1.706,0.692,2.344l0,0c0.425,0.593,1.235,1.024,2.947,1.036l0,0
					c1.213-0.001,2.428-0.24,3.677-0.744l0,0c1.292-0.525,2.559-1.218,3.811-2.097l0,0c1.259-0.88,2.458-1.889,3.598-3.028l0,0
					c1.167-1.167,2.267-2.361,3.303-3.593l0,0c2.239-2.666,4.379-5.683,6.407-9.051l0,0h-4.6
					C63.614,82.242,61.017,82.743,58.679,83.728L58.679,83.728z M95.145,77.618c-2.14,1.131-4.049,2.54-5.744,4.236l0,0
					c-1.73,1.729-3.304,3.621-4.714,5.677l0,0c-1.458,2.121-2.835,4.109-4.125,5.966l0,0c-1.331,1.906-2.685,3.557-4.076,4.949l0,0
					c-0.13,0.13-0.262,0.255-0.396,0.376l0,0c1.163-0.602,2.36-1.358,3.586-2.273l0,0c1.907-1.422,3.769-3.01,5.584-4.762l0,0
					c1.836-1.769,3.588-3.568,5.257-5.403l0,0c1.692-1.855,3.25-3.549,4.681-5.078l0,0c1.435-1.534,2.671-2.808,3.722-3.822l0,0
					c0.657-0.606,1.229-1.11,1.853-1.441l0,0C98.664,76.21,96.801,76.741,95.145,77.618L95.145,77.618z"/>
			</g>
			<g>
				<path fill="#231F20" d="M106.747,94.431c1.787,0,3.109,0.794,3.973,2.384l0.1-0.101c0.331-0.729,0.879-1.256,1.641-1.589
					c0.76-0.331,1.506-0.497,2.234-0.497s1.324,0.183,1.788,0.547c0.462,0.364,0.562,0.878,0.297,1.539
					c-0.33,0.73-0.812,1.955-1.438,3.677c-0.631,1.723-1.292,3.575-1.988,5.562c-0.693,1.986-1.339,3.91-1.936,5.762
					c-0.598,1.855-1.028,3.214-1.293,4.075c-0.267,0.861-0.515,1.672-0.744,2.435c-0.232,0.763-0.382,1.406-0.447,1.937
					c-0.065,0.532,0.018,0.961,0.248,1.292c0.231,0.333,0.646,0.496,1.242,0.496c1.258,0,2.697-0.795,4.321-2.383
					c1.622-1.591,3.096-3.543,4.422-5.862c0.728-1.126,1.341-1.572,1.837-1.341c0.498,0.232,0.479,0.944-0.051,2.136
					c-0.596,1.325-1.488,2.731-2.681,4.223c-1.192,1.49-2.502,2.865-3.925,4.122c-1.426,1.261-2.916,2.286-4.472,3.081
					c-1.558,0.794-2.963,1.191-4.223,1.191c-1.654,0-2.683-0.547-3.08-1.64c-0.396-1.095-0.465-2.399-0.197-3.925
					c-1.724,1.789-3.444,3.195-5.167,4.223c-1.723,1.026-3.345,1.54-4.868,1.54c-1.39,0-2.483-0.447-3.276-1.341
					c-0.796-0.896-1.325-2.088-1.591-3.578c-0.263-1.49-0.214-3.229,0.149-5.214c0.364-1.986,1.043-4.106,2.039-6.358
					c0.991-2.252,2.184-4.373,3.574-6.357c1.392-1.987,2.864-3.728,4.422-5.218c1.556-1.489,3.111-2.665,4.67-3.525
					C103.879,94.863,105.355,94.431,106.747,94.431z M103.965,116.385c1.124-3.179,2.185-6.29,3.178-9.339
					c0.994-3.045,1.854-5.562,2.583-7.55c-0.531-1.59-1.49-2.45-2.881-2.583c-0.928,0-1.923,0.314-2.981,0.943
					c-1.06,0.632-2.118,1.491-3.179,2.584c-1.06,1.093-2.053,2.383-2.979,3.874c-0.928,1.49-1.725,3.097-2.386,4.817
					c-1.391,3.444-1.938,6.393-1.639,8.843c0.298,2.451,1.341,3.71,3.129,3.774c0.993,0.066,2.068-0.279,3.229-1.044
					c1.159-0.76,2.301-1.803,3.427-3.13L103.965,116.385z"/>
				<path fill="#231F20" d="M88.073,126.853c-0.993-1.117-1.608-2.561-1.905-4.229l0,0c-0.124-0.711-0.187-1.458-0.187-2.242l0,0
					c0-1.078,0.113-2.226,0.337-3.441l0,0c0.39-2.107,1.101-4.323,2.127-6.654l0,0c1.029-2.327,2.266-4.522,3.705-6.582l0,0
					c1.435-2.048,2.963-3.854,4.587-5.411l0,0c1.622-1.557,3.271-2.802,4.945-3.729l0,0c1.698-0.939,3.395-1.456,5.063-1.456l0,0
					v1.321v1.162V94.43v-1.321c1.53-0.033,2.941,0.531,3.996,1.543l0,0c0.353-0.304,0.754-0.554,1.188-0.74l0,0
					c0.899-0.392,1.831-0.606,2.764-0.606l0,0c0.941-0.005,1.87,0.252,2.606,0.83l0,0c0.562,0.414,0.966,1.188,0.944,1.918l0,0
					c-0.003,0.418-0.1,0.792-0.232,1.138l0,0l-0.021,0.057l-0.008,0.018c-0.303,0.661-0.778,1.876-1.399,3.581l0,0
					c-0.629,1.716-1.286,3.563-1.982,5.548l0,0c-0.691,1.976-1.332,3.888-1.927,5.729l0,0c-0.594,1.854-1.026,3.209-1.286,4.062l0,0
					c-0.266,0.858-0.513,1.667-0.745,2.43l0,0c-0.22,0.713-0.348,1.295-0.396,1.722l0,0c-0.012,0.072-0.016,0.128-0.016,0.171l0,0
					c0,0.051,0.004,0.085,0.007,0.11l0,0c0.045,0.006,0.106,0.013,0.186,0.013l0,0c0.673,0.025,1.889-0.516,3.394-2.005l0,0
					c1.521-1.492,2.926-3.344,4.2-5.574l0,0l0.017-0.028l0.02-0.031c0.711-0.999,1.266-1.89,2.688-2.007l0,0
					c0.28-0.002,0.576,0.066,0.823,0.185l0,0c0.764,0.315,1.174,1.258,1.122,1.87l0,0c-0.012,0.694-0.22,1.29-0.525,2.006l0,0
					c-0.656,1.457-1.609,2.951-2.854,4.507l0,0c-1.239,1.55-2.602,2.981-4.082,4.288l0,0c-1.5,1.326-3.082,2.418-4.745,3.269l0,0
					c-1.685,0.855-3.282,1.335-4.822,1.336l0,0c-0.972-0.001-1.855-0.153-2.635-0.566l0,0c-0.779-0.402-1.399-1.117-1.688-1.943l0,0
					c-0.148-0.407-0.257-0.828-0.33-1.267l0,0c-1.028,0.871-2.066,1.623-3.114,2.248l0,0c-1.867,1.113-3.72,1.727-5.545,1.727l0,0
					c-0.024,0.001-0.048,0.001-0.071,0.001l0,0C90.631,128.637,89.105,128.034,88.073,126.853L88.073,126.853z M98.569,100.203
					c-1.484,1.422-2.902,3.095-4.252,5.021l0,0c-1.339,1.915-2.488,3.959-3.45,6.133l0,0c-0.957,2.176-1.602,4.201-1.944,6.063l0,0
					c-0.199,1.082-0.293,2.071-0.293,2.963l0,0c0,0.646,0.05,1.239,0.146,1.78l0,0c0.236,1.316,0.678,2.258,1.275,2.93l0,0
					c0.538,0.589,1.17,0.884,2.289,0.898l0,0c1.219,0,2.611-0.412,4.188-1.353l0,0c0.94-0.561,1.892-1.25,2.854-2.071l0,0
					c-0.768,0.328-1.542,0.511-2.329,0.513l0,0c-0.099,0-0.209-0.002-0.292-0.008l0,0c-1.188-0.026-2.348-0.545-3.093-1.47l0,0
					c-0.752-0.917-1.131-2.093-1.302-3.467l0,0c-0.06-0.492-0.089-0.994-0.089-1.507l0,0c0.001-2.396,0.626-5.049,1.808-7.973l0,0
					c0.689-1.795,1.521-3.476,2.497-5.043l0,0c0.968-1.559,2.017-2.925,3.152-4.093l0,0c0.947-0.979,1.911-1.8,2.898-2.453l0,0
					C101.302,97.846,99.944,98.887,98.569,100.203L98.569,100.203z M103.677,121.784c-0.097,0.538-0.14,1.037-0.14,1.493l0,0
					c0,0.681,0.1,1.255,0.277,1.747l0,0c0.107,0.264,0.198,0.371,0.447,0.513l0,0c0.247,0.137,0.702,0.257,1.39,0.256l0,0
					c0.976,0.001,2.189-0.317,3.621-1.048l0,0c0.971-0.496,1.917-1.093,2.845-1.79l0,0c-0.554,0.2-1.115,0.311-1.696,0.316l0,0
					c-0.805,0.013-1.761-0.249-2.324-1.057l0,0c-0.362-0.511-0.519-1.135-0.514-1.713l0,0c0-0.179,0.015-0.345,0.034-0.502l0,0
					c0.077-0.644,0.247-1.353,0.492-2.161l0,0c0.232-0.763,0.48-1.575,0.747-2.438l0,0c0.269-0.873,0.699-2.232,1.297-4.092l0,0
					c0.603-1.861,1.248-3.797,1.947-5.794l0,0c0.698-1.989,1.361-3.851,1.994-5.579l0,0c0.626-1.713,1.104-2.938,1.463-3.736l0,0
					c0.006-0.018,0.011-0.032,0.018-0.045l0,0c-0.188-0.119-0.445-0.201-0.883-0.205l0,0c-0.529,0-1.088,0.117-1.707,0.386l0,0
					c-0.5,0.229-0.754,0.485-0.962,0.924l0,0l-0.103,0.223l-1.114,1.104c0.064,0.158,0.122,0.322,0.172,0.488l0,0l0.146,0.44
					l-0.16,0.437c-0.721,1.962-1.576,4.469-2.566,7.503l0,0c-0.997,3.062-2.062,6.183-3.188,9.371l0,0l-0.014,0.031l-0.591,1.42
					l-0.132,0.154c-0.083,0.102-0.168,0.196-0.253,0.294l0,0L103.677,121.784L103.677,121.784z M104.542,98.993
					c-0.938,0.56-1.914,1.341-2.908,2.369l0,0c-0.985,1.016-1.922,2.229-2.806,3.651l0,0c-0.883,1.417-1.64,2.944-2.281,4.614l0,0
					c-1.104,2.729-1.625,5.074-1.621,7.001l0,0c0,0.412,0.022,0.806,0.068,1.185l0,0c0.128,1.078,0.422,1.757,0.711,2.098l0,0
					c0.3,0.337,0.556,0.479,1.185,0.52l0,0c0.046,0.002,0.099,0.005,0.163,0.005l0,0c0.581,0.002,1.332-0.228,2.258-0.835l0,0
					c0.986-0.645,1.995-1.551,3.016-2.727l0,0l0.408-0.98c1.114-3.152,2.165-6.236,3.15-9.258l0,0
					c0.917-2.816,1.724-5.188,2.422-7.115l0,0c-0.413-0.923-0.808-1.162-1.539-1.281l0,0
					C106.157,98.253,105.418,98.473,104.542,98.993L104.542,98.993z"/>
			</g>
			<g>
				<path fill="#231F20" d="M129.297,92.941c-0.664,1.922-1.393,4.072-2.188,6.457c-0.793,2.385-1.539,4.687-2.234,6.903
					c-0.694,2.221-1.325,4.191-1.888,5.913c-0.562,1.723-0.943,2.915-1.142,3.576c-0.267,0.861-0.516,1.672-0.746,2.435
					c-0.232,0.763-0.365,1.406-0.396,1.937c-0.034,0.532,0.049,0.961,0.247,1.292c0.199,0.333,0.597,0.496,1.193,0.496
					c1.256,0,2.714-0.795,4.37-2.383c1.653-1.591,3.146-3.543,4.471-5.862c0.661-1.126,1.243-1.572,1.738-1.341
					c0.497,0.232,0.479,0.944-0.049,2.136c-0.597,1.325-1.475,2.731-2.633,4.223c-1.16,1.49-2.467,2.865-3.926,4.123
					c-1.456,1.26-2.947,2.285-4.472,3.08c-1.521,0.795-2.914,1.191-4.172,1.191c-1.324,0-2.234-0.349-2.73-1.043
					c-0.497-0.695-0.746-1.573-0.746-2.633s0.185-2.219,0.548-3.479c0.364-1.259,0.745-2.447,1.142-3.576
					c0.597-1.589,1.241-3.427,1.938-5.514c0.694-2.086,1.392-4.204,2.086-6.356c0.694-2.151,1.375-4.237,2.037-6.262
					c0.662-2.019,1.259-3.791,1.788-5.312h-4.073c-0.333,0-0.53-0.132-0.597-0.398c-0.066-0.264-0.034-0.562,0.1-0.894
					c0.132-0.33,0.332-0.628,0.596-0.895c0.266-0.263,0.563-0.396,0.896-0.396h3.974l0.397-0.995
					c0.266-0.727,0.812-1.391,1.641-1.987c0.827-0.597,1.654-1.025,2.482-1.291c0.827-0.264,1.507-0.314,2.036-0.148
					c0.529,0.165,0.661,0.58,0.397,1.24l-1.191,3.181h5.463c0.331,0,0.529,0.133,0.598,0.396c0.064,0.267,0.033,0.564-0.1,0.895
					c-0.135,0.332-0.333,0.63-0.597,0.894c-0.267,0.268-0.563,0.398-0.895,0.398L129.297,92.941L129.297,92.941z"/>
				<path fill="#231F20" d="M113.666,126.84c-0.688-0.958-0.994-2.139-0.993-3.398l0,0c0-1.213,0.21-2.493,0.6-3.848l0,0
					c0.371-1.279,0.761-2.492,1.177-3.674l0,0c0.589-1.569,1.228-3.392,1.92-5.468l0,0c0.692-2.081,1.388-4.196,2.083-6.346l0,0
					c0.695-2.153,1.374-4.24,2.038-6.267l0,0c0.423-1.292,0.818-2.483,1.189-3.576l0,0h-2.218c-0.335,0-0.742-0.065-1.132-0.322l0,0
					c-0.397-0.251-0.666-0.702-0.747-1.069l0,0c-0.052-0.204-0.074-0.406-0.074-0.606l0,0c0-0.392,0.086-0.771,0.226-1.108l0,0
					c0.198-0.503,0.509-0.959,0.894-1.34l0,0c0.443-0.461,1.132-0.793,1.828-0.783l0,0h3.077l0.051-0.125
					c0.378-1.042,1.132-1.905,2.107-2.606l0,0c0.921-0.665,1.872-1.164,2.855-1.478l0,0c0.602-0.192,1.181-0.308,1.763-0.308l0,0
					c0.352,0,0.718,0.042,1.07,0.154l0,0c0.353,0.109,0.741,0.317,1.035,0.686l0,0c0.298,0.366,0.428,0.846,0.421,1.241l0,0
					c-0.002,0.406-0.101,0.739-0.214,1.042l0,0l-0.522,1.394h3.557c0.337,0,0.741,0.066,1.132,0.322l0,0
					c0.392,0.251,0.661,0.693,0.75,1.085l0,0c0.05,0.203,0.066,0.402,0.066,0.588l0,0c0,0.396-0.089,0.761-0.226,1.111l0,0
					c-0.2,0.502-0.506,0.957-0.888,1.339l0,0c-0.447,0.464-1.14,0.793-1.829,0.784l0,0h-4.422c-0.578,1.683-1.202,3.531-1.873,5.554
					l0,0c-0.793,2.375-1.535,4.671-2.228,6.879l0,0c-0.699,2.226-1.331,4.2-1.896,5.93l0,0c-0.561,1.716-0.94,2.906-1.136,3.557l0,0
					c-0.265,0.857-0.513,1.669-0.743,2.431l0,0c-0.215,0.693-0.32,1.252-0.343,1.636l0,0c-0.006,0.067-0.008,0.113-0.008,0.135l0,0
					c0,0.104,0.01,0.18,0.02,0.237l0,0c0.031,0.004,0.065,0.006,0.109,0.006l0,0c0.673,0.025,1.914-0.521,3.453-2.014l0,0
					c1.55-1.491,2.969-3.338,4.247-5.579l0,0c0.314-0.533,0.626-0.972,1.01-1.342l0,0c0.378-0.354,0.895-0.702,1.606-0.711l0,0
					c0.284-0.003,0.577,0.067,0.824,0.182l0,0c0.767,0.32,1.173,1.262,1.121,1.873l0,0c-0.013,0.693-0.219,1.289-0.525,2.005l0,0
					c-0.651,1.45-1.587,2.938-2.795,4.494l0,0c-1.212,1.559-2.582,2.999-4.104,4.31l0,0c-1.523,1.317-3.1,2.404-4.725,3.254l0,0
					c-1.652,0.86-3.242,1.34-4.783,1.341l0,0c-0.017,0-0.031,0-0.048,0l0,0C115.923,128.438,114.512,128.015,113.666,126.84
					L113.666,126.84z M125.395,91.617l-0.611,1.758c-0.526,1.515-1.12,3.278-1.78,5.293l0,0c-0.662,2.02-1.34,4.103-2.035,6.254l0,0
					c-0.695,2.154-1.393,4.278-2.09,6.369l0,0c-0.698,2.099-1.349,3.951-1.943,5.534l0,0c-0.389,1.102-0.761,2.271-1.12,3.502l0,0
					c-0.335,1.167-0.494,2.208-0.494,3.113l0,0c0.004,0.856,0.192,1.431,0.498,1.86l0,0c0.14,0.205,0.528,0.481,1.656,0.491l0,0
					c0.976,0.002,2.167-0.315,3.561-1.043l0,0c0.962-0.501,1.913-1.104,2.858-1.812l0,0c-0.573,0.21-1.151,0.326-1.749,0.332l0,0
					c-0.79,0.02-1.792-0.245-2.324-1.134l0,0c-0.329-0.542-0.45-1.154-0.448-1.754l0,0c0-0.122,0.007-0.224,0.011-0.304l0,0
					c0.043-0.681,0.2-1.413,0.454-2.239l0,0c0.229-0.763,0.479-1.575,0.743-2.429l0,0c0.206-0.687,0.587-1.88,1.15-3.608l0,0
					c0.561-1.715,1.189-3.682,1.883-5.897l0,0c0.696-2.227,1.446-4.534,2.245-6.926l0,0c0.793-2.389,1.523-4.543,2.188-6.472l0,0
					l0.287-0.829h-0.051l1.683-4.485c-0.173,0.027-0.378,0.078-0.612,0.15l0,0c-0.677,0.217-1.381,0.577-2.115,1.106l0,0
					c-0.679,0.491-1.017,0.952-1.184,1.404l0,0l-0.704,1.763L125.395,91.617L125.395,91.617z M129.296,94.264V92.94V94.264
					L129.296,94.264z"/>
			</g>
			<g>
				<path fill="#231F20" d="M153.241,113.704c0.794-1.126,1.421-1.556,1.887-1.293c0.463,0.268,0.396,0.962-0.199,2.088
					c-0.729,1.458-1.673,2.93-2.831,4.419c-1.159,1.491-2.482,2.833-3.975,4.024c-1.489,1.193-3.113,2.154-4.867,2.883
					c-1.756,0.729-3.625,1.092-5.613,1.092c-1.458,0-2.831-0.299-4.123-0.895c-1.29-0.596-2.385-1.474-3.278-2.632
					c-0.895-1.158-1.523-2.582-1.889-4.271c-0.361-1.69-0.312-3.627,0.15-5.812c0.396-2.054,1.058-4.093,1.985-6.111
					c0.928-2.021,2.053-3.873,3.379-5.563c1.323-1.688,2.78-3.144,4.371-4.371c1.588-1.225,3.243-2.068,4.967-2.532
					c2.584-0.663,4.637-0.481,6.159,0.545c1.523,1.027,2.152,2.583,1.888,4.67c-0.265,2.086-1.639,4.57-4.121,7.451
					c-2.484,2.882-6.443,5.879-11.872,8.989c0.728,1.924,1.888,3.298,3.476,4.124c1.592,0.828,3.312,1.077,5.167,0.744
					c2.188-0.462,3.957-1.374,5.315-2.73C150.573,117.165,151.914,115.559,153.241,113.704z M134.662,109.333
					c-0.333,1.922-0.333,3.609,0,5.066c3.905-2.186,6.654-4.386,8.245-6.606c1.591-2.217,2.449-4.154,2.584-5.812
					c0.132-1.656-0.267-2.881-1.191-3.676c-0.93-0.795-1.956-0.895-3.081-0.3c-1.854,0.93-3.312,2.469-4.371,4.62
					C135.787,104.78,135.059,107.017,134.662,109.333z"/>
				<path fill="#231F20" d="M132.965,127.224c-1.484-0.683-2.759-1.71-3.772-3.025l0,0c-1.032-1.336-1.736-2.957-2.135-4.801l0,0
					c-0.181-0.843-0.271-1.73-0.271-2.654l0,0c0-1.176,0.143-2.412,0.414-3.688l0,0c0.419-2.162,1.113-4.302,2.083-6.412l0,0
					c0.969-2.108,2.147-4.056,3.54-5.827l0,0c1.389-1.771,2.923-3.304,4.604-4.605l0,0c1.708-1.312,3.523-2.248,5.445-2.764l0,0
					c1.102-0.281,2.138-0.433,3.123-0.433l0,0c1.52-0.003,2.934,0.368,4.105,1.164l0,0c1.641,1.07,2.561,2.886,2.526,4.872l0,0
					c0,0.35-0.022,0.696-0.067,1.061l0,0c-0.334,2.523-1.87,5.163-4.431,8.146l0,0c-2.477,2.865-6.196,5.725-11.178,8.669l0,0
					c0.604,1.116,1.389,1.882,2.391,2.407l0,0c0.956,0.496,1.929,0.735,2.995,0.738l0,0c0.424,0,0.867-0.039,1.284-0.113l0,0
					c1.985-0.423,3.495-1.218,4.654-2.372l0,0c1.292-1.297,2.59-2.842,3.878-4.645l0,0l0,0c0.002-0.001,0.002-0.002,0.004-0.005l0,0
					c0-0.001,0-0.001,0.001-0.003l0,0l0,0c0.756-0.969,1.284-1.797,2.68-1.921l0,0c0.319-0.005,0.667,0.088,0.942,0.246l0,0
					c0.651,0.338,1.008,1.177,0.968,1.746l0,0c-0.018,0.765-0.282,1.375-0.643,2.083l0,0c-0.774,1.548-1.765,3.092-2.97,4.643l0,0
					c-1.222,1.57-2.621,2.988-4.19,4.244l0,0c-1.586,1.268-3.319,2.296-5.188,3.068l0,0c-1.92,0.801-3.972,1.193-6.121,1.193l0,0
					C136.003,128.24,134.425,127.899,132.965,127.224L132.965,127.224z M134.909,102.449c-1.264,1.605-2.333,3.368-3.22,5.299l0,0
					c-0.887,1.931-1.515,3.865-1.896,5.832l0,0c-0.24,1.147-0.359,2.202-0.359,3.163l0,0c0,0.757,0.072,1.452,0.212,2.097l0,0
					c0.33,1.53,0.887,2.762,1.643,3.741l0,0c0.774,1.003,1.686,1.729,2.785,2.239l0,0c1.12,0.515,2.29,0.771,3.566,0.771l0,0
					c1.829-0.002,3.517-0.329,5.107-0.992l0,0c1.639-0.68,3.151-1.574,4.548-2.689l0,0c0.523-0.421,1.027-0.858,1.508-1.316l0,0
					c-1.323,0.937-2.893,1.59-4.674,1.963l0,0c-0.601,0.106-1.196,0.162-1.789,0.162l0,0c-1.477,0.004-2.905-0.352-4.218-1.034l0,0
					c-1.897-0.979-3.295-2.67-4.104-4.83l0,0l-0.184-0.48l-0.071,0.04l-0.134-0.586l-0.012-0.03l0.005-0.001l-0.252-1.102
					c-0.19-0.838-0.282-1.724-0.282-2.654l0,0c0-0.931,0.089-1.907,0.27-2.931l0,0h-0.002c0.418-2.441,1.188-4.806,2.305-7.068l0,0
					c0.23-0.473,0.481-0.921,0.755-1.346l0,0C135.894,101.245,135.393,101.829,134.909,102.449L134.909,102.449z M153.685,114.023
					c0-0.002,0.002-0.003,0.002-0.005l0,0l-0.445-0.314L153.685,114.023L153.685,114.023z M135.963,109.56
					c-0.154,0.895-0.229,1.721-0.229,2.479l0,0c0,0.066,0,0.131,0.002,0.192l0,0c2.885-1.784,4.911-3.551,6.096-5.212l0,0
					c1.516-2.104,2.244-3.866,2.34-5.145l0,0c0.013-0.167,0.019-0.331,0.019-0.497l0,0c-0.015-1.107-0.293-1.661-0.752-2.068l0,0
					c-0.355-0.296-0.582-0.36-0.829-0.366l0,0c-0.195,0-0.437,0.051-0.8,0.245l0,0c-1.571,0.792-2.812,2.075-3.774,4.021l0,0
					c-1.006,2.042-1.693,4.152-2.068,6.345l0,0l-1.305-0.224L135.963,109.56L135.963,109.56z M145.16,97.3
					c1.156,0.98,1.69,2.478,1.676,4.08l0,0c0,0.227-0.008,0.459-0.029,0.706l0,0c-0.171,2.033-1.16,4.146-2.824,6.478l0,0
					c-0.104,0.145-0.211,0.287-0.322,0.43l0,0c0.958-0.84,1.778-1.66,2.469-2.462l0,0c2.406-2.774,3.617-5.106,3.809-6.743l0,0
					c0.032-0.27,0.051-0.514,0.051-0.736l0,0c-0.031-1.299-0.407-2-1.36-2.678l0,0c-0.686-0.46-1.515-0.708-2.628-0.711l0,0
					c-0.714,0-1.538,0.109-2.45,0.344l0,0c-0.31,0.084-0.616,0.183-0.924,0.294l0,0c0.003,0,0.007,0,0.01,0l0,0
					C143.567,96.299,144.458,96.69,145.16,97.3L145.16,97.3z"/>
			</g>
		</g>
		<text transform="matrix(1 0 0 1 66.7932 68.3523)" fill="#FFFFFF" font-family="'Colaborate-Thin'" font-size="9.773">PHOTOS BY</text>
		
			<text transform="matrix(1 0 0 1 66.7932 68.3523)" fill="none" stroke="#231F20" stroke-width="0.8175" font-family="'Colaborate-Thin'" font-size="9.773">PHOTOS BY</text>
		<g>
			<g>
				<path fill="#231F20" d="M96.241,190.941l-2.139,1.999l-2.049-2.09l-2.225,1.904l-1.955-2.177l-2.305,1.807l-1.863-2.267
					l-2.385,1.701l-1.758-2.344l-2.458,1.593l-1.65-2.416l-2.53,1.486l-1.542-2.493l-2.591,1.372l-1.431-2.561l-2.648,1.254
					l-1.315-2.62l-2.701,1.135l-1.199-2.678l-2.753,1.01l-1.074-2.723l-2.79,0.889l-0.956-2.771l-2.826,0.763l-0.832-2.808
					l-2.86,0.639l-0.705-2.843l-2.889,0.511l-0.577-2.873l-2.901,0.382l-0.452-2.892l-2.92,0.256l-0.323-2.912l-2.924,0.125
					l-0.196-2.92l-2.93-0.005l-0.066-2.927l-2.927-0.133l0.063-2.924l-2.921-0.26l0.194-2.924l-2.904-0.39l0.322-2.91l-2.882-0.518
					l0.447-2.89l-2.86-0.643l0.577-2.871l-2.827-0.769l0.702-2.843l-2.792-0.891l0.828-2.814l-2.748-1.015l0.952-2.772l-2.702-1.136
					l1.074-2.727l-2.65-1.257l1.195-2.677l-2.586-1.371l1.312-2.622l-2.529-1.489l1.429-2.56l-2.458-1.599l1.542-2.492l-2.377-1.703
					l1.646-2.42l-2.308-1.811l1.757-2.349l-2.219-1.909l1.852-2.263l-2.137-2.003l1.955-2.184l-2.044-2.093l2.043-2.094
					l-1.956-2.183l2.139-2.006l-1.856-2.266l2.223-1.908L0.337,83.42l2.306-1.81l-1.646-2.42l2.38-1.706l-1.542-2.496l2.457-1.597
					l-1.429-2.563l2.528-1.486l-1.31-2.62l2.586-1.372l-1.194-2.678l2.648-1.255L7.045,58.69l2.704-1.136L8.798,54.78l2.747-1.014
					l-0.829-2.81l2.795-0.893l-0.702-2.845l2.829-0.768l-0.575-2.876l2.857-0.64l-0.447-2.894l2.883-0.515l-0.318-2.911l2.901-0.388
					l-0.191-2.921l2.917-0.261l-0.061-2.93l2.924-0.131l0.065-2.925l2.93-0.003l0.194-2.925l2.929,0.128l0.326-2.913l2.917,0.257
					l0.453-2.895l2.903,0.385l0.579-2.869l2.883,0.51l0.705-2.843l2.858,0.638l0.83-2.813l2.83,0.766l0.953-2.767l2.792,0.889
					l1.077-2.728l2.75,1.014l1.196-2.675l2.705,1.136l1.316-2.619l2.646,1.252l1.431-2.561l2.591,1.373l1.542-2.491l2.526,1.485
					l1.651-2.421l2.459,1.596l1.758-2.345l2.385,1.704l1.86-2.265l2.306,1.807l1.958-2.179l2.223,1.904l2.047-2.09l2.14,1.999
					l2.138-2.001l2.049,2.091l2.222-1.903l1.958,2.178l2.308-1.808l1.862,2.267l2.383-1.702l1.758,2.342l2.456-1.595l1.654,2.422
					l2.528-1.486l1.542,2.492l2.594-1.371l1.431,2.561l2.646-1.252l1.315,2.618l2.701-1.135l1.198,2.676l2.749-1.014l1.078,2.728
					l2.793-0.89l0.954,2.768l2.825-0.765l0.833,2.812l2.863-0.641l0.704,2.845l2.886-0.512l0.578,2.872l2.903-0.384l0.451,2.896
					l2.919-0.256l0.322,2.91l2.924-0.128l0.196,2.923l2.931,0.001l0.065,2.931l2.923,0.131l-0.061,2.93l2.921,0.261l-0.192,2.92
					l2.898,0.386l-0.317,2.912l2.89,0.514l-0.45,2.901l2.853,0.644l-0.573,2.866l2.828,0.768l-0.703,2.846l2.792,0.892l-0.828,2.811
					l2.747,1.014l-0.95,2.773l2.704,1.137l-1.075,2.728l2.646,1.253l-1.193,2.677l2.595,1.375l-1.314,2.622l2.523,1.486
					l-1.427,2.559l2.456,1.597l-1.541,2.493l2.38,1.702l-1.649,2.426l2.309,1.813l-1.754,2.342l2.218,1.905l-1.854,2.267
					l2.138,2.005l-1.956,2.185l2.044,2.094l-2.041,2.091l1.951,2.179l-2.137,2.008l1.856,2.269l-2.22,1.907l1.754,2.343
					l-2.308,1.812l1.648,2.424l-2.379,1.702l1.542,2.491l-2.461,1.601l1.428,2.56l-2.527,1.488l1.312,2.621l-2.588,1.373
					l1.194,2.675l-2.65,1.258l1.074,2.733l-2.698,1.133l0.948,2.766l-2.748,1.019l0.828,2.814l-2.789,0.891l0.701,2.841
					l-2.829,0.771l0.574,2.873l-2.857,0.643l0.447,2.896l-2.884,0.515l0.319,2.913l-2.901,0.386l0.193,2.926l-2.921,0.257
					l0.062,2.928l-2.925,0.131l-0.064,2.931l-2.935,0.001l-0.195,2.924l-2.923-0.128l-0.324,2.913l-2.919-0.258l-0.45,2.889
					l-2.904-0.382l-0.577,2.871l-2.886-0.511l-0.705,2.845l-2.858-0.64l-0.829,2.81l-2.832-0.765l-0.955,2.771l-2.792-0.891
					l-1.077,2.725l-2.746-1.011l-1.195,2.673l-2.704-1.134l-1.316,2.621l-2.645-1.252l-1.428,2.559l-2.596-1.373l-1.544,2.494
					l-2.529-1.486l-1.651,2.416l-2.456-1.593l-1.758,2.344l-2.383-1.7l-1.864,2.27l-2.308-1.811l-1.956,2.175l-2.221-1.901
					l-2.05,2.089L96.241,190.941L96.241,190.941z M94.358,181.225l1.885-1.762l1.883,1.76l1.803-1.839l1.959,1.676l1.725-1.919
					l2.025,1.588l1.631-1.985l2.097,1.495l1.545-2.059l2.159,1.399l1.452-2.125l2.217,1.302l1.354-2.188l2.273,1.203l1.254-2.249
					l2.33,1.104l1.154-2.298l2.371,0.995l1.05-2.349l2.416,0.89l0.947-2.397l2.453,0.782l0.838-2.43l2.483,0.67l0.729-2.469
					l2.512,0.561l0.619-2.497l2.535,0.448l0.508-2.521l2.553,0.335l0.398-2.55l2.565,0.227l0.284-2.562l2.576,0.113l0.172-2.571
					l2.571-0.001l0.058-2.574l2.577-0.115l-0.055-2.578l2.564-0.227l-0.17-2.569l2.559-0.34l-0.281-2.56l2.534-0.453l-0.394-2.546
					l2.513-0.563l-0.504-2.521l2.483-0.676l-0.617-2.502l2.453-0.783l-0.726-2.466l2.415-0.895l-0.838-2.441l2.373-0.996
					l-0.94-2.391l2.324-1.103l-1.049-2.35l2.273-1.206l-1.152-2.303l2.219-1.307l-1.254-2.251l2.154-1.399l-1.354-2.188l2.098-1.5
					l-1.446-2.129l2.019-1.585l-1.544-2.063l1.959-1.683l-1.629-1.99l1.875-1.761l-1.721-1.923l1.802-1.845l-1.802-1.847l1.719-1.92
					l-1.875-1.76l1.63-1.993l-1.958-1.682l1.544-2.061l-2.021-1.587l1.447-2.129l-2.095-1.5l1.352-2.187l-2.156-1.401l1.255-2.249
					l-2.224-1.309l1.154-2.3l-2.27-1.203l1.049-2.351l-2.328-1.104l0.945-2.396l-2.37-0.997l0.835-2.434l-2.416-0.892l0.728-2.469
					l-2.455-0.785l0.617-2.498l-2.483-0.674l0.507-2.529l-2.516-0.567l0.395-2.538l-2.529-0.451l0.28-2.564l-2.558-0.342l0.17-2.57
					l-2.563-0.229l0.055-2.574l-2.578-0.116l-0.057-2.574l-2.574-0.001l-0.171-2.569l-2.577,0.113l-0.283-2.562l-2.566,0.225
					l-0.396-2.545l-2.554,0.338l-0.508-2.526l-2.537,0.449l-0.617-2.498l-2.513,0.561l-0.73-2.47l-2.485,0.673l-0.838-2.435
					l-2.453,0.781l-0.945-2.394l-2.415,0.89l-1.053-2.35l-2.373,0.996l-1.154-2.299l-2.328,1.102l-1.254-2.249l-2.277,1.204
					l-1.354-2.189l-2.22,1.303l-1.45-2.124l-2.157,1.4l-1.545-2.06l-2.097,1.496l-1.633-1.989l-2.028,1.588l-1.721-1.917
					l-1.958,1.678l-1.804-1.841l-1.882,1.76l-1.886-1.762l-1.806,1.843l-1.957-1.677l-1.72,1.917l-2.028-1.589l-1.637,1.992
					l-2.094-1.497l-1.543,2.059l-2.159-1.4l-1.45,2.126l-2.218-1.304l-1.355,2.189l-2.274-1.205l-1.255,2.247l-2.329-1.103
					l-1.155,2.298l-2.367-0.994l-1.05,2.35l-2.417-0.891l-0.944,2.393l-2.452-0.781l-0.838,2.437l-2.485-0.673l-0.729,2.468
					l-2.513-0.562l-0.619,2.496l-2.538-0.448l-0.512,2.528l-2.552-0.338l-0.397,2.545l-2.566-0.226l-0.286,2.562l-2.571-0.112
					l-0.17,2.564l-2.576,0.003l-0.058,2.578l-2.577,0.115l0.054,2.575l-2.562,0.228l0.168,2.572l-2.554,0.341l0.28,2.558
					l-2.534,0.453l0.394,2.547l-2.516,0.564l0.504,2.525l-2.482,0.674l0.616,2.498l-2.45,0.784l0.728,2.471l-2.419,0.893
					l0.836,2.438l-2.369,0.996l0.944,2.392l-2.33,1.104l1.048,2.348l-2.275,1.208l1.154,2.308l-2.217,1.303l1.253,2.248
					l-2.157,1.401l1.35,2.184l-2.094,1.501l1.449,2.131l-2.022,1.587l1.544,2.063l-1.955,1.679l1.633,1.994l-1.877,1.761
					l1.719,1.917l-1.804,1.849l1.802,1.845l-1.718,1.921l1.878,1.761l-1.633,1.996l1.954,1.679l-1.541,2.061l2.021,1.586
					l-1.449,2.132l2.094,1.499l-1.351,2.187l2.157,1.401l-1.254,2.25l2.218,1.305l-1.153,2.303l2.274,1.204l-1.048,2.351
					l2.325,1.103l-0.942,2.395l2.372,0.996l-0.836,2.438l2.413,0.892l-0.726,2.466l2.452,0.782l-0.617,2.504l2.487,0.675
					l-0.506,2.525l2.511,0.563l-0.394,2.547l2.538,0.456l-0.282,2.556l2.555,0.342l-0.17,2.566l2.564,0.228l-0.056,2.577
					l2.572,0.116l0.059,2.576l2.572,0.003l0.174,2.567l2.576-0.111l0.284,2.561l2.563-0.225l0.398,2.545l2.558-0.338l0.507,2.524
					l2.534-0.449l0.62,2.497l2.509-0.561l0.732,2.472l2.483-0.672l0.84,2.435l2.453-0.781l0.946,2.396l2.417-0.888l1.049,2.345
					l2.373-0.997l1.155,2.3l2.327-1.102l1.257,2.248l2.275-1.204l1.355,2.19l2.216-1.302l1.453,2.125l2.158-1.399l1.545,2.059
					l2.097-1.495l1.633,1.987l2.028-1.59l1.723,1.918l1.956-1.675L94.358,181.225L94.358,181.225z M187.126,96.222l0.134-0.131
					L187.126,96.222L187.126,96.222z">



				<animateTransform attributeName="transform"
				 attributeType="XML"
				 type="rotate"
				 from="0 98 98"
				 to="360 98 98"
				 dur="10s"
				 repeatCount="indefinite" />

				 </path>


			</g>
		</g>
		<g>
			<path fill="#231F20" d="M9.324,96.724C9.325,48.443,48.462,9.306,96.739,9.304l0,0c48.282,0.001,87.418,39.139,87.421,87.419l0,0
				c-0.004,48.278-39.14,87.415-87.421,87.416l0,0C48.462,184.139,9.325,145.003,9.324,96.724L9.324,96.724z M38.484,38.465
				c-14.91,14.919-24.126,35.497-24.129,58.26l0,0c0.002,22.757,9.219,43.338,24.129,58.255l0,0
				c14.918,14.914,35.5,24.128,58.255,24.13l0,0c22.76-0.002,43.342-9.216,58.258-24.13l0,0
				c14.912-14.917,24.13-35.498,24.13-58.255l0,0c0-22.762-9.218-43.341-24.13-58.26l0,0c-14.916-14.91-35.498-24.128-58.258-24.13
				l0,0C73.984,14.337,53.402,23.554,38.484,38.465L38.484,38.465z"/>
		</g>
		<g>
			<g>
				<path fill="none" d="M167.718,94.897c0,37.318-30.253,67.57-67.572,67.57"/>
				<path fill="#231F20" d="M163.846,94.897c-0.345,34.022-30.872,59.494-63.7,59.826c-5.442,0.056-5.396,15.544,0,15.489
					c19.281-0.194,37.171-8.043,50.645-21.773c13.884-14.15,20.603-33.979,20.801-53.542c0.021-2.193-0.658-7.745-3.872-7.745
					C164.474,87.152,163.869,92.703,163.846,94.897L163.846,94.897z"/>
			</g>
		</g>
		
			<ellipse transform="matrix(-0.6081 -0.7939 0.7939 -0.6081 67.4826 119.4892)" fill="#231F20" cx="63.236" cy="43.087" rx="11.321" ry="13.685"/>
		<circle fill="#231F20" cx="47.287" cy="55.783" r="3.913"/>
		<g>
			<polygon fill="#FFFFFF" stroke="#231F20" stroke-width="0.9381" points="56.092,66.265 56.092,65.426 63.639,65.426 
				63.639,66.265 			"/>
		</g>
		<g>
			<polygon fill="#FFFFFF" stroke="#231F20" stroke-width="0.9381" points="131.771,66.265 131.771,65.426 139.317,65.426 
				139.317,66.265 			"/>
		</g>
		<g>
			<path fill="#231F20" stroke="#231F20" stroke-width="0.9265" d="M16.585,97.223c0.002-43.995,35.664-79.657,79.659-79.66l0,0
				c43.993,0.002,79.654,35.666,79.655,79.66l0,0c-0.001,43.992-35.662,79.656-79.655,79.656l0,0
				C52.248,176.88,16.586,141.216,16.585,97.223L16.585,97.223z M41.602,42.581c-13.987,13.987-22.633,33.3-22.633,54.642l0,0
				c0,21.342,8.646,40.652,22.633,54.642l0,0c13.987,13.982,33.299,22.631,54.642,22.631l0,0c21.341,0,40.65-8.648,54.639-22.631
				l0,0c13.985-13.989,22.634-33.3,22.634-54.642l0,0c0-21.342-8.648-40.655-22.634-54.642l0,0
				c-13.988-13.987-33.298-22.632-54.639-22.632l0,0C74.901,19.949,55.59,28.594,41.602,42.581L41.602,42.581z"/>
		</g>
	</g>
</g>
</svg>
