<?xml version="1.0" encoding="utf-8"?>
<!-- Generator: Adobe Illustrator 13.0.0, SVG Export Plug-In . SVG Version: 6.00 Build 14948)  -->
<!DOCTYPE svg PUBLIC "-//W3C//DTD SVG 1.1//EN" "http://www.w3.org/Graphics/SVG/1.1/DTD/svg11.dtd">
<svg version="1.1" id="Layer_1" xmlns="http://www.w3.org/2000/svg" xmlns:xlink="http://www.w3.org/1999/xlink" x="0px" y="0px"
	 width="81.1px" height="81.083px" viewBox="-16.672 -25.83 81.1 81.083" enable-background="new -16.672 -25.83 81.1 81.083"
	 xml:space="preserve">
<g>
	<g>
		<path stroke="#000000" stroke-width="1.1092" d="M3.71,26.744c0.777,0,1.505-0.417,2.186-1.25c0.68-0.832,1.339-1.901,1.978-3.207
			c0.638-1.304,1.263-2.754,1.874-4.351s1.235-3.159,1.875-4.685c-0.5,0.638-1.048,1.27-1.645,1.895
			c-0.598,0.625-1.25,1.187-1.957,1.686c-0.708,0.5-1.465,0.91-2.27,1.229C4.945,18.38,4.112,18.54,3.252,18.54
			c-1.083,0-1.93-0.277-2.54-0.833c-0.611-0.555-0.972-1.256-1.083-2.104c-0.111-0.846,0.035-1.763,0.438-2.748
			c0.402-0.985,1.089-1.901,2.061-2.748S4.342,8.56,5.855,8.004c1.512-0.555,3.338-0.833,5.476-0.833
			c0.722,0,1.367-0.007,1.937-0.021c0.568-0.014,1.089-0.035,1.562-0.062c0.388-0.444,0.771-0.806,1.146-1.083
			c0.375-0.277,0.77-0.444,1.186-0.5c0.639-0.083,1.131,0.021,1.479,0.312c0.347,0.292,0.451,0.632,0.312,1.021
			c-0.14,0.333-0.41,0.583-0.812,0.749c-0.402,0.167-1.062,0.292-1.978,0.375c-0.389,0.777-0.819,1.895-1.291,3.352
			c-0.472,1.459-1.027,3.02-1.666,4.686c0.638-0.083,1.234-0.403,1.791-0.958c0.555-0.556,1.103-1.222,1.645-1.999
			c0.541-0.776,1.117-1.609,1.728-2.498c0.61-0.889,1.291-1.708,2.04-2.457c0.75-0.75,1.596-1.374,2.541-1.874
			c0.943-0.499,2.026-0.749,3.248-0.749c0.193,0,0.339,0.049,0.437,0.146c0.098,0.098,0.146,0.208,0.146,0.333
			s-0.049,0.236-0.146,0.334c-0.098,0.097-0.243,0.145-0.437,0.145c-0.25,0-0.59,0.209-1.021,0.625
			c-0.43,0.416-0.944,0.944-1.54,1.582c-0.598,0.64-1.25,1.347-1.958,2.124c-0.708,0.778-1.451,1.54-2.228,2.29
			c-0.777,0.749-1.576,1.43-2.394,2.041c-0.819,0.61-1.618,1.068-2.395,1.373c0.583,0.334,1.027,0.778,1.333,1.333
			c0.305,0.556,0.527,1.16,0.667,1.812c0.138,0.653,0.222,1.319,0.25,1.998c0.027,0.682,0.055,1.292,0.083,1.833
			c0.028,0.542,0.098,0.985,0.209,1.332c0.11,0.349,0.318,0.521,0.624,0.521c0.527,0,1.131-0.333,1.812-0.999
			c0.68-0.666,1.297-1.484,1.853-2.456c0.305-0.472,0.562-0.659,0.771-0.562c0.208,0.098,0.201,0.396-0.021,0.896
			c-0.25,0.555-0.625,1.145-1.124,1.77c-0.5,0.625-1.048,1.201-1.645,1.728c-0.598,0.528-1.222,0.959-1.875,1.291
			c-0.652,0.333-1.242,0.5-1.77,0.5c-0.694,0-1.152-0.25-1.374-0.749c-0.223-0.501-0.333-1.125-0.333-1.874
			c0-0.75,0.063-1.562,0.188-2.436c0.125-0.875,0.194-1.708,0.208-2.499c0.013-0.792-0.084-1.471-0.292-2.04
			c-0.208-0.569-0.631-0.909-1.27-1.021h-0.083c-0.5,1.334-1.055,2.639-1.666,3.915c-0.61,1.276-1.291,2.415-2.04,3.415
			c-0.75,0.998-1.568,1.811-2.457,2.436c-0.889,0.624-1.874,0.937-2.957,0.937c-1.222,0-2.138-0.284-2.749-0.853
			c-0.61-0.569-0.972-1.209-1.082-1.917c-0.111-0.707,0.014-1.366,0.375-1.977c0.36-0.61,0.901-0.958,1.624-1.042
			c0.527-0.055,0.916,0.048,1.166,0.312c0.25,0.264,0.41,0.57,0.479,0.916c0.069,0.348,0.048,0.674-0.062,0.978
			c-0.111,0.308-0.264,0.459-0.458,0.459c-0.389,0-0.659,0.125-0.812,0.376c-0.153,0.248-0.202,0.521-0.146,0.811
			c0.056,0.292,0.215,0.557,0.479,0.792C2.829,26.625,3.21,26.744,3.71,26.744z M14.246,9.086c-0.195,0.417-0.431,0.848-0.708,1.291
			c-0.223,0.39-0.493,0.827-0.812,1.312c-0.32,0.486-0.688,1.007-1.104,1.562c0.388-0.972,0.791-1.902,1.208-2.791
			c0.416-0.888,0.846-1.679,1.291-2.373h-2.915c-1.277,0-2.442,0.222-3.498,0.666C6.652,9.198,5.744,9.747,4.98,10.398
			c-0.764,0.653-1.374,1.361-1.832,2.124c-0.458,0.764-0.722,1.472-0.792,2.123c-0.069,0.653,0.055,1.202,0.375,1.646
			c0.319,0.444,0.881,0.667,1.687,0.667c0.583,0,1.166-0.118,1.749-0.354c0.583-0.235,1.151-0.548,1.707-0.938
			c0.555-0.388,1.083-0.833,1.583-1.332c0.5-0.5,0.971-1.013,1.416-1.541c1.027-1.222,1.999-2.608,2.915-4.164L14.246,9.086z"/>
		<path stroke="#000000" stroke-width="1.1092" d="M28.071,13.75c0.749,0,1.304,0.333,1.665,0.999l0.042-0.042
			c0.139-0.305,0.367-0.526,0.688-0.665c0.318-0.139,0.631-0.209,0.937-0.209s0.555,0.077,0.749,0.229
			c0.194,0.153,0.235,0.369,0.125,0.646c-0.139,0.306-0.34,0.82-0.604,1.542c-0.265,0.722-0.541,1.498-0.833,2.332
			c-0.292,0.831-0.562,1.639-0.812,2.414c-0.25,0.778-0.431,1.348-0.542,1.708c-0.111,0.361-0.214,0.701-0.312,1.021
			s-0.16,0.59-0.188,0.812c-0.028,0.223,0.007,0.402,0.104,0.542c0.097,0.139,0.271,0.207,0.521,0.207
			c0.527,0,1.132-0.333,1.812-0.999c0.679-0.666,1.297-1.484,1.853-2.456c0.306-0.472,0.562-0.659,0.771-0.562
			c0.208,0.098,0.2,0.396-0.021,0.896c-0.25,0.555-0.624,1.145-1.124,1.77c-0.499,0.625-1.048,1.201-1.645,1.728
			c-0.598,0.528-1.222,0.959-1.875,1.291c-0.651,0.333-1.242,0.5-1.77,0.5c-0.693,0-1.124-0.229-1.29-0.688
			c-0.167-0.457-0.194-1.005-0.083-1.645c-0.723,0.75-1.444,1.34-2.166,1.77c-0.722,0.431-1.402,0.646-2.041,0.646
			c-0.583,0-1.041-0.188-1.374-0.562c-0.333-0.375-0.555-0.875-0.667-1.5c-0.111-0.624-0.09-1.353,0.062-2.186
			c0.153-0.833,0.437-1.722,0.854-2.666c0.416-0.942,0.916-1.831,1.499-2.664c0.583-0.833,1.199-1.562,1.854-2.186
			c0.65-0.625,1.304-1.118,1.957-1.479C26.869,13.931,27.488,13.75,28.071,13.75z M26.905,22.953
			c0.472-1.332,0.916-2.636,1.332-3.914c0.417-1.275,0.777-2.332,1.083-3.164c-0.223-0.667-0.625-1.027-1.208-1.083
			c-0.389,0-0.805,0.132-1.249,0.396s-0.888,0.625-1.333,1.083c-0.444,0.459-0.861,0.999-1.249,1.624
			c-0.39,0.625-0.723,1.298-1,2.02c-0.583,1.444-0.812,2.68-0.687,3.706c0.125,1.027,0.562,1.555,1.312,1.582
			c0.416,0.028,0.867-0.117,1.353-0.438c0.486-0.317,0.965-0.756,1.437-1.311L26.905,22.953z"/>
		<path stroke="#000000" stroke-width="1.1092" d="M37.524,13.126c-0.279,0.805-0.584,1.706-0.917,2.706
			c-0.333,0.999-0.646,1.965-0.937,2.894c-0.292,0.932-0.557,1.757-0.792,2.479c-0.236,0.722-0.396,1.222-0.479,1.499
			c-0.111,0.361-0.216,0.701-0.312,1.021c-0.098,0.319-0.152,0.59-0.167,0.812c-0.013,0.223,0.021,0.402,0.104,0.542
			c0.083,0.139,0.25,0.207,0.501,0.207c0.526,0,1.137-0.333,1.831-0.999c0.693-0.666,1.318-1.484,1.874-2.456
			c0.277-0.472,0.521-0.659,0.729-0.562c0.208,0.098,0.201,0.396-0.021,0.896c-0.249,0.555-0.618,1.145-1.103,1.77
			c-0.486,0.625-1.034,1.201-1.645,1.728c-0.611,0.528-1.236,0.959-1.874,1.291c-0.639,0.333-1.223,0.5-1.749,0.5
			c-0.555,0-0.938-0.146-1.145-0.438c-0.209-0.292-0.313-0.658-0.313-1.104c0-0.442,0.077-0.928,0.229-1.456
			c0.154-0.527,0.313-1.027,0.479-1.5c0.25-0.666,0.521-1.436,0.812-2.31c0.291-0.875,0.583-1.764,0.874-2.666
			c0.292-0.901,0.576-1.776,0.854-2.624c0.276-0.847,0.527-1.589,0.75-2.227H33.4c-0.14,0-0.222-0.057-0.249-0.167
			c-0.027-0.111-0.015-0.235,0.041-0.375c0.056-0.139,0.139-0.264,0.25-0.374c0.11-0.111,0.236-0.167,0.374-0.167h1.666l0.167-0.416
			c0.111-0.306,0.34-0.583,0.688-0.834c0.347-0.249,0.693-0.43,1.041-0.54c0.347-0.111,0.631-0.132,0.854-0.062
			c0.222,0.069,0.277,0.243,0.166,0.52l-0.499,1.333h2.29c0.139,0,0.222,0.056,0.25,0.167c0.027,0.11,0.014,0.235-0.041,0.374
			c-0.057,0.14-0.14,0.264-0.251,0.375c-0.111,0.11-0.235,0.167-0.374,0.167H37.524z"/>
		<path stroke="#000000" stroke-width="1.1092" d="M47.558,21.83c0.333-0.472,0.597-0.652,0.791-0.542
			c0.194,0.111,0.167,0.403-0.082,0.875c-0.307,0.61-0.702,1.229-1.188,1.853c-0.485,0.625-1.041,1.187-1.666,1.687
			c-0.624,0.499-1.305,0.902-2.04,1.208s-1.521,0.458-2.353,0.458c-0.612,0-1.188-0.125-1.729-0.376
			c-0.541-0.248-0.999-0.617-1.374-1.103c-0.375-0.484-0.639-1.083-0.791-1.79c-0.152-0.708-0.131-1.521,0.062-2.437
			c0.166-0.86,0.443-1.714,0.832-2.562c0.389-0.846,0.86-1.623,1.416-2.332c0.555-0.707,1.166-1.318,1.832-1.832
			c0.667-0.513,1.36-0.867,2.083-1.062c1.082-0.277,1.942-0.201,2.581,0.229s0.902,1.082,0.791,1.957
			c-0.111,0.874-0.687,1.915-1.728,3.123c-1.041,1.207-2.7,2.464-4.977,3.768c0.306,0.807,0.792,1.383,1.458,1.729
			s1.388,0.451,2.165,0.312c0.916-0.194,1.658-0.576,2.228-1.146C46.441,23.28,47.002,22.607,47.558,21.83z M39.772,19.997
			c-0.14,0.806-0.14,1.514,0,2.124c1.637-0.916,2.789-1.838,3.455-2.77c0.667-0.929,1.028-1.741,1.084-2.436
			c0.055-0.694-0.112-1.208-0.501-1.541S42.991,15,42.52,15.25c-0.777,0.389-1.39,1.034-1.832,1.937
			C40.243,18.089,39.938,19.026,39.772,19.997z"/>
	</g>
	<g>
		<polygon fill="none" stroke="#000000" stroke-width="3.5147" points="61.971,14.711 61.166,15.537 61.934,16.397 61.092,17.186 
			61.825,18.079 60.95,18.831 61.64,19.754 60.733,20.466 61.382,21.42 60.444,22.091 61.051,23.073 60.083,23.703 60.646,24.709 
			59.651,25.295 60.167,26.327 59.149,26.867 59.619,27.92 58.576,28.416 58.999,29.488 57.935,29.936 58.31,31.026 57.227,31.426 
			57.553,32.534 56.455,32.884 56.731,34.005 55.618,34.307 55.844,35.438 54.718,35.691 54.894,36.832 53.758,37.034 
			53.884,38.181 52.741,38.334 52.817,39.485 51.667,39.586 51.691,40.741 50.54,40.792 50.513,41.945 49.36,41.946 49.283,43.096 
			48.129,43.046 48.002,44.193 46.853,44.091 46.675,45.232 45.532,45.082 45.303,46.211 44.168,46.01 43.89,47.13 42.765,46.878 
			42.438,47.985 41.325,47.684 40.949,48.774 39.849,48.424 39.425,49.498 38.343,49.099 37.874,50.152 36.809,49.706 
			36.292,50.736 35.25,50.243 34.686,51.25 33.667,50.71 33.06,51.691 32.065,51.107 31.415,52.059 30.447,51.432 29.754,52.354 
			28.815,51.684 28.084,52.576 27.175,51.864 26.404,52.722 25.529,51.972 24.72,52.796 23.877,52.007 23.035,52.796 22.227,51.972 
			21.351,52.722 20.58,51.864 19.671,52.576 18.939,51.684 18,52.354 17.308,51.432 16.34,52.059 15.69,51.107 14.695,51.691 
			14.088,50.71 13.068,51.25 12.505,50.243 11.462,50.736 10.945,49.705 9.881,50.152 9.411,49.099 8.327,49.498 7.904,48.424 
			6.804,48.774 6.429,47.683 5.315,47.984 4.988,46.877 3.862,47.129 3.584,46.009 2.449,46.21 2.221,45.08 1.078,45.231 
			0.899,44.091 -0.25,44.192 -0.377,43.044 -1.53,43.095 -1.606,41.944 -2.76,41.944 -2.786,40.79 -3.939,40.738 -3.914,39.584 
			-5.063,39.482 -4.987,38.332 -6.131,38.179 -6.005,37.033 -7.141,36.83 -6.964,35.69 -8.09,35.436 -7.863,34.305 -8.977,34.003 
			-8.701,32.883 -9.799,32.532 -9.474,31.425 -10.555,31.026 -10.181,29.935 -11.245,29.486 -10.822,28.415 -11.864,27.919 
			-11.394,26.866 -12.413,26.327 -11.896,25.294 -12.891,24.708 -12.329,23.703 -13.296,23.073 -12.689,22.091 -13.627,21.42 
			-12.978,20.466 -13.886,19.755 -13.194,18.831 -14.069,18.08 -13.338,17.187 -14.18,16.397 -13.41,15.537 -14.216,14.711 
			-13.41,13.885 -14.18,13.026 -13.338,12.237 -14.07,11.344 -13.194,10.592 -13.886,9.668 -12.978,8.956 -13.627,8.002 
			-12.689,7.331 -13.296,6.35 -12.329,5.721 -12.891,4.713 -11.896,4.127 -12.413,3.095 -11.393,2.556 -11.864,1.502 -10.821,1.007 
			-11.245,-0.066 -10.181,-0.512 -10.555,-1.604 -9.473,-2.004 -9.799,-3.11 -8.7,-3.462 -8.976,-4.583 -7.863,-4.884 
			-8.089,-6.016 -6.963,-6.269 -7.14,-7.409 -6.004,-7.611 -6.13,-8.758 -4.986,-8.911 -5.062,-10.062 -3.913,-10.165 
			-3.937,-11.317 -2.785,-11.369 -2.758,-12.522 -1.604,-12.523 -1.528,-13.674 -0.375,-13.624 -0.248,-14.771 0.901,-14.67 
			1.079,-15.809 2.223,-15.659 2.451,-16.79 3.587,-16.587 3.864,-17.708 4.99,-17.457 5.317,-18.562 6.431,-18.261 6.807,-19.352 
			7.905,-19.002 8.329,-20.075 9.411,-19.676 9.882,-20.729 10.946,-20.283 11.463,-21.314 12.506,-20.82 13.069,-21.828 
			14.088,-21.287 14.695,-22.268 15.69,-21.684 16.34,-22.636 17.308,-22.008 18,-22.932 18.938,-22.261 19.671,-23.152 
			20.58,-22.442 21.35,-23.3 22.227,-22.549 23.035,-23.374 23.877,-22.585 24.72,-23.374 25.528,-22.549 26.404,-23.3 
			27.175,-22.442 28.084,-23.152 28.815,-22.261 29.754,-22.932 30.447,-22.008 31.415,-22.636 32.065,-21.684 33.06,-22.268 
			33.667,-21.287 34.686,-21.828 35.25,-20.82 36.292,-21.313 36.809,-20.283 37.874,-20.729 38.345,-19.676 39.427,-20.074 
			39.851,-19.001 40.951,-19.351 41.326,-18.26 42.44,-18.562 42.767,-17.456 43.893,-17.707 44.17,-16.587 45.306,-16.788 
			45.534,-15.657 46.678,-15.808 46.856,-14.668 48.004,-14.769 48.132,-13.623 49.286,-13.672 49.361,-12.521 50.515,-12.52 
			50.542,-11.367 51.694,-11.316 51.669,-10.162 52.818,-10.06 52.744,-8.909 53.886,-8.756 53.761,-7.609 54.896,-7.407 
			54.72,-6.266 55.845,-6.013 55.62,-4.882 56.732,-4.581 56.456,-3.46 57.555,-3.109 57.229,-2.002 58.311,-1.603 57.936,-0.511 
			59,-0.065 58.576,1.009 59.619,1.503 59.149,2.556 60.167,3.097 59.651,4.128 60.646,4.714 60.083,5.721 61.051,6.35 
			60.445,7.331 61.382,8.002 60.733,8.956 61.64,9.668 60.95,10.592 61.825,11.343 61.092,12.236 61.934,13.026 61.166,13.885 		"/>
	</g>
	<g>
		<path d="M-12.764,14.712c0-20.237,16.405-36.642,36.64-36.643l0,0c20.236,0.001,36.641,16.405,36.642,36.643l0,0
			c-0.001,20.234-16.405,36.639-36.642,36.64l0,0C3.641,51.351-12.763,34.947-12.764,14.712L-12.764,14.712z M-0.541-9.707
			c-6.25,6.252-10.113,14.879-10.114,24.419l0,0c0.001,9.537,3.864,18.164,10.114,24.417l0,0
			c6.252,6.25,14.879,10.113,24.417,10.113l0,0c9.539,0,18.166-3.863,24.419-10.113l0,0c6.25-6.253,10.113-14.88,10.113-24.417l0,0
			c0-9.54-3.863-18.167-10.113-24.419l0,0c-6.253-6.251-14.88-10.114-24.419-10.114l0,0C14.338-19.821,5.712-15.958-0.541-9.707
			L-0.541-9.707z"/>
	</g>
	<g>
		<g>
			<path fill="none" d="M53.626,13.946c0,15.642-12.68,28.322-28.322,28.322"/>
			<path d="M52.003,13.946c-0.343,14.418-12.801,24.745-26.699,25.076c-2.293,0.055-2.249,6.546,0,6.492
				c17.452-0.415,29.542-14.631,29.945-31.568C55.342,10.036,52.095,10.069,52.003,13.946L52.003,13.946z"/>
		</g>
	</g>
	<ellipse transform="matrix(0.7939 -0.6081 0.6081 0.7939 6.7521 4.3773)" cx="9.833" cy="-7.771" rx="5.736" ry="4.745"/>
	<circle cx="3.149" cy="-2.448" r="1.64"/>
	<g>
		<path d="M-9.931,14.477C-9.93-4.195,5.206-19.33,23.877-19.331l0,0C42.548-19.33,57.683-4.195,57.684,14.477l0,0
			c-0.001,18.672-15.136,33.808-33.807,33.808l0,0C5.206,48.285-9.93,33.149-9.931,14.477L-9.931,14.477z M0.687-8.713
			c-5.936,5.936-9.605,14.132-9.605,23.19l0,0c0,9.057,3.67,17.254,9.605,23.19l0,0c5.937,5.935,14.132,9.604,23.19,9.604l0,0
			c9.057,0,17.253-3.67,23.188-9.604l0,0c5.937-5.937,9.606-14.134,9.606-23.19l0,0c0-9.059-3.67-17.255-9.606-23.19l0,0
			c-5.936-5.936-14.132-9.605-23.188-9.605l0,0C14.819-18.319,6.624-14.649,0.687-8.713L0.687-8.713z"/>
	</g>
	<g>
		<path d="M6.966,1.663H6.104v1.846H5.803v-4.22h1.09c0.861,0,1.364,0.319,1.364,1.168C8.256,1.285,7.813,1.663,6.966,1.663z
			 M6.88-0.471H6.104v1.893h0.81c0.684,0,1.031-0.209,1.031-0.966C7.943-0.269,7.564-0.471,6.88-0.471z"/>
		<path d="M13.039,3.509V1.454h-2.167v2.056h-0.3v-4.221h0.3v1.917h2.167v-1.917h0.299v4.221H13.039z"/>
		<path d="M17.441,3.614c-1.337,0-1.729-0.946-1.729-2.2c0-1.252,0.45-2.191,1.736-2.191c1.325,0,1.701,0.939,1.701,2.191
			C19.149,2.667,18.714,3.614,17.441,3.614z M17.441-0.536c-1.122,0-1.415,0.827-1.415,1.949c0,1.098,0.292,1.958,1.415,1.958
			s1.396-0.861,1.396-1.958C18.837,0.292,18.563-0.536,17.441-0.536z"/>
		<path d="M22.646-0.464v3.973h-0.3v-3.973h-1.292v-0.248h2.884v0.248H22.646z"/>
		<path d="M27.417,3.614c-1.34,0-1.732-0.946-1.732-2.2c0-1.252,0.45-2.191,1.735-2.191c1.323,0,1.704,0.939,1.704,2.191
			C29.125,2.667,28.687,3.614,27.417,3.614z M27.417-0.536C26.294-0.536,26,0.292,26,1.414c0,1.098,0.295,1.958,1.418,1.958
			c1.119,0,1.394-0.861,1.394-1.958C28.81,0.292,28.537-0.536,27.417-0.536z"/>
		<path d="M32.372,3.614c-0.364,0-0.712-0.085-1.07-0.182l0.116-0.275c0.315,0.118,0.616,0.216,0.96,0.216
			c0.488,0,1.109-0.183,1.109-0.927c0-0.621-0.515-0.816-1.058-1.005c-0.559-0.195-1.127-0.424-1.127-1.154
			c0-0.777,0.613-1.064,1.389-1.064c0.287,0,0.633,0.066,0.978,0.184l-0.119,0.273c-0.237-0.104-0.493-0.215-0.897-0.215
			c-0.567,0-1.037,0.196-1.037,0.822c0,0.502,0.444,0.685,0.932,0.854c0.601,0.208,1.252,0.449,1.252,1.291
			C33.798,3.333,33.148,3.614,32.372,3.614z"/>
		<path d="M40.212,3.509h-1.186v-4.221h0.972c0.843,0,1.422,0.169,1.422,1.076c0,0.443-0.279,0.776-0.671,0.933
			c0.523,0.126,0.868,0.456,0.868,1.031C41.618,3.293,40.999,3.509,40.212,3.509z M39.999-0.471h-0.671v1.69h0.765
			c0.552,0,1.015-0.228,1.015-0.849C41.107-0.374,40.731-0.471,39.999-0.471z M40.104,1.454h-0.776v1.814h0.847
			c0.674,0,1.123-0.123,1.123-0.939C41.298,1.578,40.756,1.454,40.104,1.454z"/>
		<path d="M45.229,1.61v1.899H44.93V1.638l-1.515-2.35h0.342l1.339,2.055l1.271-2.055h0.298L45.229,1.61z"/>
	</g>
</g>
</svg>
