<?xml version="1.0" encoding="utf-8"?>
<!-- Generator: Adobe Illustrator 13.0.0, SVG Export Plug-In . SVG Version: 6.00 Build 14948)  -->
<!DOCTYPE svg PUBLIC "-//W3C//DTD SVG 1.1//EN" "http://www.w3.org/Graphics/SVG/1.1/DTD/svg11.dtd">
<svg version="1.1" id="Layer_1" xmlns="http://www.w3.org/2000/svg" xmlns:xlink="http://www.w3.org/1999/xlink" x="0px" y="0px"
	 width="200px" height="200px" viewBox="-4.258 -4.279 200 200" enable-background="new -4.258 -4.279 200 200"
	 xml:space="preserve">
<g>
	<g>
		<path d="M99.502,196.914l-2.199,2.055l-2.107-2.146l-2.288,1.957l-2.011-2.238l-2.37,1.857l-1.916-2.33l-2.453,1.75l-1.808-2.41
			l-2.527,1.637l-1.697-2.482l-2.602,1.527l-1.585-2.564l-2.665,1.412l-1.471-2.635l-2.724,1.289l-1.353-2.693l-2.777,1.168
			l-1.233-2.754l-2.832,1.037l-1.105-2.801l-2.869,0.914l-0.983-2.85l-2.906,0.785l-0.855-2.889l-2.941,0.656l-0.725-2.922
			l-2.972,0.523l-0.593-2.953l-2.984,0.393l-0.464-2.975l-3.003,0.264l-0.332-2.994l-3.007,0.127l-0.202-3.002l-3.013-0.006
			l-0.068-3.01l-3.011-0.137l0.065-3.008l-3.004-0.268l0.199-3.006l-2.987-0.4l0.332-2.994l-2.964-0.531l0.459-2.973l-2.941-0.66
			l0.593-2.953l-2.907-0.791l0.722-2.922l-2.872-0.916l0.852-2.895l-2.826-1.045l0.979-2.852l-2.779-1.168l1.104-2.805l-2.726-1.293
			l1.229-2.752l-2.66-1.41l1.35-2.697l-2.601-1.529l1.469-2.635l-2.528-1.643l1.585-2.564l-2.445-1.75l1.693-2.488l-2.373-1.861
			l1.807-2.416l-2.282-1.963l1.905-2.328L0.101,103.9l2.01-2.246l-2.102-2.152l2.101-2.153l-2.011-2.245l2.2-2.063L0.391,90.71
			l2.286-1.962l-1.805-2.412l2.372-1.861l-1.693-2.489l2.448-1.754l-1.586-2.567l2.527-1.642l-1.47-2.636l2.6-1.528l-1.347-2.694
			l2.659-1.411L6.154,65l2.723-1.291l-1.106-2.805l2.781-1.168l-0.978-2.853l2.825-1.042l-0.853-2.89l2.875-0.918l-0.722-2.926
			l2.91-0.79l-0.591-2.958l2.938-0.658l-0.459-2.976l2.965-0.53l-0.327-2.993l2.984-0.399l-0.197-3.004l3-0.268l-0.062-3.013
			l3.007-0.135l0.067-3.008l3.013-0.003l0.2-3.009l3.012,0.132l0.335-2.996l3,0.264l0.465-2.977l2.985,0.396l0.596-2.95l2.965,0.524
			l0.725-2.924l2.939,0.656l0.854-2.893l2.91,0.788l0.98-2.846l2.871,0.915l1.107-2.806l2.828,1.042l1.23-2.751l2.781,1.168
			l1.354-2.693L69.805,6.7l1.471-2.633l2.665,1.412l1.586-2.562l2.598,1.527l1.698-2.49l2.529,1.642l1.808-2.412l2.453,1.752
			l1.914-2.33l2.372,1.858l2.013-2.241l2.283,1.957L97.3,0.031l2.201,2.056l2.198-2.058l2.107,2.15l2.285-1.958l2.015,2.24
			l2.372-1.859l1.915,2.332l2.45-1.75l1.808,2.409l2.526-1.641l1.701,2.491l2.601-1.528l1.586,2.563l2.668-1.41l1.471,2.633
			l2.722-1.288l1.353,2.692l2.778-1.167l1.231,2.752l2.828-1.042l1.107,2.806l2.872-0.915l0.981,2.847l2.904-0.787l0.856,2.892
			l2.944-0.659l0.725,2.926l2.968-0.526l0.595,2.954l2.986-0.396l0.464,2.979l3.002-0.263l0.331,2.992l3.008-0.132l0.201,3.007
			l3.014,0.001l0.067,3.014l3.007,0.135l-0.062,3.013l3.004,0.269l-0.197,3.003l2.98,0.397l-0.326,2.995l2.972,0.529l-0.463,2.983
			l2.935,0.662l-0.59,2.948l2.908,0.789l-0.724,2.927l2.872,0.917l-0.854,2.891l2.825,1.043l-0.978,2.852l2.781,1.169l-1.105,2.805
			l2.721,1.289l-1.229,2.753l2.67,1.414l-1.353,2.697l2.595,1.528l-1.467,2.632l2.525,1.642l-1.585,2.564l2.446,1.75l-1.695,2.495
			l2.375,1.865l-1.805,2.409l2.281,1.959l-1.906,2.331l2.197,2.062l-2.011,2.247l2.103,2.154l-2.1,2.15l2.006,2.24l-2.197,2.064
			l1.91,2.332l-2.283,1.961l1.805,2.41l-2.374,1.863l1.694,2.494l-2.445,1.75l1.586,2.561l-2.531,1.646l1.469,2.633l-2.6,1.529
			l1.352,2.695l-2.662,1.412l1.229,2.75l-2.727,1.295l1.104,2.812l-2.774,1.164l0.976,2.844l-2.826,1.049l0.853,2.895l-2.868,0.916
			l0.722,2.922l-2.91,0.793l0.592,2.953l-2.938,0.66l0.46,2.979l-2.966,0.529l0.327,2.996l-2.982,0.396l0.198,3.01l-3.005,0.264
			l0.064,3.012l-3.008,0.135l-0.066,3.014h-3.018l-0.201,3.008l-3.006-0.131l-0.333,2.996l-3.002-0.266l-0.464,2.971l-2.986-0.393
			l-0.594,2.953l-2.969-0.525l-0.725,2.926l-2.939-0.658l-0.854,2.891l-2.912-0.787l-0.981,2.85l-2.871-0.916l-1.108,2.803
			l-2.824-1.039l-1.229,2.75l-2.781-1.166l-1.354,2.693l-2.721-1.287l-1.469,2.633l-2.669-1.412l-1.588,2.564l-2.603-1.527
			l-1.697,2.482l-2.525-1.637l-1.809,2.41l-2.45-1.75l-1.917,2.334l-2.374-1.861l-2.011,2.236l-2.284-1.955l-2.107,2.146
			L99.502,196.914L99.502,196.914z M97.565,186.92l1.939-1.811l1.938,1.809l1.854-1.891l2.015,1.725l1.774-1.975l2.083,1.633
			l1.677-2.041l2.155,1.537l1.59-2.117l2.221,1.438l1.493-2.184l2.28,1.338l1.393-2.25l2.338,1.236l1.29-2.312l2.396,1.135
			l1.188-2.361l2.438,1.021l1.08-2.416l2.484,0.916l0.975-2.467l2.522,0.807l0.861-2.5l2.555,0.689l0.75-2.539l2.583,0.576
			l0.637-2.568l2.607,0.461l0.521-2.592l2.625,0.344l0.41-2.621l2.639,0.232l0.293-2.635l2.648,0.115l0.178-2.645l2.644-0.002
			l0.06-2.646l2.65-0.117l-0.057-2.652l2.638-0.232l-0.175-2.643l2.632-0.35l-0.29-2.633l2.605-0.467l-0.403-2.617l2.584-0.58
			l-0.519-2.594l2.555-0.693l-0.635-2.572l2.521-0.807l-0.746-2.535l2.482-0.92l-0.86-2.512l2.44-1.023l-0.969-2.459l2.391-1.135
			l-1.077-2.416l2.338-1.24l-1.187-2.367l2.283-1.344l-1.291-2.316l2.217-1.438l-1.393-2.25l2.157-1.543l-1.487-2.189l2.075-1.631
			l-1.588-2.121l2.015-1.73l-1.675-2.047l1.929-1.811l-1.771-1.979l1.854-1.898l-1.854-1.899l1.769-1.975l-1.929-1.81l1.676-2.05
			l-2.014-1.73l1.588-2.12l-2.077-1.632l1.488-2.19l-2.154-1.542l1.391-2.25l-2.219-1.44l1.291-2.312l-2.287-1.346l1.188-2.365
			l-2.334-1.237l1.077-2.418l-2.395-1.135l0.973-2.464l-2.438-1.025l0.857-2.502l-2.483-0.917l0.748-2.539l-2.524-0.807l0.635-2.569
			l-2.555-0.693l0.521-2.602l-2.587-0.583l0.405-2.61l-2.602-0.464l0.288-2.637l-2.631-0.352l0.175-2.643l-2.636-0.236l0.056-2.647
			l-2.65-0.119l-0.059-2.647l-2.646-0.001l-0.176-2.643l-2.65,0.117l-0.293-2.636l-2.639,0.231l-0.406-2.618l-2.627,0.348
			l-0.521-2.598l-2.609,0.461l-0.635-2.568l-2.584,0.577l-0.751-2.54l-2.556,0.692l-0.862-2.504l-2.522,0.803l-0.973-2.461
			l-2.482,0.915l-1.084-2.417l-2.439,1.024l-1.188-2.365l-2.395,1.133l-1.29-2.312l-2.342,1.239l-1.392-2.251l-2.283,1.34
			l-1.491-2.184l-2.219,1.44l-1.589-2.118l-2.156,1.539l-1.68-2.046l-2.086,1.633l-1.771-1.972l-2.014,1.726l-1.854-1.893
			l-1.936,1.81l-1.939-1.812l-1.857,1.896l-2.013-1.725l-1.769,1.971l-2.086-1.634l-1.683,2.049L86,13.098l-1.587,2.117l-2.22-1.44
			l-1.491,2.187l-2.281-1.341l-1.394,2.252l-2.339-1.239l-1.291,2.311l-2.395-1.134l-1.188,2.364l-2.435-1.022l-1.08,2.417
			l-2.486-0.917l-0.971,2.461l-2.522-0.803l-0.862,2.506l-2.555-0.692l-0.75,2.538l-2.584-0.577l-0.637,2.566l-2.61-0.461
			l-0.526,2.6l-2.624-0.348l-0.409,2.617l-2.639-0.232l-0.293,2.634l-2.644-0.115l-0.175,2.637l-2.649,0.003l-0.059,2.651
			l-2.65,0.118l0.056,2.648l-2.635,0.234l0.173,2.645l-2.626,0.351l0.288,2.631l-2.606,0.465l0.405,2.619l-2.587,0.58l0.519,2.597
			l-2.553,0.693l0.634,2.569l-2.52,0.807l0.749,2.541l-2.488,0.918l0.86,2.507l-2.437,1.024l0.971,2.46l-2.396,1.136l1.078,2.415
			L16.2,72.838l1.187,2.373l-2.28,1.34l1.289,2.312l-2.218,1.441l1.389,2.247l-2.154,1.543l1.49,2.191l-2.08,1.632l1.588,2.122
			l-2.01,1.727l1.679,2.051l-1.931,1.811l1.768,1.971L12.062,99.5l1.854,1.896l-1.767,1.977l1.932,1.811l-1.68,2.053l2.009,1.727
			l-1.585,2.119l2.079,1.631l-1.49,2.193l2.154,1.541l-1.389,2.248l2.219,1.441l-1.29,2.314l2.281,1.342l-1.186,2.367l2.338,1.238
			l-1.078,2.418l2.391,1.133l-0.969,2.463l2.439,1.025l-0.86,2.508l2.481,0.916l-0.746,2.537l2.521,0.803l-0.635,2.576l2.558,0.693
			l-0.521,2.598l2.582,0.58l-0.405,2.617l2.61,0.471l-0.29,2.629l2.628,0.352l-0.175,2.639l2.637,0.234l-0.057,2.65l2.645,0.119
			l0.061,2.648l2.646,0.002l0.179,2.643l2.649-0.115l0.292,2.633l2.636-0.229l0.41,2.615l2.631-0.348l0.521,2.598l2.606-0.463
			l0.637,2.568l2.58-0.576l0.752,2.541l2.554-0.689l0.864,2.504l2.522-0.805l0.973,2.463l2.486-0.912l1.079,2.412l2.44-1.025
			l1.188,2.365l2.393-1.135l1.292,2.312l2.34-1.238l1.394,2.254l2.279-1.34l1.494,2.186l2.22-1.438l1.589,2.117l2.156-1.539
			l1.679,2.045l2.086-1.635l1.772,1.973l2.012-1.723L97.565,186.92L97.565,186.92z M192.971,99.502l0.138-0.134L192.971,99.502
			L192.971,99.502z		">
<animateTransform  type="rotate" fill="remove" to="115 97 97" from="0 97 97" restart="always" dur="25s" calcMode="linear" additive="replace" accumulate="none" repeatCount="indefinite" attributeType="XML" attributeName="transform">
				</animateTransform>
		</path>
	</g>
</g>
<g>
	<g>
		<path d="M51.422,123.516c1.709,0,3.311-0.917,4.808-2.747c1.495-1.831,2.944-4.181,4.35-7.051
			c1.404-2.867,2.778-6.056,4.123-9.569c1.34-3.511,2.714-6.944,4.121-10.302c-1.1,1.404-2.304,2.792-3.617,4.166
			c-1.315,1.373-2.748,2.609-4.304,3.708c-1.558,1.099-3.222,1.999-4.991,2.702c-1.771,0.703-3.603,1.054-5.494,1.054
			c-2.381,0-4.244-0.608-5.587-1.83c-1.344-1.22-2.139-2.763-2.381-4.626c-0.245-1.862,0.077-3.876,0.961-6.045
			c0.884-2.167,2.396-4.181,4.532-6.043c2.135-1.863,4.867-3.403,8.196-4.625c3.325-1.22,7.34-1.832,12.041-1.832
			c1.587,0,3.005-0.015,4.257-0.045c1.251-0.031,2.395-0.077,3.434-0.138c0.856-0.974,1.696-1.769,2.519-2.381
			c0.825-0.608,1.693-0.975,2.609-1.099c1.402-0.181,2.487,0.048,3.251,0.688c0.761,0.641,0.991,1.39,0.687,2.245
			c-0.307,0.731-0.902,1.281-1.786,1.647c-0.885,0.366-2.334,0.64-4.349,0.825c-0.857,1.709-1.803,4.167-2.84,7.371
			c-1.038,3.207-2.259,6.64-3.664,10.303c1.404-0.182,2.716-0.885,3.937-2.104c1.222-1.222,2.427-2.686,3.618-4.397
			c1.191-1.707,2.458-3.54,3.801-5.494c1.342-1.953,2.838-3.753,4.486-5.403c1.648-1.648,3.511-3.02,5.587-4.12
			c2.077-1.099,4.456-1.648,7.142-1.648c0.427,0,0.749,0.107,0.961,0.32c0.213,0.214,0.322,0.458,0.322,0.733
			c0,0.274-0.107,0.518-0.322,0.733c-0.212,0.213-0.534,0.32-0.961,0.32c-0.55,0-1.295,0.459-2.244,1.374
			c-0.946,0.917-2.075,2.076-3.388,3.479c-1.314,1.404-2.747,2.963-4.303,4.672c-1.558,1.709-3.192,3.386-4.899,5.035
			c-1.708,1.65-3.464,3.146-5.266,4.488c-1.801,1.344-3.557,2.351-5.265,3.022c1.282,0.734,2.258,1.708,2.931,2.931
			c0.672,1.221,1.159,2.55,1.465,3.982c0.304,1.436,0.486,2.9,0.549,4.397c0.06,1.495,0.123,2.837,0.183,4.027
			c0.061,1.191,0.214,2.168,0.459,2.931c0.244,0.765,0.702,1.145,1.375,1.145c1.158,0,2.486-0.732,3.982-2.197
			c1.496-1.466,2.854-3.266,4.076-5.402c0.67-1.038,1.236-1.449,1.693-1.236c0.458,0.214,0.441,0.871-0.046,1.969
			c-0.548,1.222-1.372,2.517-2.473,3.893c-1.098,1.373-2.305,2.641-3.617,3.8c-1.314,1.161-2.687,2.106-4.121,2.839
			c-1.435,0.733-2.733,1.099-3.892,1.099c-1.527,0-2.534-0.549-3.022-1.648c-0.489-1.097-0.732-2.473-0.732-4.121
			s0.136-3.437,0.413-5.358c0.274-1.923,0.426-3.753,0.458-5.495c0.029-1.74-0.183-3.233-0.642-4.485
			c-0.458-1.251-1.388-1.999-2.793-2.245h-0.184c-1.097,2.932-2.32,5.802-3.662,8.607c-1.343,2.811-2.838,5.312-4.487,7.509
			c-1.648,2.198-3.449,3.981-5.402,5.356c-1.953,1.376-4.12,2.061-6.502,2.061c-2.688,0-4.702-0.624-6.044-1.875
			c-1.344-1.252-2.137-2.658-2.381-4.214c-0.246-1.555,0.031-3.006,0.824-4.349c0.792-1.343,1.981-2.106,3.572-2.29
			c1.158-0.122,2.015,0.106,2.563,0.686c0.549,0.582,0.9,1.253,1.053,2.017s0.107,1.479-0.135,2.151
			c-0.245,0.672-0.58,1.009-1.007,1.009c-0.856,0-1.451,0.273-1.787,0.824c-0.335,0.549-0.442,1.145-0.321,1.785
			c0.123,0.643,0.473,1.225,1.055,1.743C49.483,123.256,50.323,123.516,51.422,123.516z M74.59,84.688
			c-0.428,0.914-0.948,1.862-1.556,2.837c-0.49,0.856-1.085,1.818-1.787,2.886c-0.701,1.067-1.509,2.213-2.426,3.434
			c0.854-2.137,1.741-4.182,2.655-6.136c0.916-1.952,1.861-3.692,2.839-5.221h-6.411c-2.809,0-5.373,0.49-7.692,1.465
			c-2.322,0.979-4.32,2.184-5.998,3.618c-1.681,1.437-3.023,2.993-4.029,4.67c-1.008,1.68-1.589,3.237-1.741,4.669
			c-0.154,1.436,0.123,2.642,0.826,3.616c0.701,0.978,1.937,1.467,3.706,1.467c1.283,0,2.564-0.259,3.846-0.777
			c1.282-0.52,2.532-1.209,3.755-2.063c1.22-0.852,2.381-1.83,3.479-2.929c1.098-1.099,2.135-2.228,3.113-3.389
			c2.259-2.684,4.396-5.738,6.411-9.158L74.59,84.688z"/>
		<path d="M51.513,126.473c-2.86,0.002-5.219-0.666-6.875-2.204l0,0c-1.501-1.391-2.469-3.063-2.754-4.916l0,0
			c-0.065-0.426-0.101-0.851-0.101-1.274l0,0c0-1.364,0.369-2.691,1.082-3.885l0,0c0.944-1.643,2.575-2.686,4.493-2.882l0,0
			c0.235-0.025,0.47-0.04,0.702-0.04l0,0c1.079-0.01,2.143,0.318,2.876,1.098l0,0c0.694,0.732,1.171,1.634,1.364,2.617l0,0
			c0.073,0.368,0.111,0.733,0.111,1.098l0,0c0,0.583-0.101,1.16-0.299,1.706l0,0c-0.166,0.443-0.37,0.851-0.719,1.207l0,0
			c-0.338,0.354-0.895,0.617-1.435,0.606l0,0c-0.626,0.026-0.656,0.13-0.746,0.244l0,0c-0.14,0.23-0.189,0.413-0.193,0.644l0,0
			c0,0.082,0.01,0.173,0.027,0.275l0,0c0.07,0.346,0.243,0.671,0.67,1.06l0,0c0.282,0.251,0.785,0.465,1.705,0.467l0,0v1.22v0.518
			v-0.518v-1.22c1.242-0.006,2.49-0.634,3.861-2.299l0,0c1.418-1.733,2.826-4.01,4.201-6.817l0,0
			c1.386-2.827,2.745-5.986,4.078-9.468l0,0c0.491-1.286,0.985-2.557,1.484-3.821l0,0c-1.076,1.023-2.223,1.969-3.442,2.825l0,0
			c-1.635,1.154-3.385,2.104-5.245,2.843l0,0c-1.91,0.756-3.9,1.135-5.944,1.134l0,0c-2.579,0.008-4.788-0.671-6.405-2.146l0,0
			c-1.553-1.4-2.502-3.255-2.77-5.369l0,0c-0.06-0.456-0.091-0.921-0.091-1.391l0,0c0-1.7,0.391-3.461,1.133-5.274l0,0
			c0.968-2.374,2.611-4.542,4.859-6.503l0,0c2.277-1.979,5.143-3.589,8.578-4.85l0,0c3.502-1.282,7.657-1.905,12.463-1.905l0,0
			c1.58,0,2.99-0.015,4.229-0.045l0,0c1.04-0.026,2.003-0.061,2.892-0.108l0,0c0.783-0.857,1.569-1.581,2.365-2.173l0,0
			c0.961-0.713,2.036-1.174,3.175-1.325l0,0c0.355-0.047,0.704-0.073,1.045-0.073l0,0c1.177-0.006,2.292,0.312,3.149,1.033l0,0
			c0.73,0.595,1.261,1.492,1.251,2.471l0,0c0,0.387-0.077,0.759-0.2,1.11l0,0l-0.013,0.039l-0.014,0.029
			c-0.438,1.066-1.344,1.86-2.443,2.304l0,0c-0.983,0.403-2.286,0.657-4.013,0.843l0,0c-0.741,1.59-1.574,3.802-2.479,6.602l0,0
			c-0.798,2.464-1.702,5.057-2.712,7.78l0,0c0.32-0.227,0.639-0.502,0.964-0.821l0,0c1.16-1.161,2.323-2.571,3.477-4.231l0,0
			c1.189-1.707,2.453-3.538,3.797-5.489l0,0c1.383-2.015,2.928-3.875,4.628-5.574l0,0c1.735-1.734,3.699-3.182,5.878-4.337l0,0
			c2.27-1.203,4.862-1.791,7.714-1.79l0,0c0.615-0.003,1.307,0.166,1.826,0.682l0,0c0.398,0.384,0.685,0.991,0.672,1.592l0,0
			c0.013,0.598-0.273,1.208-0.677,1.595l0,0c-0.515,0.513-1.2,0.679-1.81,0.677l0,0c-0.006,0.002-0.026,0.005-0.058,0.016l0,0
			c-0.059,0.021-0.161,0.068-0.289,0.149l0,0c-0.262,0.158-0.631,0.448-1.06,0.865l0,0c-0.925,0.897-2.043,2.044-3.344,3.438l0,0
			c-1.31,1.401-2.74,2.953-4.294,4.659l0,0c-1.575,1.729-3.228,3.428-4.955,5.092l0,0c-1.745,1.682-3.539,3.213-5.383,4.587l0,0
			c-1.215,0.906-2.419,1.672-3.613,2.295l0,0c0.646,0.611,1.189,1.312,1.619,2.093l0,0c0.73,1.329,1.259,2.775,1.59,4.316l0,0
			c0.318,1.506,0.509,3.039,0.573,4.6l0,0c0.061,1.492,0.125,2.829,0.185,4.015l0,0c0.056,1.121,0.201,2.006,0.404,2.625l0,0
			c0.053,0.171,0.11,0.253,0.131,0.279l0,0l0.005,0.009c0.001,0,0.02,0.008,0.075,0.008l0,0c0.621,0.021,1.74-0.478,3.128-1.849l0,0
			c1.402-1.375,2.696-3.083,3.87-5.137l0,0l0.016-0.027l0.02-0.028c0.655-0.922,1.168-1.739,2.478-1.85l0,0
			c0.258-0.001,0.53,0.061,0.76,0.169l0,0c0.705,0.291,1.083,1.161,1.035,1.727l0,0c-0.01,0.638-0.204,1.189-0.486,1.848l0,0
			c-0.604,1.344-1.485,2.72-2.634,4.154l0,0c-1.139,1.427-2.395,2.746-3.759,3.951l0,0c-1.385,1.224-2.843,2.23-4.375,3.013l0,0
			c-1.55,0.789-3.026,1.231-4.444,1.231l0,0c-1.787,0.051-3.47-0.775-4.135-2.369l0,0c-0.583-1.311-0.837-2.852-0.84-4.617l0,0
			c0-1.717,0.142-3.561,0.423-5.53l0,0c0.269-1.875,0.416-3.66,0.446-5.338l0,0c0-0.1,0-0.198,0-0.299l0,0
			c0.002-1.5-0.201-2.75-0.569-3.752l0,0c-0.253-0.62-0.54-0.981-1.075-1.223l0,0c-1.009,2.616-2.115,5.179-3.318,7.694l0,0
			c-1.372,2.873-2.909,5.444-4.612,7.714l0,0c-1.711,2.285-3.603,4.166-5.677,5.624l0,0c-2.134,1.507-4.572,2.283-7.179,2.283l0,0
			C51.53,126.473,51.521,126.473,51.513,126.473L51.513,126.473z M75.688,103.545c0.491,1.342,0.717,2.873,0.717,4.59l0,0
			c0,0.107,0,0.219-0.001,0.338l0,0c-0.033,1.794-0.19,3.673-0.47,5.646l0,0c-0.269,1.872-0.401,3.602-0.401,5.183l0,0
			c-0.001,1.53,0.229,2.738,0.628,3.627l0,0c0.308,0.602,0.638,0.872,1.908,0.924l0,0c0.898,0,2.019-0.291,3.337-0.967l0,0
			c0.896-0.458,1.771-1.008,2.625-1.65l0,0c-0.51,0.184-1.03,0.288-1.566,0.292l0,0c-0.562,0.007-1.172-0.179-1.629-0.567l0,0
			c-0.458-0.382-0.74-0.893-0.906-1.422l0,0c-0.291-0.911-0.449-1.98-0.517-3.243l0,0c-0.06-1.195-0.122-2.542-0.183-4.042l0,0
			c-0.058-1.428-0.234-2.822-0.524-4.19l0,0c-0.283-1.323-0.729-2.536-1.341-3.649l0,0c-0.564-1.021-1.359-1.823-2.467-2.461l0,0
			l-0.395-0.227C75.034,102.216,75.444,102.834,75.688,103.545L75.688,103.545z M47.623,113.736
			c-1.27,0.171-2.019,0.658-2.661,1.699l0,0c-0.505,0.855-0.74,1.709-0.743,2.645l0,0c0,0.287,0.024,0.586,0.074,0.895l0,0
			c0.2,1.262,0.821,2.4,2.006,3.511l0,0c0.419,0.395,0.946,0.724,1.593,0.977l0,0c-0.633-0.622-1.081-1.388-1.239-2.232l0,0
			c-0.049-0.247-0.072-0.495-0.072-0.737l0,0c0-0.674,0.196-1.345,0.55-1.915l0,0c0.542-0.919,1.581-1.37,2.598-1.407l0,0
			c0.025-0.048,0.056-0.114,0.087-0.204l0,0c0.102-0.282,0.153-0.565,0.153-0.878l0,0c0-0.196-0.02-0.4-0.064-0.619l0,0
			c-0.112-0.546-0.34-0.986-0.742-1.418l0,0c-0.176-0.179-0.442-0.327-1.104-0.336l0,0
			C47.927,113.713,47.776,113.721,47.623,113.736L47.623,113.736z M65.84,104.582c-1.356,3.541-2.742,6.764-4.166,9.67l0,0
			c-1.437,2.932-2.926,5.356-4.5,7.286l0,0c-0.53,0.653-1.095,1.221-1.695,1.691l0,0c0.63-0.274,1.239-0.62,1.834-1.035l0,0
			c1.834-1.288,3.546-2.979,5.128-5.09l0,0c1.593-2.126,3.049-4.559,4.362-7.306l0,0c1.326-2.775,2.534-5.611,3.621-8.508l0,0
			l0.295-0.792h0.038l0.403-1.049c1.397-3.646,2.61-7.06,3.641-10.24l0,0c1.05-3.241,2.006-5.739,2.908-7.543l0,0l0.304-0.606
			l0.675-0.063c1.953-0.171,3.337-0.456,3.994-0.735l0,0c0.654-0.281,0.938-0.579,1.115-0.965l0,0
			c0.037-0.12,0.047-0.205,0.047-0.264l0,0c-0.011-0.154-0.025-0.284-0.383-0.602l0,0c-0.336-0.278-0.795-0.457-1.579-0.462l0,0
			c-0.22,0-0.464,0.016-0.726,0.05l0,0c-0.696,0.095-1.361,0.365-2.044,0.871l0,0c-0.737,0.546-1.519,1.28-2.328,2.205l0,0
			l-0.335,0.381l-0.044,0.003l-1.067,1.667c-0.074,0.114-0.147,0.23-0.22,0.346l0,0l0.33,0.332l-0.864,0.861l0.864-0.861
			l0.603,0.603l-0.361,0.776c-0.451,0.966-0.996,1.955-1.604,2.928l0,0c-0.506,0.883-1.112,1.865-1.824,2.948l0,0
			c-0.696,1.059-1.489,2.183-2.381,3.377l0,0C68.506,97.757,67.158,101.131,65.84,104.582L65.84,104.582z M56.559,83.449
			c-3.221,1.184-5.818,2.661-7.815,4.401l0,0c-2.024,1.765-3.405,3.625-4.205,5.584l0,0c-0.646,1.581-0.951,3.028-0.951,4.352l0,0
			c0,0.364,0.023,0.722,0.069,1.076l0,0c0.218,1.608,0.856,2.836,1.992,3.878l0,0c1.068,0.971,2.581,1.509,4.766,1.516l0,0
			c1.741-0.002,3.411-0.32,5.044-0.969l0,0c1.094-0.432,2.141-0.945,3.146-1.535l0,0c-0.437,0.214-0.878,0.416-1.324,0.595l0,0
			c-1.411,0.572-2.856,0.867-4.303,0.867l0,0c-1.963,0.013-3.691-0.564-4.699-1.972l0,0c-0.738-1.023-1.1-2.265-1.095-3.585l0,0
			c0-0.288,0.017-0.581,0.049-0.875l0,0c0.177-1.666,0.837-3.383,1.906-5.167l0,0c1.084-1.803,2.515-3.461,4.282-4.973l0,0
			c1.785-1.523,3.896-2.792,6.317-3.813l0,0c0.575-0.242,1.166-0.456,1.765-0.642l0,0C59.696,82.481,58.045,82.905,56.559,83.449
			L56.559,83.449z M60.688,85.079c-2.224,0.935-4.109,2.078-5.68,3.419l0,0c-1.594,1.362-2.842,2.818-3.775,4.37l0,0
			c-0.944,1.575-1.447,2.972-1.575,4.173l0,0c-0.021,0.217-0.034,0.421-0.034,0.616l0,0c0.005,0.902,0.221,1.572,0.638,2.16l0,0
			c0.392,0.547,1.139,0.944,2.716,0.955l0,0c1.118-0.001,2.238-0.222,3.39-0.686l0,0c1.191-0.484,2.358-1.123,3.513-1.933l0,0
			c1.16-0.811,2.266-1.741,3.316-2.791l0,0c1.076-1.076,2.09-2.176,3.045-3.312l0,0c2.063-2.457,4.036-5.238,5.905-8.342l0,0h-4.24
			C65.236,83.709,62.842,84.171,60.688,85.079L60.688,85.079z M94.299,79.447c-1.973,1.042-3.732,2.341-5.294,3.904l0,0
			c-1.595,1.594-3.045,3.338-4.345,5.233l0,0c-1.344,1.955-2.613,3.788-3.802,5.499l0,0c-1.227,1.757-2.475,3.279-3.757,4.562l0,0
			c-0.12,0.12-0.241,0.235-0.365,0.347l0,0c1.072-0.555,2.176-1.252,3.305-2.095l0,0c1.758-1.311,3.474-2.774,5.147-4.389l0,0
			c1.693-1.63,3.308-3.289,4.846-4.98l0,0c1.56-1.71,2.996-3.271,4.314-4.68l0,0c1.323-1.414,2.462-2.588,3.431-3.523l0,0
			c0.606-0.559,1.133-1.023,1.708-1.328l0,0C97.543,78.149,95.826,78.639,94.299,79.447L94.299,79.447z"/>
	</g>
	<g>
		<path d="M104.993,94.944c1.647,0,2.865,0.732,3.663,2.197l0.092-0.093c0.304-0.672,0.81-1.157,1.512-1.464
			c0.7-0.305,1.389-0.458,2.06-0.458s1.221,0.168,1.647,0.504c0.427,0.336,0.519,0.81,0.273,1.418
			c-0.303,0.673-0.748,1.802-1.325,3.39c-0.581,1.588-1.19,3.295-1.832,5.126c-0.639,1.831-1.233,3.604-1.784,5.312
			c-0.551,1.71-0.947,2.963-1.191,3.756c-0.247,0.793-0.476,1.541-0.687,2.244c-0.214,0.704-0.352,1.296-0.412,1.786
			c-0.06,0.489,0.018,0.886,0.229,1.19c0.214,0.307,0.596,0.457,1.146,0.457c1.159,0,2.485-0.733,3.982-2.197
			c1.495-1.465,2.854-3.266,4.076-5.402c0.671-1.038,1.235-1.449,1.693-1.236c0.459,0.214,0.44,0.871-0.047,1.969
			c-0.549,1.222-1.372,2.518-2.472,3.893c-1.099,1.374-2.307,2.641-3.617,3.801c-1.315,1.161-2.688,2.105-4.122,2.839
			c-1.438,0.732-2.731,1.098-3.893,1.098c-1.524,0-2.474-0.504-2.839-1.512c-0.365-1.01-0.429-2.211-0.182-3.618
			c-1.589,1.649-3.175,2.945-4.763,3.894c-1.588,0.945-3.083,1.418-4.487,1.418c-1.281,0-2.289-0.411-3.02-1.234
			c-0.734-0.826-1.222-1.926-1.466-3.298c-0.243-1.374-0.198-2.978,0.137-4.808s0.961-3.784,1.879-5.859
			c0.913-2.076,2.013-4.031,3.294-5.86c1.283-1.83,2.64-3.437,4.076-4.809c1.434-1.373,2.868-2.457,4.304-3.249
			C102.35,95.342,103.711,94.944,104.993,94.944z M102.429,115.18c1.036-2.93,2.015-5.797,2.93-8.607
			c0.916-2.807,1.709-5.127,2.381-6.959c-0.489-1.466-1.373-2.259-2.655-2.381c-0.855,0-1.773,0.289-2.749,0.869
			c-0.976,0.583-1.951,1.375-2.929,2.382c-0.977,1.008-1.893,2.197-2.746,3.572c-0.856,1.373-1.59,2.854-2.2,4.439
			c-1.282,3.175-1.786,5.892-1.51,8.151c0.274,2.259,1.236,3.419,2.884,3.479c0.915,0.061,1.906-0.258,2.977-0.963
			c1.068-0.701,2.12-1.662,3.158-2.885L102.429,115.18z"/>
		<path d="M87.781,124.829c-0.915-1.029-1.482-2.36-1.756-3.898l0,0c-0.114-0.655-0.172-1.344-0.172-2.066l0,0
			c0-0.993,0.104-2.052,0.311-3.171l0,0c0.359-1.942,1.015-3.985,1.96-6.134l0,0c0.949-2.146,2.089-4.168,3.415-6.067l0,0
			c1.323-1.887,2.731-3.552,4.228-4.987l0,0c1.495-1.435,3.015-2.583,4.558-3.437l0,0c1.565-0.866,3.13-1.342,4.667-1.342l0,0v1.218
			v1.071v-1.071v-1.218c1.411-0.03,2.711,0.49,3.684,1.422l0,0c0.325-0.28,0.695-0.51,1.096-0.682l0,0
			c0.828-0.362,1.687-0.559,2.547-0.559l0,0c0.867-0.005,1.724,0.232,2.402,0.765l0,0c0.519,0.381,0.891,1.095,0.87,1.768l0,0
			c-0.003,0.385-0.093,0.73-0.214,1.049l0,0l-0.02,0.053l-0.007,0.017c-0.279,0.609-0.718,1.729-1.29,3.3l0,0
			c-0.58,1.583-1.186,3.285-1.826,5.115l0,0c-0.638,1.82-1.228,3.583-1.777,5.28l0,0c-0.547,1.708-0.945,2.958-1.185,3.744l0,0
			c-0.245,0.79-0.474,1.536-0.688,2.239l0,0c-0.202,0.657-0.32,1.194-0.364,1.587l0,0c-0.012,0.067-0.016,0.118-0.016,0.158l0,0
			c0,0.047,0.004,0.079,0.007,0.102l0,0c0.042,0.005,0.098,0.012,0.172,0.012l0,0c0.621,0.023,1.74-0.476,3.129-1.848l0,0
			c1.401-1.376,2.696-3.082,3.87-5.138l0,0l0.017-0.026l0.018-0.028c0.655-0.921,1.167-1.742,2.479-1.85l0,0
			c0.258-0.002,0.53,0.061,0.759,0.17l0,0c0.703,0.291,1.082,1.16,1.033,1.724l0,0c-0.011,0.64-0.203,1.189-0.483,1.849l0,0
			c-0.605,1.344-1.482,2.721-2.631,4.155l0,0c-1.142,1.428-2.398,2.747-3.763,3.952l0,0c-1.383,1.222-2.841,2.229-4.373,3.014l0,0
			c-1.554,0.787-3.025,1.23-4.445,1.231l0,0c-0.896-0.001-1.71-0.142-2.429-0.522l0,0c-0.718-0.371-1.29-1.03-1.556-1.791l0,0
			c-0.137-0.375-0.237-0.764-0.305-1.168l0,0c-0.947,0.803-1.904,1.496-2.87,2.072l0,0c-1.721,1.026-3.429,1.593-5.111,1.593l0,0
			c-0.022,0-0.044,0-0.065,0l0,0C90.138,126.473,88.732,125.918,87.781,124.829L87.781,124.829z M97.455,100.265
			c-1.368,1.311-2.675,2.853-3.919,4.629l0,0c-1.234,1.764-2.293,3.648-3.18,5.652l0,0c-0.882,2.006-1.477,3.873-1.792,5.588l0,0
			c-0.183,0.998-0.27,1.909-0.27,2.731l0,0c0,0.596,0.046,1.143,0.135,1.641l0,0c0.218,1.213,0.625,2.081,1.175,2.701l0,0
			c0.496,0.542,1.079,0.814,2.11,0.828l0,0c1.124,0,2.407-0.38,3.86-1.247l0,0c0.867-0.518,1.744-1.152,2.631-1.91l0,0
			c-0.708,0.303-1.421,0.472-2.146,0.474l0,0c-0.091,0-0.192-0.002-0.269-0.008l0,0c-1.095-0.023-2.165-0.502-2.851-1.355l0,0
			c-0.693-0.844-1.042-1.929-1.2-3.195l0,0c-0.055-0.453-0.082-0.916-0.082-1.389l0,0c0.001-2.208,0.577-4.654,1.667-7.35l0,0
			c0.635-1.654,1.402-3.203,2.302-4.648l0,0c0.892-1.437,1.859-2.695,2.905-3.772l0,0c0.874-0.902,1.761-1.66,2.671-2.261l0,0
			C99.974,98.092,98.723,99.052,97.455,100.265L97.455,100.265z M102.163,120.157c-0.089,0.496-0.129,0.955-0.129,1.376l0,0
			c0,0.627,0.092,1.156,0.256,1.609l0,0c0.099,0.244,0.182,0.342,0.412,0.474l0,0c0.228,0.126,0.646,0.236,1.28,0.235l0,0
			c0.9,0.001,2.019-0.291,3.338-0.966l0,0c0.896-0.457,1.768-1.007,2.623-1.649l0,0c-0.512,0.184-1.028,0.286-1.563,0.291l0,0
			c-0.742,0.012-1.623-0.23-2.142-0.975l0,0c-0.335-0.471-0.479-1.046-0.475-1.579l0,0c0-0.164,0.014-0.317,0.031-0.462l0,0
			c0.07-0.594,0.229-1.247,0.454-1.992l0,0c0.214-0.703,0.442-1.451,0.688-2.247l0,0c0.249-0.805,0.645-2.058,1.195-3.771l0,0
			c0.557-1.716,1.15-3.501,1.795-5.341l0,0c0.644-1.833,1.255-3.55,1.838-5.143l0,0c0.578-1.579,1.019-2.708,1.349-3.443l0,0
			c0.006-0.017,0.011-0.03,0.018-0.042l0,0c-0.174-0.109-0.411-0.185-0.814-0.188l0,0c-0.487,0-1.003,0.107-1.574,0.355l0,0
			c-0.461,0.211-0.694,0.447-0.886,0.852l0,0l-0.095,0.206l-1.026,1.018c0.059,0.146,0.111,0.297,0.158,0.45l0,0l0.134,0.406
			l-0.147,0.403c-0.664,1.808-1.451,4.119-2.364,6.916l0,0c-0.92,2.822-1.901,5.699-2.939,8.638l0,0l-0.013,0.028l-0.544,1.309
			l-0.123,0.142c-0.075,0.095-0.154,0.182-0.231,0.272l0,0L102.163,120.157L102.163,120.157z M102.961,99.149
			c-0.865,0.516-1.765,1.236-2.681,2.183l0,0c-0.908,0.938-1.771,2.056-2.586,3.367l0,0c-0.814,1.305-1.512,2.713-2.103,4.252l0,0
			c-1.018,2.515-1.498,4.677-1.494,6.453l0,0c0,0.38,0.021,0.742,0.063,1.092l0,0c0.118,0.994,0.389,1.62,0.655,1.935l0,0
			c0.276,0.311,0.513,0.441,1.092,0.479l0,0c0.042,0.002,0.091,0.004,0.15,0.004l0,0c0.535,0.002,1.228-0.21,2.081-0.769l0,0
			c0.909-0.596,1.839-1.431,2.78-2.515l0,0l0.376-0.902c1.027-2.906,1.996-5.749,2.903-8.534l0,0
			c0.846-2.596,1.59-4.782,2.232-6.558l0,0c-0.38-0.851-0.744-1.071-1.418-1.181l0,0C104.449,98.467,103.769,98.67,102.961,99.149
			L102.961,99.149z"/>
	</g>
	<g>
		<path d="M125.778,93.571c-0.612,1.771-1.283,3.753-2.017,5.952c-0.73,2.198-1.418,4.32-2.06,6.362
			c-0.639,2.047-1.221,3.864-1.74,5.451c-0.518,1.588-0.869,2.687-1.052,3.296c-0.246,0.793-0.476,1.541-0.688,2.244
			c-0.214,0.704-0.337,1.296-0.365,1.786c-0.031,0.489,0.045,0.886,0.228,1.19c0.183,0.307,0.55,0.457,1.099,0.457
			c1.158,0,2.503-0.733,4.029-2.197c1.523-1.465,2.899-3.266,4.121-5.402c0.608-1.038,1.145-1.449,1.603-1.236
			c0.457,0.214,0.44,0.871-0.046,1.969c-0.551,1.222-1.359,2.518-2.427,3.893c-1.069,1.374-2.274,2.641-3.619,3.801
			c-1.342,1.161-2.717,2.105-4.121,2.839c-1.403,0.732-2.687,1.098-3.846,1.098c-1.221,0-2.06-0.322-2.517-0.961
			c-0.459-0.641-0.688-1.45-0.688-2.427c0-0.978,0.172-2.045,0.506-3.207c0.335-1.16,0.687-2.255,1.052-3.297
			c0.551-1.464,1.145-3.158,1.787-5.082c0.64-1.923,1.282-3.875,1.923-5.858c0.64-1.982,1.267-3.906,1.877-5.772
			c0.61-1.861,1.16-3.495,1.648-4.896h-3.755c-0.307,0-0.488-0.122-0.55-0.367c-0.061-0.244-0.031-0.518,0.092-0.824
			c0.123-0.304,0.307-0.579,0.55-0.825c0.245-0.242,0.519-0.365,0.826-0.365h3.663l0.365-0.917c0.245-0.67,0.749-1.282,1.513-1.832
			c0.763-0.55,1.524-0.945,2.288-1.19c0.762-0.244,1.389-0.29,1.876-0.136c0.487,0.152,0.61,0.535,0.366,1.143l-1.098,2.932h5.036
			c0.304,0,0.487,0.123,0.551,0.365c0.06,0.246,0.03,0.52-0.092,0.825c-0.124,0.306-0.308,0.581-0.551,0.824
			c-0.246,0.247-0.519,0.367-0.825,0.367L125.778,93.571L125.778,93.571z"/>
		<path d="M111.371,124.816c-0.634-0.883-0.917-1.971-0.916-3.132l0,0c0-1.118,0.194-2.297,0.554-3.547l0,0
			c0.342-1.179,0.701-2.297,1.085-3.386l0,0c0.543-1.446,1.132-3.128,1.77-5.04l0,0c0.639-1.918,1.279-3.868,1.92-5.851l0,0
			c0.641-1.983,1.267-3.907,1.879-5.776l0,0c0.39-1.191,0.753-2.289,1.096-3.296l0,0h-2.045c-0.309,0-0.683-0.06-1.043-0.297l0,0
			c-0.365-0.231-0.614-0.647-0.688-0.985l0,0c-0.048-0.188-0.068-0.375-0.068-0.559l0,0c0-0.361,0.08-0.71,0.208-1.021l0,0
			c0.184-0.464,0.47-0.884,0.824-1.235l0,0c0.409-0.425,1.044-0.731,1.686-0.722l0,0h2.836l0.047-0.115
			c0.349-0.96,1.043-1.756,1.941-2.402l0,0c0.85-0.613,1.727-1.073,2.632-1.362l0,0c0.555-0.177,1.09-0.284,1.626-0.284l0,0
			c0.324,0,0.66,0.039,0.985,0.142l0,0c0.325,0.101,0.684,0.292,0.954,0.632l0,0c0.274,0.337,0.395,0.78,0.389,1.144l0,0
			c-0.002,0.374-0.094,0.681-0.197,0.96l0,0l-0.481,1.285h3.278c0.311,0,0.684,0.061,1.044,0.297l0,0
			c0.361,0.231,0.609,0.639,0.691,1l0,0c0.046,0.187,0.061,0.37,0.061,0.542l0,0c0,0.365-0.083,0.701-0.209,1.024l0,0
			c-0.184,0.463-0.466,0.882-0.817,1.234l0,0c-0.413,0.427-1.051,0.731-1.687,0.723l0,0h-4.075
			c-0.533,1.551-1.108,3.254-1.727,5.119l0,0c-0.731,2.19-1.415,4.305-2.055,6.341l0,0c-0.645,2.051-1.226,3.87-1.747,5.465l0,0
			c-0.518,1.582-0.867,2.68-1.047,3.278l0,0c-0.245,0.791-0.474,1.54-0.685,2.242l0,0c-0.199,0.639-0.296,1.153-0.316,1.508l0,0
			c-0.005,0.062-0.007,0.104-0.007,0.124l0,0c0,0.096,0.009,0.166,0.018,0.219l0,0c0.029,0.003,0.06,0.005,0.101,0.005l0,0
			c0.62,0.023,1.765-0.48,3.184-1.855l0,0c1.428-1.375,2.736-3.077,3.913-5.143l0,0c0.29-0.492,0.578-0.896,0.932-1.238l0,0
			c0.349-0.325,0.825-0.646,1.48-0.655l0,0c0.262-0.002,0.532,0.062,0.76,0.169l0,0c0.706,0.294,1.081,1.163,1.032,1.727l0,0
			c-0.011,0.638-0.201,1.188-0.483,1.848l0,0c-0.601,1.337-1.463,2.707-2.576,4.143l0,0c-1.117,1.437-2.38,2.764-3.783,3.973l0,0
			c-1.403,1.214-2.857,2.216-4.354,3l0,0c-1.523,0.792-2.989,1.234-4.409,1.234l0,0c-0.016,0-0.029,0-0.044,0l0,0
			C113.451,126.289,112.15,125.9,111.371,124.816L111.371,124.816z M122.182,92.351l-0.562,1.621
			c-0.485,1.396-1.032,3.021-1.642,4.878l0,0c-0.61,1.861-1.234,3.782-1.875,5.765l0,0c-0.642,1.985-1.284,3.943-1.927,5.871l0,0
			c-0.643,1.935-1.244,3.642-1.791,5.101l0,0c-0.358,1.016-0.701,2.093-1.032,3.228l0,0c-0.31,1.076-0.455,2.035-0.455,2.869l0,0
			c0.004,0.789,0.177,1.319,0.459,1.715l0,0c0.129,0.188,0.486,0.443,1.526,0.453l0,0c0.899,0.001,1.997-0.29,3.282-0.962l0,0
			c0.887-0.462,1.764-1.017,2.634-1.671l0,0c-0.527,0.194-1.061,0.301-1.611,0.307l0,0c-0.729,0.019-1.652-0.226-2.143-1.045l0,0
			c-0.303-0.5-0.415-1.063-0.413-1.617l0,0c0-0.112,0.007-0.206,0.01-0.279l0,0c0.04-0.629,0.185-1.303,0.419-2.064l0,0
			c0.212-0.703,0.442-1.452,0.686-2.238l0,0c0.189-0.634,0.54-1.734,1.06-3.326l0,0c0.517-1.581,1.096-3.394,1.735-5.437l0,0
			c0.642-2.052,1.333-4.178,2.069-6.383l0,0c0.73-2.202,1.404-4.188,2.017-5.966l0,0l0.265-0.764h-0.047l1.551-4.134
			c-0.159,0.024-0.348,0.072-0.563,0.138l0,0c-0.624,0.2-1.272,0.532-1.949,1.02l0,0c-0.627,0.453-0.938,0.877-1.091,1.294l0,0
			l-0.65,1.625L122.182,92.351L122.182,92.351z M125.777,94.791V93.57V94.791L125.777,94.791z"/>
	</g>
	<g>
		<path d="M147.849,112.709c0.732-1.038,1.31-1.434,1.739-1.191c0.427,0.247,0.364,0.887-0.183,1.924
			c-0.673,1.345-1.543,2.702-2.61,4.073c-1.067,1.375-2.287,2.611-3.664,3.709c-1.372,1.1-2.869,1.985-4.486,2.658
			c-1.618,0.672-3.341,1.006-5.174,1.006c-1.343,0-2.608-0.275-3.8-0.825c-1.188-0.549-2.198-1.358-3.021-2.425
			c-0.824-1.067-1.404-2.38-1.74-3.938c-0.333-1.557-0.288-3.343,0.138-5.357c0.364-1.893,0.975-3.772,1.83-5.633
			c0.854-1.862,1.892-3.569,3.114-5.127c1.219-1.556,2.562-2.898,4.029-4.029c1.463-1.129,2.988-1.907,4.578-2.334
			c2.381-0.611,4.273-0.443,5.676,0.502c1.404,0.947,1.984,2.381,1.741,4.305c-0.245,1.923-1.511,4.213-3.799,6.869
			c-2.29,2.655-5.939,5.419-10.943,8.284c0.671,1.773,1.74,3.041,3.204,3.802c1.468,0.763,3.053,0.993,4.764,0.686
			c2.016-0.426,3.647-1.267,4.898-2.516C145.39,115.899,146.626,114.419,147.849,112.709z M130.724,108.68
			c-0.307,1.771-0.307,3.326,0,4.67c3.599-2.015,6.134-4.042,7.6-6.089c1.467-2.043,2.257-3.829,2.382-5.357
			c0.122-1.526-0.245-2.655-1.098-3.388c-0.857-0.733-1.803-0.825-2.84-0.276c-1.709,0.857-3.053,2.276-4.029,4.258
			C131.761,104.482,131.089,106.546,130.724,108.68z"/>
		<path d="M129.159,125.172c-1.368-0.631-2.543-1.577-3.477-2.789l0,0c-0.951-1.231-1.6-2.726-1.968-4.425l0,0
			c-0.167-0.778-0.25-1.595-0.25-2.446l0,0c0-1.084,0.132-2.224,0.382-3.399l0,0c0.386-1.993,1.026-3.966,1.92-5.91l0,0
			c0.894-1.943,1.979-3.739,3.263-5.372l0,0c1.28-1.632,2.694-3.045,4.244-4.244l0,0c1.574-1.209,3.247-2.072,5.019-2.547l0,0
			c1.016-0.259,1.971-0.399,2.879-0.399l0,0c1.4-0.002,2.704,0.339,3.784,1.073l0,0c1.512,0.986,2.36,2.66,2.328,4.49l0,0
			c0,0.323-0.021,0.642-0.062,0.978l0,0c-0.308,2.325-1.725,4.76-4.085,7.509l0,0c-2.283,2.641-5.711,5.276-10.303,7.99l0,0
			c0.556,1.028,1.279,1.734,2.203,2.219l0,0c0.882,0.457,1.779,0.677,2.761,0.681l0,0c0.391,0,0.8-0.036,1.184-0.104l0,0
			c1.829-0.39,3.222-1.122,4.29-2.187l0,0c1.19-1.195,2.388-2.619,3.574-4.282l0,0l0,0c0.001,0,0.001-0.002,0.004-0.003l0,0
			c0-0.002,0-0.002,0.001-0.004l0,0l0,0c0.696-0.893,1.183-1.656,2.47-1.77l0,0c0.295-0.006,0.615,0.081,0.868,0.226l0,0
			c0.602,0.312,0.93,1.085,0.893,1.609l0,0c-0.016,0.705-0.26,1.268-0.592,1.92l0,0c-0.714,1.427-1.628,2.851-2.738,4.279l0,0
			c-1.126,1.447-2.416,2.755-3.861,3.912l0,0c-1.462,1.169-3.06,2.117-4.783,2.828l0,0c-1.77,0.738-3.66,1.101-5.642,1.101l0,0
			C131.96,126.107,130.505,125.793,129.159,125.172L129.159,125.172z M130.951,102.335c-1.165,1.479-2.15,3.104-2.968,4.884l0,0
			c-0.817,1.781-1.396,3.563-1.748,5.376l0,0c-0.221,1.057-0.331,2.03-0.331,2.916l0,0c0,0.697,0.066,1.338,0.196,1.933l0,0
			c0.305,1.41,0.817,2.545,1.514,3.448l0,0c0.713,0.924,1.554,1.594,2.567,2.063l0,0c1.032,0.475,2.111,0.711,3.287,0.711l0,0
			c1.686-0.002,3.242-0.304,4.707-0.914l0,0c1.512-0.627,2.905-1.451,4.192-2.479l0,0c0.482-0.389,0.946-0.792,1.39-1.214l0,0
			c-1.219,0.864-2.666,1.466-4.308,1.81l0,0c-0.555,0.098-1.103,0.149-1.649,0.149l0,0c-1.361,0.003-2.677-0.324-3.888-0.952l0,0
			c-1.749-0.903-3.037-2.461-3.783-4.452l0,0l-0.169-0.443l-0.065,0.037l-0.124-0.54l-0.011-0.028l0.005-0.001l-0.232-1.016
			c-0.176-0.772-0.261-1.588-0.261-2.446l0,0c0-0.857,0.083-1.758,0.249-2.701l0,0h-0.002c0.385-2.25,1.096-4.431,2.125-6.515l0,0
			c0.212-0.436,0.444-0.85,0.696-1.24l0,0C131.859,101.226,131.397,101.764,130.951,102.335L130.951,102.335z M148.259,113.004
			c0-0.002,0.001-0.004,0.001-0.006l0,0l-0.41-0.289L148.259,113.004L148.259,113.004z M131.923,108.89
			c-0.143,0.825-0.211,1.586-0.211,2.285l0,0c0,0.061,0,0.12,0.002,0.176l0,0c2.659-1.644,4.526-3.272,5.619-4.803l0,0
			c1.396-1.939,2.068-3.564,2.156-4.743l0,0c0.013-0.153,0.019-0.305,0.019-0.458l0,0c-0.015-1.02-0.271-1.531-0.693-1.906l0,0
			c-0.328-0.273-0.537-0.332-0.766-0.338l0,0c-0.179,0-0.402,0.047-0.736,0.226l0,0c-1.449,0.73-2.592,1.913-3.479,3.706l0,0
			c-0.929,1.883-1.562,3.827-1.906,5.85l0,0l-1.203-0.207L131.923,108.89L131.923,108.89z M140.4,97.589
			c1.065,0.903,1.557,2.284,1.545,3.761l0,0c0,0.21-0.008,0.423-0.027,0.65l0,0c-0.157,1.874-1.069,3.822-2.604,5.972l0,0
			c-0.095,0.133-0.194,0.265-0.296,0.396l0,0c0.883-0.774,1.639-1.53,2.275-2.27l0,0c2.218-2.558,3.334-4.707,3.512-6.215l0,0
			c0.028-0.249,0.047-0.474,0.047-0.678l0,0c-0.029-1.198-0.376-1.844-1.254-2.469l0,0c-0.633-0.424-1.396-0.653-2.423-0.655l0,0
			c-0.657,0-1.417,0.1-2.258,0.317l0,0c-0.285,0.077-0.568,0.168-0.852,0.271l0,0c0.003,0,0.006,0,0.01,0l0,0
			C138.932,96.666,139.753,97.026,140.4,97.589L140.4,97.589z"/>
	</g>
</g>
<text transform="matrix(1 0 0 1 66.793 68.3525)" fill="#FFFFFF" font-family="'Colaborate-Thin'" font-size="9.773">PHOTOS BY</text>
<text transform="matrix(1 0 0 1 75.793 68.3525)" fill="none" stroke="#000000" font-family="'Colaborate-Thin'" font-size="9.773">PHOTOS BY</text>
<g>
	<g>
		<path fill="none" stroke="#000000" d="M167.718,94.897c0,37.318-30.253,67.57-67.572,67.57"/>
		<path stroke="#000000" d="M163.846,94.897c-0.345,34.022-30.871,59.494-63.7,59.826c-5.442,0.057-5.396,15.545,0,15.489
			c19.281-0.194,37.17-8.043,50.645-21.772c13.884-14.15,20.604-33.979,20.801-53.542c0.021-2.193-0.658-7.745-3.871-7.745
			C164.475,87.152,163.869,92.703,163.846,94.897L163.846,94.897z"/>
	</g>
</g>
<ellipse transform="matrix(-0.7939 0.6081 -0.6081 -0.7939 142.6763 47.8063)" cx="63.236" cy="48.085" rx="13.685" ry="11.322"/>
<circle cx="47.287" cy="60.783" r="3.913"/>
<g>
	<polygon points="66.092,66.265 66.092,65.426 73.639,65.426 73.639,66.265 	"/>
</g>
<g>
	<polygon points="124.771,66.265 124.771,65.426 132.316,65.426 132.316,66.265 	"/>
</g>
<circle fill="none" stroke="#000000" stroke-width="11.0949" cx="99.5" cy="99.5" r="86.133"/>
<circle fill="none" stroke="#000000" stroke-width="2.0458" cx="99.5" cy="99.5" r="78.133"/>
</svg>
