<?xml version="1.0" encoding="utf-8"?>
<!-- Generator: Adobe Illustrator 13.0.0, SVG Export Plug-In . SVG Version: 6.00 Build 14948)  -->
<!DOCTYPE svg PUBLIC "-//W3C//DTD SVG 1.1//EN" "http://www.w3.org/Graphics/SVG/1.1/DTD/svg11.dtd">
<svg version="1.1" id="Layer_1" xmlns="http://www.w3.org/2000/svg" xmlns:xlink="http://www.w3.org/1999/xlink" x="0px" y="0px"
	 width="60px" height="60px" viewBox="65.742 65.721 60 60" enable-background="new 65.742 65.721 60 60" xml:space="preserve">
<g>
	<g>
		<path d="M99.5,128.864l-0.663,0.62l-0.635-0.647l-0.69,0.591l-0.606-0.676l-0.714,0.561l-0.578-0.702l-0.739,0.527l-0.545-0.727
			l-0.762,0.493l-0.512-0.748l-0.784,0.46l-0.478-0.772l-0.804,0.425l-0.443-0.793l-0.821,0.388l-0.408-0.812l-0.837,0.353
			l-0.372-0.83l-0.854,0.313l-0.333-0.845l-0.865,0.275l-0.296-0.859l-0.876,0.236l-0.258-0.87l-0.887,0.198l-0.218-0.881
			l-0.896,0.157l-0.179-0.891l-0.9,0.119l-0.14-0.896l-0.905,0.079l-0.1-0.902l-0.906,0.037l-0.061-0.904l-0.908-0.001l-0.021-0.907
			L77.6,119.99l0.02-0.907l-0.905-0.08l0.06-0.906l-0.901-0.121l0.101-0.901l-0.894-0.161l0.139-0.896l-0.886-0.198l0.179-0.892
			l-0.876-0.238l0.217-0.881l-0.865-0.275l0.257-0.872l-0.853-0.316l0.296-0.858l-0.838-0.353l0.333-0.846l-0.822-0.389l0.371-0.831
			l-0.802-0.425l0.407-0.812l-0.784-0.462l0.442-0.793l-0.762-0.496l0.478-0.772l-0.737-0.528l0.51-0.75l-0.715-0.561l0.544-0.729
			l-0.688-0.592l0.574-0.702l-0.663-0.62l0.606-0.677L69.509,99.5l0.633-0.649l-0.606-0.677l0.663-0.622l-0.575-0.703l0.689-0.592
			l-0.544-0.727l0.715-0.561l-0.51-0.75l0.738-0.528l-0.478-0.774l0.762-0.495l-0.443-0.794l0.783-0.46l-0.405-0.812l0.801-0.425
			l-0.371-0.83l0.821-0.389l-0.333-0.846l0.838-0.352l-0.295-0.86l0.852-0.313l-0.257-0.872l0.866-0.277l-0.217-0.882l0.877-0.238
			l-0.178-0.892l0.886-0.198l-0.139-0.897l0.895-0.16l-0.099-0.902l0.899-0.12l-0.059-0.905l0.904-0.081l-0.019-0.908l0.907-0.041
			l0.02-0.907l0.909-0.001l0.06-0.907l0.908,0.04l0.102-0.903l0.904,0.08l0.141-0.897l0.9,0.119l0.179-0.89l0.894,0.158l0.218-0.881
			l0.886,0.197l0.257-0.872l0.877,0.238l0.295-0.858l0.866,0.276l0.333-0.846l0.853,0.314l0.371-0.83l0.838,0.352l0.408-0.812
			l0.82,0.388l0.444-0.793l0.803,0.425l0.478-0.772l0.783,0.46l0.512-0.751l0.763,0.495l0.544-0.727l0.74,0.528l0.577-0.703
			l0.715,0.56l0.606-0.676l0.688,0.59l0.634-0.648l0.664,0.62l0.663-0.62l0.635,0.648l0.689-0.59l0.606,0.675l0.715-0.56
			l0.578,0.703l0.738-0.527l0.545,0.726l0.762-0.495l0.513,0.751l0.784-0.46l0.479,0.772l0.804-0.425l0.443,0.793l0.82-0.388
			l0.408,0.812l0.837-0.352l0.371,0.83l0.853-0.314l0.335,0.846l0.864-0.276l0.297,0.858l0.876-0.237l0.258,0.871l0.887-0.198
			l0.219,0.882l0.895-0.159l0.18,0.891l0.899-0.119l0.141,0.897l0.904-0.079l0.101,0.901l0.907-0.04l0.061,0.906l0.907,0
			l0.021,0.909l0.907,0.041l-0.019,0.908l0.904,0.081l-0.059,0.905l0.897,0.12l-0.098,0.903l0.896,0.16l-0.139,0.899l0.884,0.199
			l-0.178,0.889l0.877,0.238l-0.218,0.882l0.865,0.276l-0.258,0.872l0.853,0.314l-0.295,0.86l0.838,0.353l-0.333,0.846l0.82,0.388
			l-0.37,0.83l0.805,0.427l-0.408,0.813l0.782,0.46l-0.441,0.793l0.761,0.495l-0.479,0.773l0.738,0.527l-0.512,0.752l0.717,0.562
			l-0.545,0.726l0.688,0.591l-0.575,0.703l0.663,0.622l-0.606,0.677l0.634,0.649l-0.633,0.648l0.605,0.675l-0.663,0.622l0.575,0.703
			l-0.688,0.591l0.545,0.728l-0.716,0.561l0.511,0.752l-0.736,0.527l0.478,0.772l-0.763,0.496l0.441,0.794l-0.783,0.461l0.408,0.812
			l-0.803,0.425l0.37,0.83l-0.822,0.39l0.333,0.849l-0.836,0.351l0.294,0.856l-0.853,0.317l0.258,0.872l-0.864,0.275l0.218,0.881
			l-0.878,0.239l0.179,0.891l-0.886,0.199l0.139,0.897l-0.895,0.159l0.099,0.903l-0.899,0.12l0.061,0.907l-0.906,0.079l0.02,0.908
			l-0.907,0.041l-0.02,0.908h-0.909l-0.062,0.907l-0.906-0.04l-0.101,0.902l-0.904-0.079l-0.141,0.895l-0.899-0.118l-0.179,0.891
			l-0.895-0.158l-0.219,0.882l-0.887-0.199l-0.257,0.872l-0.878-0.237l-0.296,0.859l-0.865-0.276l-0.334,0.846l-0.853-0.314
			l-0.37,0.829l-0.838-0.352l-0.408,0.812l-0.819-0.388l-0.443,0.793l-0.804-0.426l-0.479,0.773l-0.784-0.461l-0.512,0.749
			l-0.762-0.493l-0.545,0.726l-0.739-0.527l-0.578,0.704l-0.715-0.562l-0.605,0.675l-0.689-0.59l-0.635,0.647L99.5,128.864
			L99.5,128.864z M98.917,125.853l0.584-0.546l0.584,0.545l0.559-0.57l0.606,0.521l0.535-0.596l0.628,0.492l0.505-0.614l0.649,0.463
			l0.48-0.639l0.669,0.434l0.45-0.658l0.687,0.403l0.421-0.679l0.705,0.373l0.388-0.697l0.723,0.343l0.358-0.713l0.734,0.309
			l0.326-0.729l0.749,0.276l0.294-0.744l0.76,0.243l0.26-0.753l0.77,0.207l0.227-0.765l0.778,0.174l0.192-0.774l0.785,0.139
			l0.158-0.781l0.79,0.104l0.124-0.791l0.796,0.07l0.088-0.794l0.799,0.034l0.054-0.797h0.797l0.018-0.799l0.8-0.035l-0.019-0.799
			l0.796-0.07l-0.053-0.797l0.793-0.105l-0.087-0.793l0.785-0.142l-0.122-0.788l0.78-0.176l-0.157-0.782l0.771-0.208l-0.191-0.775
			l0.76-0.244l-0.225-0.764l0.748-0.277l-0.26-0.757l0.736-0.309l-0.292-0.741l0.721-0.343l-0.324-0.728l0.704-0.374l-0.357-0.714
			l0.688-0.405l-0.389-0.698l0.668-0.433l-0.42-0.679l0.65-0.465l-0.448-0.66l0.626-0.491l-0.479-0.64l0.606-0.521l-0.504-0.617
			l0.581-0.546l-0.534-0.596l0.56-0.572l-0.56-0.573l0.534-0.595l-0.582-0.546l0.505-0.618l-0.606-0.521l0.479-0.64l-0.627-0.492
			l0.449-0.661l-0.649-0.464l0.419-0.679l-0.668-0.434l0.389-0.697l-0.689-0.406l0.358-0.712l-0.703-0.373l0.324-0.729l-0.722-0.342
			l0.293-0.743l-0.735-0.309l0.259-0.754l-0.748-0.277l0.226-0.765l-0.762-0.243l0.191-0.775l-0.77-0.208l0.157-0.785l-0.78-0.176
			l0.122-0.786l-0.784-0.14l0.086-0.795l-0.792-0.106l0.053-0.797l-0.795-0.071l0.018-0.798l-0.8-0.036l-0.017-0.798l-0.799,0
			l-0.053-0.797l-0.8,0.036l-0.087-0.795l-0.796,0.07l-0.123-0.789l-0.791,0.105l-0.157-0.783l-0.786,0.139l-0.192-0.774
			l-0.778,0.174l-0.227-0.766l-0.771,0.208l-0.26-0.755l-0.76,0.242l-0.294-0.742l-0.748,0.276l-0.327-0.729l-0.735,0.308
			l-0.357-0.713l-0.723,0.342l-0.389-0.697l-0.705,0.374l-0.421-0.679l-0.688,0.404l-0.449-0.658l-0.669,0.434l-0.479-0.638
			l-0.65,0.464l-0.506-0.617l-0.629,0.492l-0.533-0.594l-0.606,0.52l-0.56-0.571L99.5,73.694l-0.584-0.546l-0.56,0.572l-0.607-0.52
			l-0.533,0.594l-0.628-0.492l-0.508,0.618l-0.649-0.464l-0.478,0.639l-0.669-0.434l-0.449,0.659l-0.688-0.404l-0.42,0.679
			l-0.705-0.374l-0.39,0.697l-0.721-0.342l-0.359,0.713l-0.734-0.308l-0.325,0.729l-0.75-0.277l-0.292,0.742l-0.76-0.243
			l-0.26,0.756l-0.77-0.209l-0.227,0.765l-0.779-0.174l-0.192,0.774l-0.787-0.139l-0.159,0.784l-0.791-0.105l-0.123,0.789
			l-0.795-0.07l-0.088,0.794l-0.797-0.035l-0.053,0.795l-0.798,0.001l-0.018,0.799l-0.799,0.036l0.017,0.798l-0.794,0.071
			l0.052,0.797l-0.792,0.106l0.087,0.793l-0.786,0.14l0.122,0.79l-0.78,0.175l0.156,0.783l-0.769,0.209l0.19,0.774l-0.759,0.243
			l0.226,0.766l-0.75,0.277l0.259,0.755l-0.734,0.309l0.292,0.741L74.77,90.36l0.325,0.728l-0.705,0.375l0.358,0.715l-0.688,0.404
			l0.389,0.697l-0.668,0.434l0.418,0.678l-0.649,0.465l0.449,0.661l-0.627,0.492l0.479,0.64l-0.605,0.52l0.506,0.619l-0.582,0.545
			l0.533,0.594L73.142,99.5l0.559,0.572l-0.532,0.595l0.583,0.546l-0.506,0.619l0.605,0.521l-0.478,0.639l0.626,0.491l-0.449,0.661
			l0.649,0.465l-0.418,0.678l0.669,0.435l-0.389,0.697l0.688,0.405l-0.357,0.713l0.705,0.374l-0.325,0.729l0.72,0.342l-0.292,0.742
			l0.735,0.31l-0.259,0.756l0.748,0.275l-0.225,0.765l0.76,0.243l-0.191,0.776l0.771,0.208l-0.157,0.783l0.778,0.176l-0.122,0.788
			l0.787,0.143l-0.087,0.792l0.792,0.105l-0.053,0.796l0.794,0.071l-0.017,0.798l0.797,0.036l0.019,0.799l0.797,0.001l0.054,0.796
			l0.798-0.034l0.088,0.793l0.794-0.068l0.124,0.788l0.793-0.104l0.157,0.782l0.786-0.139l0.192,0.773l0.778-0.173l0.227,0.766
			l0.77-0.207l0.261,0.754l0.76-0.243l0.293,0.743l0.75-0.275l0.325,0.728l0.735-0.31l0.358,0.714l0.721-0.343l0.39,0.697
			l0.706-0.373l0.42,0.68l0.688-0.404l0.45,0.658l0.669-0.433l0.479,0.639l0.65-0.464l0.506,0.615l0.628-0.492l0.534,0.595
			l0.607-0.52L98.917,125.853L98.917,125.853z M127.677,99.5l0.041-0.041L127.677,99.5L127.677,99.5z		">
<animateTransform  type="rotate" fill="remove" to="115 97 97" from="0 97 97" restart="always" dur="25s" calcMode="linear" additive="replace" accumulate="none" repeatCount="indefinite" attributeType="XML" attributeName="transform">
				</animateTransform>
		</path>
	</g>
</g>
<g>
	<g>
		<path d="M85.007,106.739c0.516,0,0.998-0.276,1.45-0.828c0.45-0.552,0.887-1.26,1.311-2.126c0.424-0.864,0.838-1.825,1.243-2.884
			c0.404-1.059,0.818-2.094,1.242-3.105c-0.332,0.423-0.694,0.842-1.09,1.256c-0.397,0.414-0.828,0.787-1.297,1.118
			c-0.469,0.332-0.971,0.603-1.505,0.814c-0.534,0.213-1.086,0.318-1.656,0.318c-0.718,0-1.28-0.184-1.685-0.553
			c-0.405-0.367-0.645-0.832-0.717-1.394c-0.074-0.562,0.023-1.168,0.29-1.822c0.266-0.653,0.722-1.26,1.366-1.822
			c0.644-0.562,1.467-1.026,2.471-1.394c1.002-0.368,2.212-0.552,3.629-0.552c0.478,0,0.906-0.004,1.283-0.014
			c0.377-0.01,0.722-0.023,1.035-0.042c0.258-0.293,0.511-0.533,0.759-0.717c0.249-0.183,0.51-0.294,0.787-0.332
			c0.422-0.054,0.75,0.015,0.98,0.208c0.229,0.193,0.298,0.419,0.207,0.677c-0.093,0.22-0.272,0.386-0.539,0.497
			c-0.267,0.11-0.704,0.192-1.311,0.248c-0.258,0.516-0.543,1.256-0.856,2.222c-0.313,0.966-0.681,2.001-1.104,3.105
			c0.423-0.055,0.819-0.267,1.187-0.634c0.368-0.368,0.731-0.81,1.09-1.326c0.359-0.514,0.741-1.067,1.146-1.656
			c0.405-0.589,0.855-1.131,1.352-1.629c0.497-0.497,1.059-0.91,1.685-1.242s1.343-0.497,2.153-0.497
			c0.128,0,0.226,0.032,0.29,0.096c0.064,0.064,0.097,0.138,0.097,0.221c0,0.083-0.033,0.157-0.097,0.221
			c-0.064,0.064-0.161,0.096-0.29,0.096c-0.166,0-0.391,0.139-0.677,0.415c-0.285,0.276-0.625,0.626-1.021,1.048
			c-0.396,0.424-0.828,0.894-1.297,1.408c-0.47,0.516-0.962,1.021-1.477,1.518s-1.044,0.948-1.587,1.353
			c-0.542,0.405-1.072,0.708-1.587,0.911c0.387,0.222,0.681,0.515,0.883,0.883c0.203,0.369,0.35,0.769,0.442,1.201
			c0.091,0.433,0.146,0.875,0.166,1.325c0.019,0.451,0.037,0.855,0.055,1.214c0.018,0.359,0.064,0.654,0.139,0.884
			c0.073,0.23,0.211,0.345,0.414,0.345c0.349,0,0.749-0.221,1.201-0.662c0.451-0.441,0.86-0.984,1.229-1.628
			c0.202-0.312,0.373-0.437,0.51-0.373c0.138,0.064,0.133,0.263-0.014,0.594c-0.166,0.368-0.414,0.759-0.746,1.174
			c-0.331,0.413-0.695,0.795-1.09,1.145c-0.396,0.35-0.81,0.635-1.243,0.856c-0.432,0.221-0.824,0.331-1.173,0.331
			c-0.46,0-0.764-0.166-0.911-0.497s-0.22-0.746-0.22-1.242c0-0.498,0.041-1.036,0.124-1.616c0.083-0.579,0.128-1.131,0.138-1.656
			c0.008-0.524-0.055-0.975-0.194-1.352c-0.138-0.377-0.418-0.603-0.842-0.677h-0.056c-0.331,0.884-0.699,1.749-1.104,2.595
			c-0.405,0.847-0.855,1.602-1.353,2.263c-0.497,0.664-1.04,1.201-1.628,1.615c-0.589,0.415-1.242,0.622-1.96,0.622
			c-0.811,0-1.417-0.189-1.822-0.566c-0.405-0.378-0.644-0.801-0.718-1.271c-0.074-0.468,0.01-0.905,0.249-1.311
			c0.239-0.404,0.597-0.635,1.077-0.69c0.349-0.037,0.607,0.033,0.772,0.207c0.166,0.176,0.271,0.378,0.317,0.608
			c0.045,0.229,0.032,0.446-0.041,0.648c-0.074,0.202-0.175,0.304-0.304,0.304c-0.258,0-0.438,0.083-0.538,0.248
			c-0.102,0.166-0.134,0.345-0.097,0.539c0.037,0.193,0.143,0.369,0.318,0.525C84.422,106.661,84.676,106.739,85.007,106.739z
			 M91.991,95.035c-0.129,0.275-0.286,0.561-0.469,0.855c-0.147,0.258-0.328,0.547-0.539,0.869
			c-0.211,0.322-0.455,0.667-0.731,1.036c0.257-0.644,0.525-1.26,0.801-1.85c0.276-0.588,0.561-1.113,0.856-1.574h-1.933
			c-0.847,0-1.62,0.147-2.319,0.441c-0.7,0.295-1.302,0.658-1.808,1.09c-0.506,0.433-0.911,0.902-1.215,1.408
			c-0.304,0.507-0.479,0.976-0.524,1.408c-0.046,0.433,0.037,0.797,0.249,1.09c0.211,0.295,0.583,0.442,1.117,0.442
			c0.387,0,0.773-0.078,1.16-0.234c0.386-0.157,0.763-0.365,1.131-0.623c0.368-0.256,0.718-0.551,1.049-0.883
			c0.332-0.331,0.644-0.671,0.938-1.021c0.681-0.809,1.325-1.729,1.933-2.761L91.991,95.035z"/>
		<path d="M85.035,107.631c-0.862,0.001-1.574-0.201-2.073-0.665l0,0c-0.452-0.419-0.744-0.923-0.83-1.481l0,0
			c-0.02-0.128-0.03-0.256-0.03-0.384l0,0c0-0.411,0.111-0.812,0.326-1.171l0,0c0.285-0.496,0.776-0.81,1.354-0.869l0,0
			c0.071-0.008,0.142-0.012,0.212-0.012l0,0c0.325-0.003,0.646,0.096,0.867,0.33l0,0c0.209,0.221,0.353,0.493,0.412,0.789l0,0
			c0.022,0.111,0.033,0.221,0.033,0.331l0,0c0,0.176-0.031,0.35-0.09,0.514l0,0c-0.049,0.134-0.111,0.258-0.216,0.364l0,0
			c-0.102,0.106-0.27,0.187-0.433,0.183l0,0c-0.188,0.009-0.198,0.039-0.225,0.074l0,0c-0.042,0.069-0.057,0.124-0.059,0.193l0,0
			c0,0.024,0.003,0.053,0.009,0.083l0,0c0.021,0.104,0.073,0.203,0.202,0.32l0,0c0.085,0.075,0.237,0.14,0.514,0.14l0,0v0.369v0.155
			v-0.155v-0.369c0.375-0.002,0.75-0.19,1.164-0.693l0,0c0.427-0.521,0.852-1.208,1.266-2.055l0,0
			c0.417-0.852,0.827-1.804,1.229-2.854l0,0c0.148-0.388,0.297-0.771,0.447-1.152l0,0c-0.324,0.309-0.669,0.593-1.037,0.852l0,0
			c-0.493,0.347-1.021,0.634-1.581,0.857l0,0c-0.576,0.228-1.176,0.342-1.792,0.342l0,0c-0.777,0.002-1.443-0.202-1.931-0.646l0,0
			c-0.468-0.422-0.754-0.981-0.835-1.618l0,0c-0.018-0.138-0.027-0.278-0.027-0.42l0,0c0-0.512,0.118-1.043,0.342-1.589l0,0
			c0.292-0.715,0.787-1.37,1.465-1.96l0,0c0.687-0.597,1.55-1.082,2.585-1.462l0,0c1.056-0.386,2.308-0.574,3.757-0.574l0,0
			c0.476,0,0.901-0.005,1.274-0.014l0,0c0.313-0.008,0.604-0.018,0.872-0.033l0,0c0.236-0.258,0.473-0.477,0.713-0.655l0,0
			c0.29-0.215,0.614-0.354,0.958-0.399l0,0c0.107-0.014,0.212-0.022,0.315-0.022l0,0c0.355-0.001,0.691,0.094,0.949,0.312l0,0
			c0.22,0.179,0.38,0.45,0.377,0.745l0,0c0,0.117-0.023,0.229-0.061,0.335l0,0l-0.003,0.011l-0.004,0.009
			c-0.132,0.321-0.405,0.561-0.736,0.694l0,0c-0.297,0.122-0.689,0.198-1.21,0.254l0,0c-0.223,0.479-0.474,1.146-0.747,1.99l0,0
			c-0.241,0.743-0.513,1.524-0.817,2.345l0,0c0.096-0.068,0.192-0.151,0.291-0.248l0,0c0.35-0.35,0.7-0.775,1.048-1.275l0,0
			c0.358-0.515,0.739-1.066,1.145-1.655l0,0c0.417-0.607,0.882-1.168,1.395-1.68l0,0c0.523-0.523,1.115-0.959,1.772-1.308l0,0
			c0.684-0.362,1.466-0.54,2.325-0.539l0,0c0.185-0.001,0.394,0.05,0.551,0.206l0,0c0.121,0.116,0.207,0.298,0.203,0.479l0,0
			c0.004,0.181-0.082,0.364-0.204,0.481l0,0c-0.155,0.155-0.362,0.205-0.546,0.204l0,0c-0.002,0-0.008,0.001-0.017,0.005l0,0
			c-0.018,0.006-0.049,0.021-0.087,0.044l0,0c-0.08,0.048-0.19,0.135-0.32,0.261l0,0c-0.279,0.271-0.616,0.616-1.008,1.036l0,0
			c-0.395,0.422-0.826,0.89-1.294,1.405l0,0c-0.475,0.521-0.973,1.033-1.493,1.535l0,0c-0.526,0.507-1.067,0.968-1.623,1.383l0,0
			c-0.367,0.273-0.729,0.504-1.089,0.692l0,0c0.195,0.184,0.358,0.395,0.488,0.63l0,0c0.22,0.401,0.379,0.838,0.48,1.301l0,0
			c0.096,0.454,0.153,0.917,0.172,1.388l0,0c0.019,0.449,0.038,0.853,0.056,1.21l0,0c0.017,0.338,0.061,0.604,0.122,0.791l0,0
			c0.016,0.052,0.033,0.077,0.04,0.085l0,0l0.001,0.002c0,0,0.006,0.003,0.022,0.003l0,0c0.187,0.006,0.525-0.145,0.943-0.558l0,0
			c0.422-0.415,0.812-0.93,1.167-1.549l0,0l0.005-0.008l0.005-0.008c0.198-0.278,0.352-0.524,0.747-0.559l0,0
			c0.078,0,0.16,0.018,0.229,0.051l0,0c0.213,0.088,0.327,0.351,0.312,0.521l0,0c-0.003,0.192-0.062,0.359-0.146,0.557l0,0
			c-0.182,0.405-0.447,0.82-0.794,1.253l0,0c-0.343,0.43-0.722,0.828-1.133,1.191l0,0c-0.417,0.368-0.857,0.673-1.319,0.908l0,0
			c-0.467,0.238-0.912,0.371-1.339,0.371l0,0c-0.539,0.015-1.046-0.234-1.247-0.714l0,0c-0.176-0.396-0.252-0.86-0.253-1.393l0,0
			c0-0.518,0.043-1.073,0.128-1.667l0,0c0.081-0.565,0.125-1.103,0.134-1.609l0,0c0-0.03,0-0.06,0-0.09l0,0
			c0.001-0.452-0.061-0.829-0.171-1.131l0,0c-0.076-0.187-0.163-0.296-0.324-0.368l0,0c-0.304,0.788-0.637,1.562-1,2.318l0,0
			c-0.414,0.866-0.877,1.642-1.39,2.326l0,0c-0.516,0.688-1.086,1.256-1.712,1.695l0,0c-0.643,0.454-1.378,0.688-2.164,0.688l0,0
			C85.04,107.631,85.037,107.631,85.035,107.631L85.035,107.631z M92.322,100.72c0.148,0.404,0.216,0.866,0.216,1.383l0,0
			c0,0.032,0,0.066,0,0.102l0,0c-0.01,0.541-0.057,1.107-0.142,1.702l0,0c-0.081,0.564-0.121,1.086-0.121,1.562l0,0
			c0,0.462,0.069,0.825,0.19,1.094l0,0c0.092,0.182,0.192,0.263,0.575,0.277l0,0c0.271,0,0.609-0.087,1.006-0.291l0,0
			c0.27-0.138,0.534-0.304,0.792-0.497l0,0c-0.154,0.056-0.311,0.086-0.472,0.088l0,0c-0.17,0.002-0.354-0.055-0.491-0.172l0,0
			c-0.138-0.115-0.223-0.269-0.273-0.428l0,0c-0.087-0.275-0.136-0.597-0.156-0.979l0,0c-0.018-0.359-0.036-0.766-0.055-1.218l0,0
			c-0.018-0.431-0.07-0.851-0.158-1.263l0,0c-0.085-0.399-0.22-0.765-0.404-1.101l0,0c-0.17-0.308-0.41-0.549-0.744-0.742l0,0
			l-0.119-0.068C92.125,100.318,92.249,100.505,92.322,100.72L92.322,100.72z M83.862,103.791c-0.383,0.052-0.608,0.199-0.802,0.513
			l0,0c-0.153,0.257-0.223,0.516-0.224,0.798l0,0c0,0.086,0.007,0.176,0.022,0.269l0,0c0.06,0.381,0.247,0.725,0.604,1.059l0,0
			c0.126,0.118,0.285,0.218,0.48,0.294l0,0c-0.191-0.188-0.326-0.418-0.374-0.673l0,0c-0.015-0.074-0.022-0.149-0.022-0.222l0,0
			c0-0.203,0.059-0.405,0.166-0.578l0,0c0.164-0.277,0.477-0.412,0.783-0.424l0,0c0.007-0.014,0.017-0.034,0.026-0.062l0,0
			c0.031-0.085,0.046-0.17,0.046-0.265l0,0c0-0.06-0.006-0.121-0.019-0.187l0,0c-0.034-0.165-0.103-0.297-0.224-0.428l0,0
			c-0.053-0.054-0.134-0.099-0.333-0.101l0,0C83.954,103.784,83.908,103.786,83.862,103.791L83.862,103.791z M89.354,101.031
			c-0.409,1.067-0.827,2.039-1.256,2.916l0,0c-0.433,0.883-0.882,1.613-1.357,2.195l0,0c-0.16,0.197-0.33,0.369-0.511,0.511l0,0
			c0.19-0.083,0.374-0.188,0.553-0.312l0,0c0.553-0.389,1.069-0.898,1.546-1.534l0,0c0.48-0.641,0.919-1.374,1.314-2.202l0,0
			c0.4-0.837,0.764-1.691,1.092-2.565l0,0l0.089-0.239h0.011l0.122-0.316c0.421-1.099,0.787-2.128,1.098-3.087l0,0
			c0.317-0.977,0.604-1.729,0.877-2.274l0,0l0.092-0.183l0.204-0.019c0.588-0.052,1.005-0.138,1.204-0.222l0,0
			c0.197-0.084,0.283-0.174,0.336-0.291l0,0c0.012-0.036,0.015-0.062,0.015-0.08l0,0c-0.003-0.046-0.007-0.085-0.115-0.181l0,0
			c-0.102-0.083-0.24-0.138-0.476-0.139l0,0c-0.067,0-0.14,0.005-0.219,0.015l0,0c-0.209,0.029-0.41,0.11-0.616,0.263l0,0
			c-0.222,0.165-0.458,0.386-0.702,0.665l0,0l-0.101,0.115l-0.014,0.001l-0.322,0.502c-0.021,0.034-0.044,0.069-0.066,0.104l0,0
			l0.099,0.1l-0.26,0.26l0.26-0.26l0.182,0.182l-0.109,0.234c-0.136,0.292-0.3,0.589-0.483,0.882l0,0
			c-0.152,0.266-0.335,0.562-0.549,0.889l0,0c-0.21,0.319-0.449,0.658-0.718,1.019l0,0C90.157,98.975,89.75,99.992,89.354,101.031
			L89.354,101.031z M86.556,94.662c-0.971,0.356-1.754,0.802-2.356,1.327l0,0c-0.61,0.532-1.026,1.092-1.268,1.684l0,0
			c-0.195,0.476-0.286,0.913-0.286,1.311l0,0c0,0.11,0.006,0.218,0.021,0.324l0,0c0.065,0.485,0.258,0.855,0.601,1.169l0,0
			c0.322,0.293,0.778,0.454,1.437,0.456l0,0c0.524,0,1.028-0.096,1.521-0.292l0,0c0.33-0.129,0.646-0.284,0.948-0.462l0,0
			c-0.131,0.064-0.265,0.125-0.399,0.179l0,0c-0.425,0.173-0.861,0.261-1.297,0.261l0,0c-0.592,0.004-1.113-0.17-1.416-0.594l0,0
			c-0.223-0.309-0.332-0.683-0.33-1.081l0,0c0-0.087,0.005-0.175,0.015-0.264l0,0c0.053-0.502,0.252-1.02,0.575-1.558l0,0
			c0.327-0.544,0.758-1.043,1.291-1.499l0,0c0.538-0.459,1.175-0.842,1.904-1.15l0,0c0.174-0.072,0.352-0.137,0.532-0.193l0,0
			C87.501,94.37,87.003,94.497,86.556,94.662L86.556,94.662z M87.8,95.153c-0.67,0.282-1.239,0.626-1.712,1.031l0,0
			c-0.48,0.411-0.857,0.85-1.138,1.317l0,0c-0.285,0.475-0.437,0.896-0.475,1.258l0,0c-0.006,0.065-0.01,0.127-0.01,0.186l0,0
			c0.002,0.272,0.066,0.474,0.192,0.651l0,0c0.118,0.165,0.343,0.285,0.819,0.288l0,0c0.337,0,0.674-0.066,1.021-0.207l0,0
			c0.359-0.146,0.711-0.339,1.059-0.583l0,0c0.35-0.244,0.683-0.525,1-0.841l0,0c0.324-0.324,0.63-0.656,0.918-0.999l0,0
			c0.622-0.74,1.217-1.579,1.78-2.515l0,0h-1.278C89.171,94.74,88.45,94.879,87.8,95.153L87.8,95.153z M97.932,93.455
			c-0.595,0.314-1.125,0.706-1.596,1.177l0,0c-0.48,0.48-0.918,1.006-1.31,1.578l0,0c-0.405,0.589-0.788,1.142-1.146,1.657l0,0
			c-0.37,0.53-0.746,0.989-1.133,1.375l0,0c-0.036,0.036-0.072,0.071-0.11,0.104l0,0c0.323-0.167,0.656-0.377,0.997-0.632l0,0
			c0.53-0.395,1.047-0.836,1.551-1.323l0,0c0.51-0.492,0.997-0.992,1.461-1.501l0,0c0.47-0.516,0.903-0.986,1.3-1.411l0,0
			c0.399-0.426,0.742-0.78,1.034-1.062l0,0c0.183-0.168,0.342-0.308,0.515-0.4l0,0C98.91,93.063,98.392,93.211,97.932,93.455
			L97.932,93.455z"/>
	</g>
	<g>
		<path d="M101.155,98.126c0.497,0,0.864,0.221,1.104,0.663l0.028-0.028c0.091-0.203,0.244-0.349,0.455-0.441
			c0.211-0.092,0.419-0.138,0.621-0.138s0.368,0.051,0.496,0.152c0.13,0.102,0.157,0.244,0.083,0.428
			c-0.092,0.203-0.226,0.543-0.399,1.022c-0.175,0.479-0.358,0.994-0.552,1.545s-0.373,1.087-0.539,1.602
			c-0.165,0.515-0.284,0.893-0.358,1.132s-0.144,0.465-0.207,0.676c-0.064,0.213-0.105,0.391-0.124,0.539
			c-0.019,0.147,0.006,0.267,0.069,0.359c0.063,0.092,0.179,0.137,0.345,0.137c0.35,0,0.75-0.221,1.2-0.662
			c0.451-0.441,0.86-0.984,1.229-1.628c0.203-0.313,0.373-0.437,0.511-0.373c0.139,0.064,0.133,0.263-0.014,0.594
			c-0.166,0.368-0.413,0.759-0.745,1.173s-0.695,0.796-1.091,1.146s-0.811,0.635-1.242,0.856c-0.434,0.221-0.823,0.331-1.174,0.331
			c-0.459,0-0.745-0.152-0.855-0.456s-0.129-0.667-0.055-1.091c-0.479,0.497-0.958,0.888-1.436,1.174
			c-0.479,0.285-0.93,0.428-1.353,0.428c-0.386,0-0.69-0.125-0.91-0.373c-0.221-0.248-0.368-0.58-0.442-0.994
			c-0.073-0.414-0.06-0.896,0.041-1.449c0.102-0.551,0.29-1.141,0.566-1.766c0.276-0.626,0.607-1.215,0.993-1.767
			c0.387-0.552,0.796-1.036,1.229-1.45c0.433-0.414,0.865-0.74,1.298-0.979C100.359,98.247,100.77,98.126,101.155,98.126z
			 M100.383,104.227c0.312-0.883,0.606-1.747,0.883-2.596c0.276-0.845,0.516-1.544,0.718-2.097c-0.147-0.441-0.414-0.681-0.8-0.717
			c-0.259,0-0.534,0.087-0.829,0.262c-0.294,0.176-0.588,0.415-0.883,0.718c-0.294,0.304-0.57,0.663-0.828,1.076
			c-0.258,0.415-0.479,0.86-0.663,1.339c-0.386,0.958-0.539,1.776-0.455,2.457c0.082,0.682,0.372,1.031,0.869,1.049
			c0.276,0.018,0.575-0.077,0.897-0.29c0.322-0.211,0.64-0.501,0.952-0.87L100.383,104.227z"/>
		<path d="M95.967,107.135c-0.276-0.31-0.447-0.711-0.529-1.175l0,0c-0.035-0.197-0.052-0.405-0.052-0.622l0,0
			c0-0.3,0.031-0.619,0.094-0.957l0,0c0.108-0.586,0.306-1.201,0.591-1.849l0,0c0.286-0.646,0.629-1.257,1.029-1.828l0,0
			c0.399-0.569,0.823-1.071,1.275-1.504l0,0c0.45-0.433,0.909-0.779,1.373-1.037l0,0c0.473-0.261,0.943-0.404,1.407-0.404l0,0v0.367
			v0.323v-0.323v-0.367c0.426-0.009,0.817,0.147,1.11,0.429l0,0c0.099-0.084,0.21-0.154,0.33-0.206l0,0
			c0.25-0.109,0.509-0.168,0.769-0.168l0,0c0.261-0.001,0.52,0.07,0.724,0.23l0,0c0.156,0.115,0.269,0.331,0.263,0.533l0,0
			c-0.001,0.116-0.028,0.22-0.064,0.316l0,0l-0.006,0.016l-0.002,0.005c-0.085,0.184-0.217,0.521-0.39,0.995l0,0
			c-0.175,0.477-0.357,0.99-0.55,1.542l0,0c-0.193,0.549-0.371,1.08-0.536,1.592l0,0c-0.164,0.515-0.284,0.892-0.357,1.129l0,0
			c-0.073,0.238-0.143,0.463-0.207,0.675l0,0c-0.061,0.198-0.097,0.359-0.109,0.478l0,0c-0.004,0.021-0.005,0.036-0.005,0.048l0,0
			c0,0.016,0.001,0.024,0.002,0.031l0,0c0.013,0.002,0.029,0.004,0.052,0.004l0,0c0.188,0.007,0.524-0.145,0.943-0.558l0,0
			c0.422-0.415,0.812-0.93,1.167-1.548l0,0l0.005-0.009l0.005-0.008c0.197-0.278,0.352-0.525,0.747-0.559l0,0
			c0.078,0,0.159,0.019,0.229,0.052l0,0c0.211,0.087,0.325,0.35,0.311,0.52l0,0c-0.003,0.192-0.061,0.358-0.146,0.557l0,0
			c-0.183,0.405-0.446,0.82-0.793,1.254l0,0c-0.344,0.43-0.723,0.827-1.135,1.19l0,0c-0.417,0.368-0.855,0.673-1.317,0.909l0,0
			c-0.469,0.237-0.913,0.37-1.341,0.371l0,0c-0.271-0.001-0.515-0.043-0.732-0.158l0,0c-0.216-0.111-0.389-0.311-0.469-0.539l0,0
			c-0.041-0.113-0.071-0.23-0.092-0.353l0,0c-0.286,0.242-0.574,0.451-0.865,0.625l0,0c-0.519,0.31-1.034,0.48-1.541,0.48l0,0
			c-0.007,0-0.014,0-0.02,0l0,0C96.678,107.631,96.254,107.464,95.967,107.135L95.967,107.135z M98.884,99.73
			c-0.413,0.395-0.807,0.86-1.181,1.396l0,0c-0.373,0.531-0.692,1.1-0.959,1.704l0,0c-0.266,0.604-0.445,1.167-0.541,1.685l0,0
			c-0.055,0.301-0.081,0.574-0.081,0.823l0,0c0,0.18,0.014,0.345,0.041,0.494l0,0c0.065,0.365,0.188,0.627,0.354,0.814l0,0
			c0.149,0.163,0.325,0.245,0.636,0.249l0,0c0.338,0,0.726-0.114,1.164-0.375l0,0c0.262-0.157,0.526-0.348,0.793-0.576l0,0
			c-0.214,0.092-0.429,0.142-0.647,0.143l0,0c-0.028,0-0.058-0.001-0.082-0.003l0,0c-0.33-0.007-0.652-0.15-0.86-0.408l0,0
			c-0.209-0.254-0.313-0.581-0.361-0.963l0,0c-0.017-0.137-0.025-0.276-0.025-0.419l0,0c0-0.666,0.174-1.402,0.502-2.216l0,0
			c0.191-0.498,0.423-0.965,0.694-1.4l0,0c0.269-0.434,0.56-0.813,0.875-1.138l0,0c0.264-0.272,0.531-0.5,0.805-0.682l0,0
			C99.643,99.076,99.266,99.365,98.884,99.73L98.884,99.73z M100.303,105.727c-0.026,0.15-0.039,0.288-0.039,0.415l0,0
			c0,0.189,0.028,0.349,0.078,0.485l0,0c0.03,0.073,0.055,0.103,0.124,0.143l0,0c0.069,0.038,0.195,0.071,0.386,0.07l0,0
			c0.271,0.001,0.607-0.087,1.006-0.291l0,0c0.271-0.138,0.532-0.303,0.791-0.496l0,0c-0.154,0.055-0.311,0.085-0.472,0.087l0,0
			c-0.224,0.003-0.489-0.069-0.646-0.294l0,0c-0.101-0.142-0.145-0.314-0.144-0.476l0,0c0-0.05,0.004-0.096,0.01-0.139l0,0
			c0.021-0.18,0.069-0.377,0.138-0.601l0,0c0.063-0.213,0.133-0.438,0.206-0.678l0,0c0.076-0.242,0.195-0.621,0.36-1.137l0,0
			c0.168-0.518,0.347-1.056,0.542-1.61l0,0c0.193-0.553,0.378-1.07,0.554-1.55l0,0c0.174-0.476,0.307-0.816,0.406-1.038l0,0
			c0.002-0.005,0.003-0.009,0.005-0.013l0,0c-0.052-0.033-0.123-0.055-0.245-0.056l0,0c-0.147,0-0.302,0.032-0.475,0.106l0,0
			c-0.14,0.063-0.209,0.135-0.267,0.257l0,0l-0.028,0.062l-0.31,0.307c0.018,0.044,0.033,0.089,0.047,0.135l0,0l0.041,0.122
			l-0.045,0.122c-0.199,0.545-0.437,1.242-0.713,2.085l0,0c-0.277,0.851-0.573,1.719-0.886,2.604l0,0l-0.004,0.009l-0.164,0.395
			l-0.037,0.042c-0.022,0.029-0.046,0.055-0.069,0.083l0,0L100.303,105.727L100.303,105.727z M100.544,99.394
			c-0.261,0.156-0.533,0.373-0.809,0.658l0,0c-0.273,0.283-0.534,0.62-0.78,1.015l0,0c-0.246,0.393-0.456,0.817-0.634,1.282l0,0
			c-0.307,0.758-0.452,1.409-0.451,1.944l0,0c0,0.115,0.007,0.225,0.019,0.329l0,0c0.036,0.3,0.118,0.488,0.198,0.583l0,0
			c0.083,0.094,0.154,0.134,0.329,0.145l0,0c0.013,0.001,0.027,0.002,0.046,0.002l0,0c0.161,0,0.37-0.063,0.627-0.232l0,0
			c0.274-0.179,0.554-0.431,0.838-0.758l0,0l0.113-0.272c0.31-0.876,0.603-1.732,0.875-2.572l0,0
			c0.256-0.782,0.479-1.441,0.674-1.977l0,0c-0.115-0.256-0.225-0.323-0.429-0.355l0,0C100.991,99.188,100.787,99.25,100.544,99.394
			L100.544,99.394z"/>
	</g>
	<g>
		<path d="M107.421,97.712c-0.184,0.534-0.386,1.132-0.607,1.794c-0.22,0.663-0.427,1.302-0.621,1.918
			c-0.192,0.616-0.367,1.165-0.524,1.643c-0.155,0.479-0.262,0.811-0.316,0.994c-0.074,0.239-0.145,0.465-0.208,0.676
			c-0.064,0.213-0.101,0.391-0.11,0.539c-0.009,0.147,0.015,0.267,0.069,0.359c0.056,0.092,0.165,0.137,0.331,0.137
			c0.349,0,0.754-0.221,1.215-0.662c0.459-0.441,0.874-0.984,1.242-1.628c0.183-0.313,0.345-0.437,0.482-0.373
			c0.139,0.064,0.134,0.263-0.014,0.594c-0.166,0.368-0.41,0.759-0.731,1.173c-0.322,0.414-0.686,0.796-1.091,1.146
			c-0.404,0.35-0.819,0.635-1.242,0.856c-0.423,0.221-0.81,0.331-1.159,0.331c-0.368,0-0.62-0.098-0.759-0.29
			c-0.138-0.193-0.207-0.438-0.207-0.731c0-0.295,0.052-0.616,0.151-0.967c0.102-0.35,0.208-0.68,0.318-0.994
			c0.165-0.441,0.345-0.952,0.538-1.531c0.192-0.58,0.386-1.168,0.58-1.767c0.192-0.598,0.381-1.177,0.564-1.74
			c0.186-0.561,0.351-1.053,0.498-1.476h-1.132c-0.093,0-0.147-0.037-0.166-0.111c-0.019-0.073-0.009-0.156,0.027-0.248
			c0.037-0.092,0.093-0.174,0.166-0.249c0.073-0.073,0.156-0.11,0.249-0.11h1.104l0.109-0.276c0.074-0.202,0.227-0.387,0.457-0.552
			c0.229-0.166,0.459-0.285,0.689-0.358c0.229-0.074,0.419-0.087,0.565-0.041c0.146,0.045,0.184,0.161,0.11,0.344l-0.331,0.884
			h1.518c0.092,0,0.147,0.038,0.166,0.11c0.019,0.075,0.01,0.157-0.026,0.249c-0.038,0.092-0.094,0.175-0.167,0.248
			c-0.073,0.075-0.156,0.111-0.248,0.111L107.421,97.712L107.421,97.712z"/>
		<path d="M103.078,107.131c-0.19-0.266-0.276-0.594-0.276-0.943l0,0c0-0.338,0.059-0.693,0.167-1.069l0,0
			c0.104-0.355,0.212-0.692,0.328-1.021l0,0c0.163-0.436,0.341-0.942,0.533-1.519l0,0c0.192-0.578,0.385-1.166,0.579-1.764l0,0
			c0.192-0.598,0.381-1.178,0.565-1.741l0,0c0.117-0.359,0.227-0.689,0.33-0.993l0,0h-0.615c-0.094,0-0.206-0.018-0.315-0.09l0,0
			c-0.11-0.07-0.185-0.195-0.207-0.297l0,0c-0.015-0.057-0.021-0.113-0.021-0.168l0,0c0-0.109,0.025-0.215,0.063-0.308l0,0
			c0.055-0.14,0.142-0.267,0.249-0.373l0,0c0.123-0.128,0.314-0.22,0.507-0.217l0,0h0.855l0.014-0.035
			c0.105-0.29,0.315-0.529,0.586-0.724l0,0c0.257-0.185,0.521-0.324,0.794-0.411l0,0c0.167-0.054,0.327-0.086,0.489-0.086l0,0
			c0.098,0,0.198,0.012,0.297,0.043l0,0c0.099,0.03,0.207,0.088,0.288,0.19l0,0c0.082,0.102,0.118,0.235,0.117,0.345l0,0
			c-0.001,0.113-0.028,0.205-0.06,0.29l0,0l-0.145,0.387h0.987c0.094,0,0.206,0.019,0.315,0.089l0,0
			c0.108,0.069,0.184,0.193,0.208,0.301l0,0c0.014,0.057,0.019,0.112,0.019,0.164l0,0c0,0.11-0.025,0.211-0.063,0.309l0,0
			c-0.055,0.14-0.141,0.266-0.247,0.372l0,0c-0.124,0.128-0.316,0.221-0.508,0.218l0,0h-1.229c-0.16,0.467-0.334,0.98-0.521,1.542
			l0,0c-0.221,0.661-0.426,1.298-0.619,1.912l0,0c-0.194,0.617-0.369,1.167-0.527,1.647l0,0c-0.155,0.477-0.261,0.808-0.314,0.988
			l0,0c-0.074,0.238-0.144,0.464-0.207,0.675l0,0c-0.061,0.193-0.089,0.348-0.095,0.455l0,0c-0.002,0.019-0.002,0.032-0.002,0.038
			l0,0c0,0.028,0.002,0.05,0.005,0.065l0,0c0.009,0.001,0.018,0.002,0.03,0.002l0,0c0.187,0.007,0.531-0.146,0.96-0.561l0,0
			c0.43-0.414,0.825-0.928,1.18-1.55l0,0c0.087-0.148,0.174-0.27,0.281-0.373l0,0c0.104-0.098,0.248-0.195,0.445-0.197l0,0
			c0.079-0.001,0.16,0.019,0.229,0.051l0,0c0.213,0.088,0.326,0.351,0.311,0.521l0,0c-0.003,0.192-0.061,0.358-0.146,0.557l0,0
			c-0.181,0.403-0.441,0.816-0.776,1.249l0,0c-0.337,0.433-0.718,0.833-1.141,1.197l0,0c-0.423,0.366-0.861,0.668-1.312,0.905l0,0
			c-0.459,0.238-0.901,0.371-1.329,0.371l0,0c-0.005,0-0.009,0-0.014,0l0,0C103.706,107.575,103.313,107.458,103.078,107.131
			L103.078,107.131z M106.338,97.344l-0.17,0.489c-0.146,0.421-0.311,0.911-0.495,1.471l0,0c-0.185,0.561-0.372,1.14-0.564,1.737
			l0,0c-0.194,0.6-0.388,1.189-0.581,1.771l0,0c-0.193,0.582-0.376,1.098-0.54,1.537l0,0c-0.108,0.307-0.212,0.632-0.312,0.973l0,0
			c-0.093,0.325-0.137,0.614-0.137,0.865l0,0c0.001,0.238,0.053,0.397,0.138,0.518l0,0c0.039,0.057,0.147,0.133,0.46,0.136l0,0
			c0.271,0,0.602-0.087,0.989-0.29l0,0c0.269-0.139,0.532-0.306,0.795-0.503l0,0c-0.159,0.059-0.32,0.09-0.486,0.092l0,0
			c-0.219,0.006-0.498-0.067-0.646-0.314l0,0c-0.09-0.151-0.124-0.321-0.124-0.487l0,0c0-0.034,0.002-0.062,0.003-0.085l0,0
			c0.012-0.189,0.056-0.392,0.126-0.621l0,0c0.064-0.213,0.135-0.438,0.207-0.676l0,0c0.058-0.19,0.163-0.522,0.319-1.002l0,0
			c0.156-0.477,0.331-1.024,0.523-1.64l0,0c0.193-0.618,0.401-1.259,0.624-1.924l0,0c0.221-0.664,0.423-1.262,0.607-1.798l0,0
			l0.08-0.23h-0.015l0.468-1.246c-0.048,0.008-0.104,0.021-0.169,0.042l0,0c-0.189,0.06-0.385,0.16-0.589,0.307l0,0
			c-0.188,0.136-0.282,0.264-0.328,0.39l0,0l-0.195,0.49L106.338,97.344L106.338,97.344z M107.421,98.081v-0.368V98.081
			L107.421,98.081z"/>
	</g>
	<g>
		<path d="M114.074,103.481c0.222-0.312,0.396-0.432,0.524-0.358c0.129,0.074,0.11,0.267-0.055,0.58
			c-0.203,0.405-0.465,0.814-0.787,1.228c-0.321,0.414-0.689,0.787-1.104,1.118c-0.414,0.33-0.864,0.598-1.353,0.801
			c-0.487,0.202-1.007,0.304-1.56,0.304c-0.404,0-0.786-0.084-1.146-0.25c-0.358-0.164-0.662-0.409-0.91-0.73
			c-0.249-0.322-0.424-0.717-0.524-1.187c-0.102-0.469-0.088-1.008,0.04-1.615c0.11-0.57,0.294-1.137,0.553-1.698
			c0.257-0.561,0.57-1.075,0.938-1.545c0.367-0.469,0.772-0.873,1.215-1.214c0.44-0.34,0.9-0.575,1.38-0.704
			c0.717-0.184,1.288-0.134,1.711,0.151c0.424,0.286,0.599,0.718,0.524,1.297c-0.073,0.58-0.454,1.271-1.145,2.071
			s-1.791,1.633-3.299,2.497c0.202,0.534,0.524,0.916,0.966,1.146c0.442,0.23,0.92,0.3,1.437,0.207
			c0.607-0.128,1.099-0.382,1.477-0.758C113.333,104.443,113.706,103.997,114.074,103.481z M108.912,102.267
			c-0.093,0.534-0.093,1.003,0,1.408c1.085-0.607,1.849-1.219,2.291-1.836c0.441-0.616,0.68-1.154,0.718-1.614
			c0.037-0.46-0.073-0.801-0.331-1.021c-0.258-0.221-0.543-0.249-0.855-0.083c-0.516,0.258-0.921,0.686-1.215,1.284
			C109.225,101.002,109.022,101.623,108.912,102.267z"/>
		<path d="M108.441,107.238c-0.413-0.189-0.767-0.476-1.049-0.84l0,0c-0.286-0.372-0.481-0.822-0.593-1.335l0,0
			c-0.051-0.234-0.076-0.48-0.076-0.737l0,0c0-0.326,0.04-0.67,0.115-1.024l0,0c0.116-0.601,0.311-1.196,0.579-1.782l0,0
			c0.27-0.586,0.597-1.127,0.983-1.619l0,0c0.387-0.492,0.812-0.918,1.279-1.279l0,0c0.475-0.365,0.979-0.625,1.514-0.768l0,0
			c0.306-0.078,0.594-0.12,0.867-0.12l0,0c0.423-0.001,0.814,0.102,1.141,0.323l0,0c0.456,0.297,0.712,0.802,0.702,1.354l0,0
			c0,0.097-0.006,0.194-0.019,0.295l0,0c-0.093,0.701-0.52,1.435-1.231,2.264l0,0c-0.688,0.796-1.722,1.59-3.105,2.408l0,0
			c0.167,0.311,0.385,0.522,0.664,0.669l0,0c0.265,0.138,0.536,0.204,0.832,0.205l0,0c0.117,0,0.24-0.011,0.356-0.031l0,0
			c0.552-0.117,0.972-0.338,1.293-0.659l0,0c0.358-0.36,0.721-0.789,1.078-1.291l0,0l0,0c0,0,0-0.001,0.001-0.001l0,0
			c0-0.001,0-0.001,0.001-0.001l0,0l0,0c0.209-0.269,0.355-0.499,0.743-0.533l0,0c0.09-0.002,0.187,0.024,0.263,0.067l0,0
			c0.181,0.095,0.28,0.327,0.269,0.486l0,0c-0.005,0.212-0.078,0.381-0.179,0.578l0,0c-0.215,0.43-0.49,0.859-0.825,1.29l0,0
			c-0.339,0.437-0.729,0.83-1.164,1.18l0,0c-0.44,0.353-0.922,0.638-1.441,0.852l0,0c-0.533,0.223-1.104,0.332-1.701,0.332l0,0
			C109.285,107.521,108.847,107.426,108.441,107.238L108.441,107.238z M108.981,100.354c-0.352,0.445-0.648,0.936-0.895,1.473l0,0
			c-0.247,0.536-0.422,1.073-0.527,1.62l0,0c-0.067,0.318-0.1,0.612-0.1,0.879l0,0c0,0.21,0.02,0.403,0.059,0.582l0,0
			c0.092,0.426,0.246,0.768,0.457,1.04l0,0c0.214,0.278,0.468,0.48,0.773,0.622l0,0c0.311,0.143,0.637,0.214,0.991,0.214l0,0
			c0.507-0.001,0.977-0.091,1.418-0.274l0,0c0.456-0.19,0.876-0.438,1.265-0.748l0,0c0.145-0.117,0.284-0.238,0.419-0.365l0,0
			c-0.368,0.26-0.804,0.441-1.299,0.545l0,0c-0.167,0.029-0.332,0.045-0.497,0.045l0,0c-0.411,0.001-0.808-0.098-1.172-0.287l0,0
			c-0.527-0.272-0.916-0.742-1.141-1.342l0,0l-0.051-0.134l-0.021,0.012l-0.037-0.163l-0.003-0.009h0.002l-0.07-0.306
			c-0.053-0.233-0.079-0.479-0.079-0.738l0,0c0-0.258,0.025-0.529,0.076-0.814l0,0h-0.002c0.116-0.678,0.331-1.336,0.641-1.963l0,0
			c0.064-0.131,0.135-0.256,0.21-0.374l0,0C109.255,100.02,109.115,100.182,108.981,100.354L108.981,100.354z M114.198,103.57
			c0-0.001,0-0.001,0-0.002l0,0l-0.123-0.087L114.198,103.57L114.198,103.57z M109.273,102.33c-0.043,0.249-0.063,0.478-0.063,0.689
			l0,0c0,0.018,0,0.036,0.001,0.053l0,0c0.801-0.495,1.364-0.986,1.694-1.448l0,0c0.421-0.585,0.622-1.074,0.649-1.429l0,0
			c0.004-0.046,0.006-0.092,0.006-0.138l0,0c-0.005-0.308-0.082-0.462-0.21-0.575l0,0c-0.098-0.082-0.161-0.1-0.23-0.102l0,0
			c-0.054,0-0.121,0.014-0.222,0.068l0,0c-0.437,0.22-0.781,0.577-1.048,1.117l0,0c-0.28,0.567-0.471,1.154-0.575,1.763l0,0
			l-0.362-0.062L109.273,102.33L109.273,102.33z M111.829,98.923c0.321,0.273,0.469,0.689,0.466,1.134l0,0
			c0,0.063-0.003,0.127-0.009,0.196l0,0c-0.047,0.564-0.321,1.153-0.784,1.8l0,0c-0.029,0.04-0.059,0.08-0.09,0.12l0,0
			c0.267-0.233,0.495-0.462,0.687-0.685l0,0c0.668-0.771,1.005-1.419,1.059-1.874l0,0c0.008-0.075,0.014-0.143,0.014-0.204l0,0
			c-0.009-0.361-0.113-0.556-0.378-0.744l0,0c-0.19-0.128-0.42-0.197-0.73-0.198l0,0c-0.197,0-0.427,0.03-0.68,0.095l0,0
			c-0.087,0.023-0.172,0.051-0.258,0.082l0,0c0.001,0,0.002,0,0.004,0l0,0C111.387,98.646,111.634,98.754,111.829,98.923
			L111.829,98.923z"/>
	</g>
</g>
<text transform="matrix(1 0 0 1 89.6406 90.1113)" fill="#FFFFFF" font-family="'Colaborate-Thin'" font-size="2.946">PHOTOS BY</text>
<text transform="matrix(1 0 0 1 92.3545 90.1113)" fill="none" stroke="#000000" stroke-width="0.3014" font-family="'Colaborate-Thin'" font-size="2.946">PHOTOS BY</text>
<g>
	<g>
		<path fill="none" stroke="#000000" stroke-width="0.3014" d="M120.063,98.112c0,11.249-9.119,20.368-20.369,20.368"/>
		<path stroke="#000000" stroke-width="0.3014" d="M118.896,98.112c-0.104,10.255-9.306,17.934-19.202,18.034
			c-1.64,0.017-1.627,4.686,0,4.669c5.812-0.059,11.206-2.424,15.267-6.562c4.185-4.266,6.21-10.243,6.27-16.141
			c0.007-0.661-0.197-2.335-1.167-2.335C119.086,95.777,118.903,97.451,118.896,98.112L118.896,98.112z"/>
	</g>
</g>
<ellipse transform="matrix(-0.7939 0.6081 -0.6081 -0.7939 209.96 96.8324)" cx="88.569" cy="84.001" rx="4.125" ry="3.413"/>
<circle cx="83.761" cy="87.829" r="1.18"/>
<g>
	<polygon points="89.429,89.481 89.429,89.228 91.705,89.228 91.705,89.481 	"/>
</g>
<g>
	<polygon points="107.118,89.481 107.118,89.228 109.393,89.228 109.393,89.481 	"/>
</g>
<circle fill="none" stroke="#000000" stroke-width="3.3445" cx="99.5" cy="99.5" r="25.964"/>
<circle fill="none" stroke="#000000" stroke-width="0.6167" cx="99.5" cy="99.5" r="23.553"/>
</svg>
