<?xml version="1.0" encoding="utf-8"?>
<!-- Generator: Adobe Illustrator 13.0.0, SVG Export Plug-In . SVG Version: 6.00 Build 14948)  -->
<!DOCTYPE svg PUBLIC "-//W3C//DTD SVG 1.1//EN" "http://www.w3.org/Graphics/SVG/1.1/DTD/svg11.dtd">
<svg version="1.1" id="Capa_1" xmlns="http://www.w3.org/2000/svg" xmlns:xlink="http://www.w3.org/1999/xlink" x="0px" y="0px"
	 width="32px" height="32px" viewBox="170.923 170.923 32 32" enable-background="new 170.923 170.923 32 32" xml:space="preserve">
<g>
	<g>
		<g>
			<path d="M196.929,192.683c0.304-0.487,0.929-0.653,1.435-0.377l0.423,0.221c0.258,0.146,0.45,0.386,0.533,0.671
				c0.073,0.294,0.027,0.598-0.119,0.846c-0.607,0.983-1.324,1.876-2.151,2.666c-0.202,0.193-0.469,0.304-0.745,0.304
				c-0.019,0-0.036,0-0.055,0c-0.295-0.019-0.579-0.147-0.772-0.377l-0.304-0.368c-0.377-0.432-0.35-1.075,0.064-1.479
				C195.891,194.162,196.46,193.454,196.929,192.683z"/>
			<path d="M188.466,197.804c0.901-0.064,1.793-0.239,2.652-0.524c0.543-0.175,1.131,0.101,1.343,0.625l0.175,0.45
				c0.11,0.276,0.101,0.589-0.019,0.855c-0.129,0.267-0.358,0.479-0.644,0.57c-0.584,0.192-1.186,0.349-1.793,0.459
				c-0.51,0.102-1.034,0.166-1.559,0.203c-0.022,0-0.046,0-0.073,0c-0.271,0-0.533-0.102-0.735-0.285
				c-0.216-0.202-0.345-0.487-0.345-0.782l-0.005-0.478C187.455,198.327,187.896,197.85,188.466,197.804z"/>
			<path d="M179.875,195.955c0.363-0.441,1.007-0.523,1.471-0.192c0.731,0.533,1.526,0.974,2.363,1.305
				c0.533,0.212,0.809,0.8,0.629,1.343l-0.151,0.45c-0.092,0.285-0.299,0.515-0.565,0.644c-0.147,0.074-0.304,0.102-0.46,0.102
				c-0.138,0-0.271-0.019-0.4-0.074c-1.062-0.423-2.068-0.974-2.992-1.646c-0.244-0.175-0.4-0.441-0.437-0.744
				c-0.037-0.295,0.051-0.589,0.239-0.818L179.875,195.955z"/>
			<path d="M175.471,188.885l0.474-0.087c0.561-0.105,1.108,0.248,1.246,0.805c0.221,0.887,0.547,1.737,0.979,2.537
				c0.271,0.506,0.106,1.131-0.381,1.435l-0.405,0.248c-0.174,0.11-0.372,0.166-0.57,0.166c-0.097,0-0.188-0.01-0.28-0.037
				c-0.285-0.073-0.529-0.267-0.671-0.533c-0.552-1.012-0.965-2.092-1.241-3.214c-0.069-0.289-0.018-0.593,0.143-0.846
				C174.924,189.111,175.181,188.941,175.471,188.885z"/>
			<path d="M176.059,185.728h-0.483c0,0,0,0-0.004,0c-0.598,0-1.08-0.482-1.08-1.08c0-0.092,0.009-0.175,0.032-0.258
				c0.4-2.151,1.342-4.201,2.726-5.93c2.092-2.616,5.066-4.349,8.367-4.882c0.717-0.12,1.443-0.175,2.165-0.175
				c1.857,0,3.705,0.386,5.396,1.131l0.846-0.846c0.175-0.175,0.423-0.244,0.662-0.185c0.239,0.056,0.433,0.234,0.506,0.474
				l1.747,5.567c0.073,0.248,0.009,0.52-0.175,0.708c-0.184,0.184-0.46,0.248-0.708,0.17l-5.566-1.742
				c-0.235-0.074-0.414-0.267-0.474-0.506s0.014-0.492,0.188-0.667l0.938-0.938c-1.085-0.358-2.211-0.538-3.369-0.538
				c-3.306,0-6.39,1.485-8.463,4.078c-1.103,1.379-1.857,3.02-2.184,4.739C177.024,185.36,176.579,185.728,176.059,185.728z">

				<animateTransform attributeName="transform"
				 attributeType="XML"


  type="scale"
  from="1 1"
  to="3 1.25"
  begin="0s"
  dur="2s"
  repeatCount="0"
/>
				 />

				 </path>
		</g>
	</g>
</g>
</svg>
